<svg width="720" height="1028" viewBox="0 0 720 1028" fill="none" xmlns="http://www.w3.org/2000/svg">
<path d="M708.394 428.953C690.428 409.787 688.696 468.851 679.908 486.25C672.174 501.574 603.138 498.456 576.761 457.032C550.385 415.622 538.835 490.934 557.101 506.567C575.368 522.199 676.644 549.757 693.128 513.111C709.611 476.466 717.257 438.429 708.394 428.953Z" fill="#A8E3F9"/>
<path d="M704.175 419.785C686.21 400.605 684.478 459.682 675.69 477.082C667.956 492.406 598.92 489.288 572.543 447.864C546.166 406.454 534.616 481.766 552.883 497.399C571.15 513.031 672.425 540.589 688.909 503.943C705.406 467.285 713.051 429.247 704.175 419.785Z" fill="url(#paint0_linear)"/>
<path d="M720.201 721.049C720.201 721.049 466.804 660.928 267.19 798.783C67.5762 936.639 50.0001 1031.67 50.0001 1031.67H720.201V721.049Z" fill="url(#paint1_linear)"/>
<path d="M719 983.284C719 983.284 557.224 861 370.35 861C257.093 861 154.029 898.408 0 1028H719V983.284Z" fill="url(#paint2_linear)"/>
<path d="M60.5517 20C60.5517 20 20.8968 148.659 95.3366 200.926C169.776 253.194 206.353 248.597 215.828 323.943C225.303 399.288 298.469 431.44 327.488 415.357C356.507 399.275 507.897 330.041 558.996 384.091C610.094 438.141 660.574 458.244 678.238 408.656C695.902 359.069 716.089 348.455 716.72 328.968C717.35 309.482 716.72 20 716.72 20H60.5517Z" fill="#A8E3F9"/>
<path d="M65.5517 0C65.5517 0 25.8968 128.35 100.337 180.492C174.776 232.635 211.353 228.049 220.828 303.214C230.303 378.379 303.469 410.453 332.488 394.409C361.507 378.365 512.897 309.297 563.996 363.217C615.094 417.138 665.574 437.193 683.238 387.724C700.902 338.256 721.089 327.667 721.72 308.227C722.35 288.788 721.72 0 721.72 0H65.5517Z" fill="url(#paint3_linear)"/>
<path d="M23.8463 370.657C13.852 356.672 7.86392 341.468 9.18045 332.761C10.7093 322.687 18.5235 315.427 45.1514 331.113C92.3623 358.922 105.853 485.457 23.8463 370.657Z" fill="#A8E3F9"/>
<path d="M30.8463 368.66C20.852 354.674 14.8639 339.469 16.1805 330.761C17.7093 320.687 25.5235 313.426 52.1514 329.114C99.3623 356.924 112.853 483.453 30.8463 368.66Z" fill="url(#paint4_linear)"/>
<path d="M447.377 201.521C447.377 201.521 447.352 213.005 451.319 213.232C455.286 213.46 465.455 212.831 459.555 197.412C453.654 181.994 446.31 201.615 446.31 201.615L447.377 201.521Z" fill="black"/>
<path d="M452.173 122.207C445.005 116.452 435.35 115.77 427.177 119.704C415.452 125.339 399.206 138.549 417.95 164.728C444.979 202.485 442.431 196.408 442.431 196.408L461.413 190.827C461.413 190.827 463.886 158.839 463.61 149.926C463.397 143.474 462.016 130.117 452.173 122.207Z" fill="url(#paint5_linear)"/>
<path d="M442.431 196.408C442.431 196.408 439.807 203.85 444.728 205.309C449.649 206.768 473.114 199.875 461.4 190.827C461.413 190.827 451.721 189.516 442.431 196.408Z" fill="#F7F8F8"/>
<path d="M421.004 106.5C421.004 106.5 399.9 58.3577 410.258 67.3651C420.615 76.3726 421.004 106.5 421.004 106.5Z" fill="#F7F8F8"/>
<path d="M398.002 123.488C398.002 123.488 356.668 91.0137 370.051 94.0638C383.435 97.1139 398.002 123.488 398.002 123.488Z" fill="#F7F8F8"/>
<path d="M448.846 111.339C448.846 111.339 460.572 59.6905 463.384 73.6232C466.209 87.5426 448.846 111.339 448.846 111.339Z" fill="#F7F8F8"/>
<path d="M571 145.556L641.141 21.7671C641.141 21.7671 701.829 32.4877 718.15 69.963L642.823 186.404L571 145.556Z" fill="white"/>
<path d="M587.584 135.545L642.824 33.8262C642.824 33.8262 680.813 31.4573 710.78 70.7795L644.569 168.71L587.584 135.545Z" fill="#FFCFDD"/>
<path d="M605.424 117.811C609.341 114.304 614.953 113.97 619.46 116.526C628.687 121.746 649.929 134.059 652.854 138.222C656.621 143.575 649.088 156.959 641.556 154.282C635.931 152.288 616.284 139.814 606.705 133.644C601.658 130.392 600.553 122.857 604.759 118.44C604.972 118.226 605.198 118.012 605.424 117.811Z" fill="url(#paint6_linear)"/>
<path d="M651.612 53.9022C651.612 53.9022 635.027 57.2884 644.569 70.3244C654.11 83.3604 643.564 88.5534 653.871 87.9645C664.166 87.3756 681.742 94.0676 679.231 78.0068C676.72 61.946 666.677 52.5638 651.612 53.9022Z" fill="white"/>
<path d="M530.874 190.333C530.874 190.333 507.624 220.393 526.443 238.127C545.261 255.848 573.848 249.209 585.686 219.992C585.686 219.992 554.15 241.54 541.018 228.638C527.56 215.414 528.602 211.252 530.874 190.333Z" fill="#F7F8F8"/>
<path d="M509.193 279.015C509.193 279.015 507.222 253.211 509.193 253.733C511.164 254.255 513.976 271.654 513.197 279.015C513.197 279.015 531.251 279.685 531.251 282.361C531.251 285.038 513.675 283.7 513.675 283.7C513.675 283.7 516.185 298.422 513.675 299.761C511.164 301.099 509.908 283.7 509.908 283.7C509.908 283.7 497.354 286.377 496.098 285.038C494.843 283.7 505.954 278.346 509.193 279.015Z" fill="#F7F8F8"/>
<path d="M568.512 179.224C568.512 179.224 567.344 163.939 568.512 164.247C569.679 164.555 571.349 174.861 570.885 179.224C570.885 179.224 581.581 179.626 581.581 181.205C581.581 182.784 571.173 181.994 571.173 181.994C571.173 181.994 572.655 190.707 571.173 191.511C569.692 192.3 568.939 181.994 568.939 181.994C568.939 181.994 561.507 183.574 560.766 182.784C560.025 181.994 566.604 178.822 568.512 179.224Z" fill="#F7F8F8"/>
<path d="M381.288 319.544C381.288 319.544 379.317 293.739 381.288 294.261C383.259 294.783 386.071 312.182 385.293 319.544C385.293 319.544 403.346 320.213 403.346 322.89C403.346 325.566 385.77 324.228 385.77 324.228C385.77 324.228 388.281 338.95 385.77 340.289C383.259 341.627 382.004 324.228 382.004 324.228C382.004 324.228 369.449 326.905 368.194 325.566C366.939 324.228 378.062 318.874 381.288 319.544Z" fill="#F7F8F8"/>
<path d="M359.004 285.321C359.004 285.321 357.837 270.036 359.004 270.344C360.172 270.652 361.829 280.957 361.377 285.321C361.377 285.321 372.073 285.722 372.073 287.302C372.073 288.881 361.666 288.091 361.666 288.091C361.666 288.091 363.147 296.804 361.666 297.607C360.184 298.397 359.431 288.091 359.431 288.091C359.431 288.091 351.999 289.67 351.258 288.881C350.517 288.091 357.096 284.919 359.004 285.321Z" fill="#F7F8F8"/>
<path d="M551.192 89.2902C551.192 89.2902 549.221 63.4858 551.192 64.0078C553.164 64.5298 555.976 81.929 555.197 89.2902C555.197 89.2902 573.25 89.9594 573.25 92.6362C573.25 95.313 555.674 93.9746 555.674 93.9746C555.674 93.9746 558.185 108.697 555.674 110.035C553.164 111.374 551.908 93.9746 551.908 93.9746C551.908 93.9746 539.354 96.6514 538.098 95.313C536.843 93.9746 547.966 88.621 551.192 89.2902Z" fill="#F7F8F8"/>
<path d="M697.962 174.599C697.962 174.599 696.795 159.315 697.962 159.623C699.13 159.93 700.787 170.236 700.335 174.599C700.335 174.599 711.031 175.001 711.031 176.58C711.031 178.159 700.624 177.37 700.624 177.37C700.624 177.37 702.105 186.083 700.624 186.886C699.142 187.675 698.389 177.37 698.389 177.37C698.389 177.37 690.957 178.949 690.216 178.159C689.475 177.37 696.054 174.198 697.962 174.599Z" fill="#F7F8F8"/>
<path d="M215.193 45.0786C215.193 45.0786 213.221 19.2742 215.193 19.7961C217.164 20.3181 219.976 37.7174 219.197 45.0786C219.197 45.0786 237.25 45.7478 237.25 48.4246C237.25 51.1014 219.674 49.763 219.674 49.763C219.674 49.763 222.185 64.4854 219.674 65.8238C217.164 67.1622 215.908 49.763 215.908 49.763C215.908 49.763 203.354 52.4398 202.098 51.1014C200.843 49.763 211.966 44.4094 215.193 45.0786Z" fill="#F7F8F8"/>
<path d="M188.806 68.4095C188.806 68.4095 187.638 53.125 188.806 53.4328C189.973 53.7406 191.631 64.0463 191.179 68.4095C191.179 68.4095 201.875 68.8111 201.875 70.3904C201.875 71.9697 191.467 71.18 191.467 71.18C191.467 71.18 192.949 79.893 191.467 80.6961C189.986 81.4857 189.233 71.18 189.233 71.18C189.233 71.18 181.8 72.7593 181.06 71.9697C180.307 71.18 186.885 68.0214 188.806 68.4095Z" fill="#F7F8F8"/>
<path d="M503.338 441.07C488.11 445.621 472.906 446.197 465.537 442.262C457.012 437.711 452.731 428.409 474.137 409.471C512.088 375.904 628.379 403.716 503.338 441.07Z" fill="#A8E3F9"/>
<path d="M503.187 434.285C487.959 438.835 472.755 439.411 465.386 435.476C456.862 430.925 452.581 421.623 473.986 402.685C511.95 369.104 628.241 396.93 503.187 434.285Z" fill="url(#paint7_linear)"/>
<path d="M636.969 924.101C636.969 924.101 667.928 943.012 662.543 974.585C657.157 1006.16 686.773 957.373 678.688 937.284L646.385 908.588C646.398 908.575 624.867 919.537 636.969 924.101Z" fill="#FFCFDD"/>
<path d="M462.678 951.471C462.678 951.471 471.428 980.327 468.742 988.932C466.055 997.538 444.512 1000.42 452.597 1003.28C460.669 1006.14 498.357 1000.42 495.671 988.932C492.959 977.449 491.603 911.131 462.678 951.471Z" fill="#FFCFDD"/>
<path d="M557.564 578.565C549.491 555.611 549.768 543.231 538.645 518.725C533.811 505.368 527.685 494.955 519.863 487.152C519.951 487.273 520.177 487.58 520.504 488.076C524.421 493.978 543.566 527.277 538.732 607.274C538.732 607.274 548.337 627.069 537.891 651.535C537.841 651.669 537.803 651.816 537.741 651.95C527.961 676.148 530.522 696.438 538.657 694.899C538.67 694.899 538.682 694.899 538.682 694.885C539.536 694.658 540.452 694.176 541.419 693.36L549.404 681.207C551.211 677.7 553.559 673.699 557.15 669.402C568.336 656.045 574.701 627.269 557.564 578.565Z" fill="#DF6488"/>
<path d="M537.728 651.923C537.778 651.789 537.828 651.642 537.878 651.508C537.301 652.846 536.711 654.198 536.008 655.563C527.094 673.003 530.308 696.96 538.644 694.872C530.509 696.411 527.96 676.135 537.728 651.923Z" fill="#EA6E97"/>
<path d="M519.85 487.125C520.076 487.447 520.277 487.741 520.503 488.062C520.177 487.567 519.951 487.259 519.863 487.139C519.863 487.139 519.85 487.139 519.85 487.125Z" fill="#EA6E97"/>
<path d="M421.625 631.646C421.625 631.646 497.001 643.129 523.918 637.388C523.918 637.388 548.147 666.083 545.448 740.699C542.762 815.315 634.283 855.494 655.814 904.279C655.814 904.279 639.669 927.232 628.897 927.232C618.125 927.232 518.532 832.527 502.387 786.62C502.387 786.62 486.242 737.835 483.543 709.14L480.856 823.934C480.856 823.934 480.856 844.024 483.543 855.507C486.229 866.991 497.001 898.55 494.314 947.335C494.314 947.335 478.17 955.941 456.626 950.199C456.626 950.199 418.938 842.538 421.637 739.963C424.337 637.388 421.625 631.646 421.625 631.646Z" fill="url(#paint8_linear)"/>
<path d="M665.242 1000.42C665.242 1000.42 700.231 948.767 689.472 943.025C678.7 937.284 678.7 934.419 676.014 937.284C673.327 940.148 671.733 964.774 663.108 969.686C654.47 974.585 657.17 1011.89 665.242 1000.42Z" fill="black"/>
<path d="M495.796 1006.25C495.796 1006.25 479.513 1009.02 466.055 1014.76C452.596 1020.51 425.68 1023.37 439.138 1009.02C452.596 994.674 461.698 1006.01 473.299 997.471C484.899 988.932 495.67 983.191 495.67 988.932C495.658 994.674 501.307 1003.48 495.796 1006.25Z" fill="black"/>
<path d="M538.72 607.26C538.72 607.26 547.382 627.497 537.878 651.521C548.336 627.042 538.72 607.26 538.72 607.26Z" fill="#DF6488"/>
<path d="M519.812 487.072C519.825 487.099 519.838 487.112 519.85 487.139L519.863 487.153C519.838 487.099 519.812 487.072 519.812 487.072Z" fill="#DF6488"/>
<path d="M549.403 681.194L557.149 669.389C553.546 673.685 551.211 677.687 549.403 681.194Z" fill="#EA6E97"/>
<path d="M520.503 488.062C520.277 487.741 520.076 487.447 519.85 487.125C507.321 474.638 490.41 468.776 467.398 468.08C420.294 466.648 409.522 357.595 408.28 351.853C407.037 346.111 382.606 351.853 382.606 351.853C382.606 351.853 387.992 389.154 390.678 432.211C393.365 475.267 417.055 521.174 417.055 521.174C417.055 521.174 422.981 541.25 414.908 581.429C406.836 621.608 421.499 619.855 421.499 619.855C420.018 626.707 421.637 631.646 421.637 631.646C487.585 647.426 517.201 638.82 523.93 637.388C530.659 635.956 530.659 624.472 530.659 624.472C533.572 624.472 535.418 623.442 536.598 622.117C536.598 622.117 538.732 613.002 538.732 607.26C543.565 527.264 524.407 493.965 520.503 488.062Z" fill="url(#paint9_linear)"/>
<path d="M421.487 619.855C421.487 619.855 420.281 624.472 421.625 631.646C422.968 638.82 506.417 647.426 523.918 637.388C523.918 637.388 533.333 633.078 530.647 624.472C530.647 624.472 500.767 635.313 421.487 619.855Z" fill="#DF6488"/>
<path d="M404.601 349.551C404.601 349.551 404.124 331.764 401.438 308.81C398.751 285.856 406.823 274.373 406.823 260.025C406.823 245.678 406.823 237.701 406.823 237.701C406.823 237.701 403.032 241.877 400.885 256.693C398.738 271.509 374.521 254.283 377.208 274.373C379.894 294.462 387.979 300.204 385.28 317.416C382.594 334.628 385.28 354.717 385.28 354.717C385.28 354.717 405.078 364.461 404.601 349.551Z" fill="#FFCFDD"/>
<path d="M457.254 465.965C457.254 465.965 454.191 532.658 417.043 521.175C417.043 521.175 394.483 478.252 389.888 420.794C385.293 363.337 382.594 351.853 382.594 351.853C382.594 351.853 393.579 366.201 408.267 351.853C408.28 351.853 417.595 446.559 457.254 465.965Z" fill="url(#paint10_linear)"/>
<path d="M494.314 947.322C494.314 947.322 476.814 957.36 456.626 950.186C456.626 950.186 414.908 829.609 421.637 739.95C421.625 739.963 441.825 948.754 494.314 947.322Z" fill="#FDE595"/>
<path d="M519.813 817.59C519.813 817.59 595.264 917.194 628.91 927.232C662.543 937.27 498.194 778.255 519.813 817.59Z" fill="#FDE595"/>
<path d="M542.762 706.931C542.762 706.931 540.289 715.872 539.51 733.311C538.732 750.75 542.059 791.117 565.962 802.506C565.962 802.506 544.105 767.976 545.461 740.712C546.804 713.436 544.093 694.671 542.762 706.931Z" fill="#EDC964"/>
<path d="M483.543 709.14C483.543 709.14 469.796 785.803 481.383 838.59C481.371 838.577 482.2 713.436 483.543 709.14Z" fill="#EDC964"/>
<path d="M406.823 248.636C406.823 248.636 403.522 249.666 405.179 240.498C406.836 231.33 406.823 237.246 406.823 248.636Z" fill="#DF6488"/>
<path d="M464.958 373.261C464.958 373.261 438.428 428.657 459.976 445.484C481.541 462.31 488.177 398.193 464.958 373.261Z" fill="#FFCFDD"/>
<path d="M524.157 357.924C524.157 357.924 554.897 361.559 552.395 415.41C550.742 450.97 534.183 447.434 534.183 475.659C534.183 503.884 530.877 491.926 530.877 510.923C530.877 525.036 526.181 522.98 520.944 528.556C517.639 532.076 524.25 542.668 524.25 542.668C524.25 542.668 513.576 534.033 517.623 525.036C520.404 518.851 525.594 513.144 524.25 507.404C524.25 507.404 517.531 494.623 520.944 486.251C520.944 486.251 524.25 493.308 527.571 510.94C529.209 519.624 514.318 521.286 514.318 528.572C514.318 546.205 499.72 553.261 494.453 553.261C491.889 553.261 501.435 538.951 497.759 532.109C495.009 526.993 497.758 517.996 487.826 514.476C474.866 509.871 477.585 444.556 479.006 423.584C481.199 391.034 464.64 373.401 464.64 373.401C464.64 373.401 457.241 370.72 480.813 357.957C504.37 345.16 524.157 357.924 524.157 357.924Z" fill="black"/>
<path d="M478.038 402.261C478.038 402.261 472.675 441.239 468.857 455.111C465.039 468.982 461.797 472.487 458.54 472.487C458.54 472.487 466.327 478.056 470.554 466.493C474.781 454.931 485.234 480.365 474.781 521.652C470.963 536.736 481.28 553.261 481.28 553.261C481.28 553.261 481.189 538.21 484.522 532.199C494.264 514.643 491.022 500.591 491.022 500.591L478.038 402.261Z" fill="black"/>
<path d="M534.213 470.261C534.213 470.261 533.528 482.806 540.061 496.84C546.595 510.874 540.061 519.837 540.061 524.123C540.061 528.408 546.595 535.425 547.54 535.065C547.54 535.065 528.151 541.117 527.573 525.987C526.994 510.858 534.213 470.261 534.213 470.261Z" fill="black"/>
<path d="M481.056 528.648C481.056 528.648 477.644 535.762 481.056 539.311C484.468 542.86 484.468 557.884 481.056 559.261C481.056 559.261 491.308 553.523 491.308 546.409C491.308 539.294 500.54 530.29 500.54 530.29C500.54 530.29 484.484 493.094 481.056 528.648Z" fill="black"/>
<path d="M475.194 464.261C475.194 464.261 475.592 469.859 465.171 478.005C454.75 486.167 465.171 496.261 465.171 496.261C465.171 496.261 461.3 486.768 467.864 482.987C474.429 479.206 479.54 471.238 479.54 471.238L475.194 464.261Z" fill="black"/>
<path d="M477.557 481.261C477.557 481.261 477.934 490.621 467.917 497.362C457.9 504.103 461.275 513.897 461.275 514.831C461.275 518.402 457.915 521.989 454.54 521.989C454.54 521.989 466.127 524.959 468.011 511.261C468.011 511.261 471.371 496.945 482.817 504.587C493.588 511.761 477.557 481.261 477.557 481.261Z" fill="black"/>
<path d="M467.54 460.959C467.54 460.959 471.83 464.805 473.399 470.314C474.967 475.822 465.956 485.617 472.052 496.455C478.148 507.277 474.967 521.261 474.967 521.261C474.967 521.261 507.697 439.103 467.54 460.959Z" fill="black"/>
<path d="M78.1352 241.476C78.1352 241.476 88.0214 285.647 141.69 289.662C174.343 292.112 160.29 411.789 225.017 420.837C311.169 432.884 350.856 457.861 298.458 456.977C219.368 455.639 139.374 455.665 125.702 394.749C112.031 333.834 42.7846 295.15 37.1777 293.678C11.7558 286.985 -6.29379 171.391 78.1352 241.476Z" fill="#A8E3F9"/>
<path d="M75.0611 234.675C75.0611 234.675 103.337 258.781 151.405 273.513C198.385 287.909 171.848 405.612 235.468 420.344C299.088 435.075 344.3 451.547 303.315 447.329C262.33 443.11 149.737 455.19 136.051 394.243C122.366 333.295 53.0487 294.592 47.436 293.119C21.9881 286.423 -9.45422 164.554 75.0611 234.675Z" fill="url(#paint11_linear)"/>
<path d="M628.323 201.157C628.323 201.157 695.853 193.782 708.194 280.203C719.355 358.352 580.968 428.163 555.219 353.855C518.611 248.175 634.086 275.732 615.493 233.787C601.708 202.723 628.323 201.157 628.323 201.157Z" fill="#FDE595"/>
<path d="M618.38 364.348C618.38 364.348 607.395 379.191 593.799 365.164C580.203 351.138 607.722 282.036 618.38 364.348Z" fill="#DF6488"/>
<path d="M623.929 227.282C625.712 212.64 675.804 199.631 635.128 242.312C635.128 242.312 622.147 241.924 623.929 227.282Z" fill="#22BBEE"/>
<path d="M662.885 330.245C673.23 340.23 665.522 358.713 651.649 357.08C651.448 357.054 651.248 357.027 651.047 357C631.901 354.363 614.79 283.83 662.885 330.245Z" fill="#FFCFDD"/>
<path d="M687.617 287.122C700.46 291.271 700.862 310.718 688.17 315.376C687.994 315.443 687.806 315.51 687.617 315.577C669.953 321.64 627.934 267.809 687.617 287.122Z" fill="white"/>
<path d="M664.994 239.77C672.966 229.384 688.923 235.955 688.169 249.352C688.157 249.54 688.144 249.741 688.132 249.928C686.751 268.438 627.959 288.032 664.994 239.77Z" fill="#EDC964"/>
<path d="M280.557 109.394C280.557 109.394 317.379 69.1349 237.32 169.461C211.37 201.985 195.589 225.514 186.11 242.485C183.763 243.542 181.892 243.917 180.599 243.475C188.559 226.611 197.397 208.744 203.523 193.098C220.848 148.823 273.526 103.639 273.526 103.639C273.526 103.639 279.477 96.358 288.077 86.7349C289.395 88.6889 290.814 91.4996 291.718 95.2739C285.114 103.157 280.557 109.394 280.557 109.394Z" fill="url(#paint12_linear)"/>
<path d="M257.846 259.014C300.487 259.014 335.055 222.162 335.055 176.702C335.055 131.243 300.487 94.3904 257.846 94.3904C215.204 94.3904 180.637 131.243 180.637 176.702C180.637 222.162 215.204 259.014 257.846 259.014Z" fill="url(#paint13_linear)"/>
<path d="M180.599 243.475C181.892 243.903 183.763 243.542 186.11 242.485C166.325 277.872 173.933 284.684 173.933 284.684C236.353 270.19 348.325 63.4465 331.603 62.9112C320.969 62.5766 303.205 81.4748 291.692 95.2737C290.788 91.4994 289.37 88.6888 288.052 86.7347C307.561 64.9321 340.755 31.1375 349.392 43.0359C361.846 60.1942 301.711 157.724 283.494 184.572C265.278 211.42 189.123 312.55 168.057 306.059C154.448 301.856 166.023 274.352 180.599 243.475Z" fill="url(#paint14_linear)"/>
<defs>
<linearGradient id="paint0_linear" x1="623.89" y1="423.91" x2="638.614" y2="597.955" gradientUnits="userSpaceOnUse">
<stop stop-color="#A8E3F9"/>
<stop offset="0.1075" stop-color="#80D7F6"/>
<stop offset="0.303" stop-color="#3DC3F0"/>
<stop offset="0.3947" stop-color="#22BBEE"/>
</linearGradient>
<linearGradient id="paint1_linear" x1="720.201" y1="869.833" x2="50" y2="869.833" gradientUnits="userSpaceOnUse">
<stop stop-color="#FFCFDD"/>
<stop offset="0.2587" stop-color="#FD86AA"/>
</linearGradient>
<linearGradient id="paint2_linear" x1="719" y1="944.501" x2="-0.000128567" y2="944.501" gradientUnits="userSpaceOnUse">
<stop stop-color="#FD86AA"/>
<stop offset="0.6571" stop-color="#DF6488"/>
</linearGradient>
<linearGradient id="paint3_linear" x1="689.755" y1="-0.129703" x2="100.646" y2="333.186" gradientUnits="userSpaceOnUse">
<stop stop-color="#A8E3F9"/>
<stop offset="0.1075" stop-color="#80D7F6"/>
<stop offset="0.303" stop-color="#3DC3F0"/>
<stop offset="0.3947" stop-color="#22BBEE"/>
</linearGradient>
<linearGradient id="paint4_linear" x1="74.956" y1="353.235" x2="17.3576" y2="397.368" gradientUnits="userSpaceOnUse">
<stop stop-color="#A8E3F9"/>
<stop offset="0.1075" stop-color="#80D7F6"/>
<stop offset="0.303" stop-color="#3DC3F0"/>
<stop offset="0.3947" stop-color="#22BBEE"/>
</linearGradient>
<linearGradient id="paint5_linear" x1="436.923" y1="146.882" x2="465.348" y2="176.921" gradientUnits="userSpaceOnUse">
<stop stop-color="#FEF0C3"/>
<stop offset="0.6571" stop-color="#FDDA68"/>
</linearGradient>
<linearGradient id="paint6_linear" x1="602.185" y1="134.743" x2="653.87" y2="134.743" gradientUnits="userSpaceOnUse">
<stop stop-color="#EA6E97"/>
</linearGradient>
<linearGradient id="paint7_linear" x1="501.823" y1="389.862" x2="524.024" y2="455.762" gradientUnits="userSpaceOnUse">
<stop stop-color="#A8E3F9"/>
<stop offset="0.1075" stop-color="#80D7F6"/>
<stop offset="0.303" stop-color="#3DC3F0"/>
<stop offset="0.3947" stop-color="#22BBEE"/>
</linearGradient>
<linearGradient id="paint8_linear" x1="421.492" y1="791.907" x2="655.819" y2="791.907" gradientUnits="userSpaceOnUse">
<stop stop-color="#FDE595"/>
<stop offset="0.7325" stop-color="#FDDA68"/>
</linearGradient>
<linearGradient id="paint9_linear" x1="382.598" y1="495.162" x2="539.503" y2="495.162" gradientUnits="userSpaceOnUse">
<stop stop-color="#FD8EAA"/>
<stop offset="0.4941" stop-color="#F07B9B"/>
<stop offset="1" stop-color="#DF6488"/>
</linearGradient>
<linearGradient id="paint10_linear" x1="383.549" y1="441.185" x2="457.348" y2="429.031" gradientUnits="userSpaceOnUse">
<stop stop-color="#E2698C"/>
<stop offset="0.6031" stop-color="#FD8EAA"/>
</linearGradient>
<linearGradient id="paint11_linear" x1="201.369" y1="302.46" x2="7.7075" y2="518.795" gradientUnits="userSpaceOnUse">
<stop stop-color="#A8E3F9"/>
<stop offset="0.1075" stop-color="#80D7F6"/>
<stop offset="0.303" stop-color="#3DC3F0"/>
<stop offset="0.3947" stop-color="#22BBEE"/>
</linearGradient>
<linearGradient id="paint12_linear" x1="180.597" y1="165.192" x2="291.699" y2="165.192" gradientUnits="userSpaceOnUse">
<stop stop-color="#FFCFDD"/>
<stop offset="0.5806" stop-color="#EA6E97"/>
</linearGradient>
<linearGradient id="paint13_linear" x1="180.623" y1="176.702" x2="335.059" y2="176.702" gradientUnits="userSpaceOnUse">
<stop stop-color="#FDE595"/>
<stop offset="0.7325" stop-color="#FDDA68"/>
</linearGradient>
<linearGradient id="paint14_linear" x1="162.007" y1="173.465" x2="351.087" y2="173.465" gradientUnits="userSpaceOnUse">
<stop stop-color="#FFCFDD"/>
<stop offset="0.5806" stop-color="#EA6E97"/>
</linearGradient>
</defs>
</svg>
