<svg width="861" height="1027" viewBox="0 0 861 1027" fill="none" xmlns="http://www.w3.org/2000/svg">
<rect width="720" height="1024" transform="translate(6)" fill="url(#paint0_linear)"/>
<path d="M6 0H726V1024H6V0Z" fill="url(#paint1_linear)"/>
<path d="M47.3203 68.2097H62.25V73.8582H40.2891V39.7332H47.3203V68.2097ZM92.8359 57.5691C92.8359 60.9285 92.2422 63.8738 91.0547 66.405C89.8672 68.9363 88.1641 70.8894 85.9453 72.2644C83.7422 73.6394 81.2109 74.3269 78.3516 74.3269C75.5234 74.3269 73 73.6472 70.7812 72.2878C68.5625 70.9285 66.8438 68.991 65.625 66.4753C64.4062 63.9441 63.7891 61.0378 63.7734 57.7566V56.0691C63.7734 52.7097 64.375 49.7566 65.5781 47.2097C66.7969 44.6472 68.5078 42.6863 70.7109 41.3269C72.9297 39.9519 75.4609 39.2644 78.3047 39.2644C81.1484 39.2644 83.6719 39.9519 85.875 41.3269C88.0938 42.6863 89.8047 44.6472 91.0078 47.2097C92.2266 49.7566 92.8359 52.7019 92.8359 56.0457V57.5691ZM85.7109 56.0222C85.7109 52.4441 85.0703 49.7253 83.7891 47.866C82.5078 46.0066 80.6797 45.0769 78.3047 45.0769C75.9453 45.0769 74.125 45.9988 72.8438 47.8425C71.5625 49.6707 70.9141 52.3582 70.8984 55.905V57.5691C70.8984 61.0535 71.5391 63.7566 72.8203 65.6785C74.1016 67.6003 75.9453 68.5613 78.3516 68.5613C80.7109 68.5613 82.5234 67.6394 83.7891 65.7957C85.0547 63.9363 85.6953 61.2332 85.7109 57.6863V56.0222ZM124.945 69.5457C123.68 71.0613 121.891 72.241 119.578 73.0847C117.266 73.9128 114.703 74.3269 111.891 74.3269C108.938 74.3269 106.344 73.6863 104.109 72.405C101.891 71.1082 100.172 69.2332 98.9531 66.78C97.75 64.3269 97.1328 61.4441 97.1016 58.1316V55.8113C97.1016 52.405 97.6719 49.4597 98.8125 46.9753C99.9688 44.4753 101.625 42.5691 103.781 41.2566C105.953 39.9285 108.492 39.2644 111.398 39.2644C115.445 39.2644 118.609 40.2332 120.891 42.1707C123.172 44.0925 124.523 46.8972 124.945 50.5847H118.102C117.789 48.6316 117.094 47.2019 116.016 46.2957C114.953 45.3894 113.484 44.9363 111.609 44.9363C109.219 44.9363 107.398 45.8347 106.148 47.6316C104.898 49.4285 104.266 52.1003 104.25 55.6472V57.8269C104.25 61.405 104.93 64.1082 106.289 65.9363C107.648 67.7644 109.641 68.6785 112.266 68.6785C114.906 68.6785 116.789 68.116 117.914 66.991V61.1082H111.516V55.9285H124.945V69.5457ZM158.695 57.5691C158.695 60.9285 158.102 63.8738 156.914 66.405C155.727 68.9363 154.023 70.8894 151.805 72.2644C149.602 73.6394 147.07 74.3269 144.211 74.3269C141.383 74.3269 138.859 73.6472 136.641 72.2878C134.422 70.9285 132.703 68.991 131.484 66.4753C130.266 63.9441 129.648 61.0378 129.633 57.7566V56.0691C129.633 52.7097 130.234 49.7566 131.438 47.2097C132.656 44.6472 134.367 42.6863 136.57 41.3269C138.789 39.9519 141.32 39.2644 144.164 39.2644C147.008 39.2644 149.531 39.9519 151.734 41.3269C153.953 42.6863 155.664 44.6472 156.867 47.2097C158.086 49.7566 158.695 52.7019 158.695 56.0457V57.5691ZM151.57 56.0222C151.57 52.4441 150.93 49.7253 149.648 47.866C148.367 46.0066 146.539 45.0769 144.164 45.0769C141.805 45.0769 139.984 45.9988 138.703 47.8425C137.422 49.6707 136.773 52.3582 136.758 55.905V57.5691C136.758 61.0535 137.398 63.7566 138.68 65.6785C139.961 67.6003 141.805 68.5613 144.211 68.5613C146.57 68.5613 148.383 67.6394 149.648 65.7957C150.914 63.9363 151.555 61.2332 151.57 57.6863V56.0222Z" fill="white"/>
<path d="M43.5352 85.5144H44.1367C44.4232 85.5144 44.6354 85.4428 44.7734 85.2996C44.9115 85.1563 44.9805 84.9662 44.9805 84.7292C44.9805 84.5001 44.9115 84.3217 44.7734 84.1941C44.638 84.0665 44.4505 84.0027 44.2109 84.0027C43.9948 84.0027 43.8138 84.0626 43.668 84.1824C43.5221 84.2996 43.4492 84.4532 43.4492 84.6433H42.3203C42.3203 84.3464 42.3997 84.0808 42.5586 83.8464C42.7201 83.6095 42.944 83.4246 43.2305 83.2917C43.5195 83.1589 43.8372 83.0925 44.1836 83.0925C44.7852 83.0925 45.2565 83.2371 45.5977 83.5261C45.9388 83.8126 46.1094 84.2084 46.1094 84.7136C46.1094 84.974 46.0299 85.2136 45.8711 85.4324C45.7122 85.6511 45.5039 85.8191 45.2461 85.9363C45.5664 86.0509 45.8047 86.2227 45.9609 86.4519C46.1198 86.6811 46.1992 86.9519 46.1992 87.2644C46.1992 87.7696 46.0143 88.1746 45.6445 88.4792C45.2773 88.7839 44.7904 88.9363 44.1836 88.9363C43.6159 88.9363 43.151 88.7865 42.7891 88.4871C42.4297 88.1876 42.25 87.7917 42.25 87.2996H43.3789C43.3789 87.5131 43.4583 87.6876 43.6172 87.823C43.7786 87.9584 43.9766 88.0261 44.2109 88.0261C44.4792 88.0261 44.6888 87.9558 44.8398 87.8152C44.9935 87.672 45.0703 87.4832 45.0703 87.2488C45.0703 86.6811 44.7578 86.3972 44.1328 86.3972H43.5352V85.5144ZM50.8789 88.8582H46.9805V88.0847L48.8203 86.1238C49.0729 85.8477 49.2591 85.6069 49.3789 85.4011C49.5013 85.1954 49.5625 85.0001 49.5625 84.8152C49.5625 84.5626 49.4987 84.3647 49.3711 84.2214C49.2435 84.0756 49.0612 84.0027 48.8242 84.0027C48.569 84.0027 48.3672 84.0912 48.2188 84.2683C48.0729 84.4428 48 84.6733 48 84.9597H46.8672C46.8672 84.6134 46.9492 84.297 47.1133 84.0105C47.2799 83.724 47.5143 83.5001 47.8164 83.3386C48.1185 83.1746 48.4609 83.0925 48.8438 83.0925C49.4297 83.0925 49.8841 83.2332 50.207 83.5144C50.5326 83.7957 50.6953 84.1928 50.6953 84.7058C50.6953 84.9871 50.6224 85.2735 50.4766 85.5652C50.3307 85.8569 50.0807 86.1967 49.7266 86.5847L48.4336 87.948H50.8789V88.8582ZM57.418 86.7839C57.418 87.435 57.2695 87.9571 56.9727 88.3503C56.6784 88.741 56.2799 88.9363 55.7773 88.9363C55.3503 88.9363 55.0052 88.7878 54.7422 88.491V90.4832H53.6133V84.6316H54.6602L54.6992 85.0457C54.9727 84.7175 55.3294 84.5535 55.7695 84.5535C56.2904 84.5535 56.6953 84.7462 56.9844 85.1316C57.2734 85.517 57.418 86.0483 57.418 86.7253V86.7839ZM56.2891 86.7019C56.2891 86.3087 56.2188 86.0053 56.0781 85.7917C55.9401 85.5782 55.7383 85.4714 55.4727 85.4714C55.1185 85.4714 54.875 85.6069 54.7422 85.8777V87.6082C54.8802 87.8868 55.1263 88.0261 55.4805 88.0261C56.0195 88.0261 56.2891 87.5847 56.2891 86.7019ZM59.668 85.8933L60.3789 84.6316H61.5859L60.3828 86.7019L61.6367 88.8582H60.4258L59.6719 87.53L58.9219 88.8582H57.707L58.9609 86.7019L57.7617 84.6316H58.9727L59.668 85.8933Z" fill="#FA36A0"/>
<path d="M2.55273 700.5C2.55273 700.5 275.444 653.588 486.912 792.438C698.38 931.288 717 1027 717 1027L5.00009 1027L2.55273 700.5Z" fill="url(#paint2_linear)"/>
<path d="M6 979.465C6 979.465 191.402 849.858 415.962 849.858C552.059 849.858 675.908 889.506 861 1026.86H6V979.465Z" fill="url(#paint3_linear)"/>
<path d="M5.644 700.052C5.644 700.052 43.0652 768.331 99.9693 740.496C156.873 712.661 193.455 669.517 243.584 700.136C293.714 730.754 316.747 765.547 369.586 768.331C437.627 771.922 488.814 682.043 525.395 750.238C564.333 822.818 604.857 779.159 578.681 713.9C552.492 648.641 334.36 573.487 334.36 573.487L5.64404 503.858V530.5L5.644 700.052Z" fill="#A8E3F9"/>
<path d="M590.472 732.612C590.472 732.612 600.854 629.205 544.223 604.941C487.591 580.677 492.702 552.368 482.198 484.967C471.694 417.566 528.393 359.831 432.308 270.632C337.922 183.011 416.114 143.932 336.574 49.5566C287.938 -8.14969 196.766 0.952029 136.5 0.358039C54.7605 -0.44759 7.5 0.358039 7.5 0.358039V630.358C7.5 630.358 93.8668 726.263 145.105 668.298C196.343 610.333 221.76 613.245 287.938 659.644C354.116 706.043 367.586 728.959 449.837 703.347C532.087 677.734 561.522 751.808 561.522 751.808C561.522 751.808 578.728 821.191 590.472 732.612Z" fill="url(#paint4_linear)"/>
<path d="M514.559 389.244C514.559 389.244 493.578 379.148 498.001 405.084C502.423 431.02 536.133 398.681 514.559 389.244Z" fill="#A8E3F9"/>
<path d="M258.611 802.264C262.171 807.535 262.238 814.518 258.57 819.708C254.323 825.72 246.031 831.759 230.012 829.737C201.588 826.165 229.405 758.939 258.611 802.264Z" fill="#A8E3F9"/>
<path d="M495.682 730.725C495.682 730.725 476.804 732.99 488.94 749.166C501.075 765.342 514.559 731.156 495.682 730.725Z" fill="#A8E3F9"/>
<path d="M248.66 772.77C248.66 772.77 201.683 787.989 199.377 816.998C197.071 846.008 128.52 891.032 119.082 811.202C109.643 731.358 238.305 705.369 258.355 725.71C278.405 746.052 277.61 764.439 248.66 772.77Z" fill="#A8E3F9"/>
<path d="M237.846 764.008C237.846 764.008 190.869 779.227 188.563 808.236C186.257 837.246 117.706 882.269 108.268 802.44C98.829 722.596 227.491 696.607 247.541 716.948C267.591 737.29 266.782 755.677 237.846 764.008Z" fill="url(#paint5_linear)"/>
<path d="M515.799 443.098C515.799 443.098 479.393 487.582 510.406 546.895C541.418 606.208 583.555 582.685 561.806 553.325C540.056 523.966 524.038 484.886 528.676 456.578C533.315 428.27 515.799 443.098 515.799 443.098Z" fill="#A8E3F9"/>
<path d="M518.604 428.337C518.604 428.337 482.198 472.822 513.21 532.135C544.223 591.447 586.36 567.925 564.61 538.565C542.875 509.218 526.842 470.126 531.481 441.817C536.119 413.509 518.604 428.337 518.604 428.337Z" fill="url(#paint6_linear)"/>
<path d="M518.523 389.46C518.523 389.46 497.542 379.363 501.965 405.299C506.388 431.235 540.097 398.896 518.523 389.46Z" fill="url(#paint7_linear)"/>
<path d="M252.638 805.257C256.198 810.528 256.265 817.511 252.597 822.7C248.35 828.713 240.058 834.752 224.039 832.73C195.615 829.157 223.419 761.932 252.638 805.257Z" fill="url(#paint8_linear)"/>
<path d="M495.857 725.926C495.857 725.926 476.98 728.191 489.115 744.367C501.25 760.543 514.734 726.357 495.857 725.926Z" fill="#22BBEE"/>
<path d="M414.779 89.9838C414.779 89.9838 371.119 172.55 416.128 222.09C517.566 333.746 468.714 228.83 468.566 220.661C467.932 184.143 430.798 152.222 435.436 123.913C440.088 95.605 414.779 89.9838 414.779 89.9838Z" fill="#A8E3F9"/>
<path d="M414.78 89.9837C414.78 89.9837 388.958 140.157 419.971 199.47C450.983 258.783 519.952 288.143 471.371 205.9C445.967 162.898 437.837 134.468 438.241 109.153C439.05 58.9793 414.78 89.9837 414.78 89.9837Z" fill="#22BBEE"/>
<path d="M321.742 565.835C321.742 565.835 277.245 530.787 375.676 619.756C407.579 648.59 427.481 669.889 439.805 685.499C442.448 686.227 444.484 686.335 445.805 685.728C435.113 669.997 423.355 653.389 414.779 638.628C390.508 596.84 328.483 559.095 328.483 559.095C328.483 559.095 321.189 552.651 310.766 544.253C309.62 546.383 308.487 549.389 308.015 553.285C316.078 560.254 321.742 565.835 321.742 565.835Z" fill="url(#paint9_linear)"/>
<path d="M354.777 712.769C400.575 712.769 437.702 675.652 437.702 629.866C437.702 584.08 400.575 546.963 354.777 546.963C308.979 546.963 271.852 584.08 271.852 629.866C271.852 675.652 308.979 712.769 354.777 712.769Z" fill="url(#paint10_linear)"/>
<path d="M445.805 685.728C444.484 686.348 442.448 686.24 439.805 685.499C465.519 718.067 458.318 725.926 458.318 725.926C389.942 720.21 243.536 529.439 261.267 526.567C272.553 524.734 293.938 541.126 308.015 553.299C308.474 549.403 309.62 546.397 310.766 544.267C287.129 525.233 247.352 496.129 239.707 509.232C228.704 528.104 305.561 617.073 328.484 641.338C351.406 665.602 445.792 755.92 467.366 746.483C481.322 740.377 465.37 714.522 445.805 685.728Z" fill="url(#paint11_linear)"/>
<path d="M111.396 398.68C111.396 398.68 163.645 357.256 181.336 358.428C199.04 359.588 237.024 377.705 246.341 387.519C255.658 397.332 185.974 404.949 185.974 404.949C185.974 404.949 188.617 381.763 168.203 384.836C147.802 387.896 111.396 398.68 111.396 398.68Z" fill="url(#paint12_linear)"/>
<path d="M170.495 439.215C170.495 439.215 173.421 459.341 190.95 460.689C208.478 462.037 234.516 452.844 261.267 455.419C288.019 457.993 418.824 437.773 449.837 381.156C449.837 381.156 389.794 339.421 293.062 369.051C196.33 398.68 174.769 405.421 174.769 405.421C174.769 405.421 163.524 423.268 170.495 424.455C177.466 425.641 215.22 405.421 248.93 417.553C248.93 417.553 235.446 436.425 188.253 436.425C188.253 436.425 168.917 432.583 170.495 439.215Z" fill="url(#paint13_linear)"/>
<path d="M118.488 470.867C118.488 470.867 177.924 501.09 195.035 496.439C212.146 491.788 245.788 466.499 252.975 455.028C260.162 443.556 190.356 449.919 190.356 449.919C190.356 449.919 197.543 472.121 176.927 473.159C156.31 474.224 118.488 470.867 118.488 470.867Z" fill="url(#paint14_linear)"/>
<path d="M61.5059 433.729C61.5059 433.729 154.651 404.464 158.643 404.935C162.634 405.421 162.256 417.068 155.029 419.332C147.802 421.597 61.5059 433.729 61.5059 433.729Z" fill="#F7F8F8"/>
<path d="M15.6616 456.645L102.402 439.216C102.402 439.216 112.771 442.383 106.016 448.166C99.2606 453.949 15.6616 456.645 15.6616 456.645Z" fill="#F7F8F8"/>
<path d="M72.293 466.082L155.892 449.905C155.892 449.905 164.967 449.905 163.807 456.645C162.647 463.385 72.293 466.082 72.293 466.082Z" fill="#F7F8F8"/>
<path d="M25.1001 154.689L89.8219 30.6708L273.2 127.728L207.13 254.442L25.1001 154.689Z" fill="#F7F8F8"/>
<path d="M30.8442 153.475L92.303 37.9905L266.459 128.362L203.705 246.354L30.8442 153.475Z" fill="url(#paint15_linear)"/>
<path d="M25.1001 154.689L4.87451 172.213L208.479 277.359L207.13 254.442L25.1001 154.689Z" fill="#EDEFEF"/>
<path d="M0.829102 181.649L4.87422 172.213L208.478 277.359L201.736 288.143L0.829102 181.649Z" fill="#C6C6C6"/>
<path d="M81.6374 180.759L142.705 64.1421L92.303 37.9905L30.8442 153.475L81.6374 180.759Z" fill="#FD86AA"/>
<path d="M92.5189 60.3273C87.1254 68.4154 76.3384 76.5035 84.4286 91.3318C92.5189 106.16 136.368 87.2877 119.837 75.8295C103.306 64.3714 101.769 46.4562 92.5189 60.3273Z" fill="#F7F8F8"/>
<path d="M90.8334 538.403C90.8334 538.403 65.8616 568.679 86.0736 586.541C106.286 604.402 136.988 597.702 149.703 568.275C149.703 568.275 115.832 589.978 101.728 576.983C87.2737 563.665 88.4063 559.486 90.8334 538.403Z" fill="#F7F8F8"/>
<path d="M295.354 216.024C295.354 216.024 293.237 190.034 295.354 190.56C297.471 191.085 300.492 208.61 299.656 216.024C299.656 216.024 319.045 216.698 319.045 219.394C319.045 222.09 300.168 220.742 300.168 220.742C300.168 220.742 302.865 235.57 300.168 236.918C297.471 238.266 296.123 220.742 296.123 220.742C296.123 220.742 282.639 223.438 281.291 222.09C279.942 220.742 291.875 215.35 295.354 216.024Z" fill="#F7F8F8"/>
<path d="M54.6023 271.32C54.6023 271.32 52.4854 245.33 54.6023 245.855C56.7193 246.381 59.7396 263.905 58.9036 271.32C58.9036 271.32 78.2932 271.994 78.2932 274.69C78.2932 277.386 59.416 276.038 59.416 276.038C59.416 276.038 62.1127 290.866 59.416 292.214C56.7193 293.562 55.3709 276.038 55.3709 276.038C55.3709 276.038 41.8872 278.734 40.5388 277.386C39.1904 276.038 51.1235 270.645 54.6023 271.32Z" fill="#F7F8F8"/>
<path d="M278.041 259.659C278.041 259.659 276.787 244.265 278.041 244.575C279.295 244.885 281.075 255.265 280.589 259.659C280.589 259.659 292.077 260.064 292.077 261.654C292.077 263.245 280.899 262.45 280.899 262.45C280.899 262.45 282.49 271.225 280.899 272.034C279.308 272.829 278.499 262.45 278.499 262.45C278.499 262.45 270.517 264.04 269.721 263.245C268.926 262.45 275.991 259.255 278.041 259.659Z" fill="#F7F8F8"/>
<path d="M84.6038 301.569C84.6038 301.569 83.3498 286.175 84.6038 286.485C85.8578 286.795 87.6376 297.175 87.1522 301.569C87.1522 301.569 98.6403 301.974 98.6403 303.564C98.6403 305.155 87.4623 304.36 87.4623 304.36C87.4623 304.36 89.0534 313.135 87.4623 313.944C85.8713 314.739 85.0622 304.36 85.0622 304.36C85.0622 304.36 77.0799 305.95 76.2843 305.155C75.4888 304.36 82.5543 301.165 84.6038 301.569Z" fill="#F7F8F8"/>
<path d="M366.198 288.143C366.198 288.143 344.152 284.759 402.725 201.195C461.298 117.632 399.206 247.028 366.198 288.143Z" fill="url(#paint16_linear)"/>
<path d="M377.362 277.035C377.362 277.035 378.629 271.832 369.353 269.796C360.076 267.761 357.716 272.762 356.894 282.751C356.894 282.751 357.891 290.744 352.781 295.139C347.671 299.534 376.121 294.667 377.362 277.035Z" fill="#FDDA68"/>
<path d="M360.696 286.579C360.561 287.428 360.952 288.264 361.168 289.086C361.627 290.825 361.896 294.519 356.799 296.231C350.017 298.509 351.797 294.492 352.754 293.535C355.451 290.839 356.799 288.143 355.451 284.099C354.103 280.055 358.458 274.541 358.148 276.011C357.905 277.17 362.193 277.359 360.696 286.579Z" fill="#F7F8F8"/>
<path d="M389.807 491.586C389.807 491.586 387.69 465.596 389.807 466.122C391.924 466.648 394.945 484.172 394.109 491.586C394.109 491.586 413.498 492.26 413.498 494.956C413.498 497.652 394.621 496.304 394.621 496.304C394.621 496.304 397.318 511.132 394.621 512.481C391.924 513.829 390.576 496.304 390.576 496.304C390.576 496.304 377.092 499 375.744 497.652C374.395 496.304 386.342 490.912 389.807 491.586Z" fill="#F7F8F8"/>
<path d="M67.5465 627.736C67.5465 627.736 65.4296 601.746 67.5465 602.272C69.6635 602.798 72.6838 620.322 71.8478 627.736C71.8478 627.736 91.2374 628.41 91.2374 631.106C91.2374 633.802 72.3602 632.454 72.3602 632.454C72.3602 632.454 75.057 647.282 72.3602 648.63C69.6635 649.978 68.3151 632.454 68.3151 632.454C68.3151 632.454 54.8314 635.15 53.483 633.802C52.1347 632.454 64.0812 627.062 67.5465 627.736Z" fill="#F7F8F8"/>
<path d="M402.28 458.465C402.28 458.465 401.026 443.071 402.28 443.381C403.534 443.691 405.314 454.071 404.828 458.465C404.828 458.465 416.317 458.87 416.317 460.46C416.317 462.051 405.139 461.256 405.139 461.256C405.139 461.256 406.73 470.031 405.139 470.84C403.548 471.635 402.739 461.256 402.739 461.256C402.739 461.256 394.756 462.846 393.961 462.051C393.165 461.269 400.231 458.074 402.28 458.465Z" fill="#F7F8F8"/>
<path d="M131.257 527.214C131.257 527.214 130.003 511.82 131.257 512.13C132.511 512.44 134.291 522.82 133.806 527.214C133.806 527.214 145.294 527.619 145.294 529.209C145.294 530.8 134.116 530.005 134.116 530.005C134.116 530.005 135.707 538.78 134.116 539.589C132.525 540.385 131.716 530.005 131.716 530.005C131.716 530.005 123.733 531.595 122.938 530.8C122.142 530.018 129.208 526.823 131.257 527.214Z" fill="#F7F8F8"/>
<path d="M581.654 969.527C581.654 969.527 545.868 1000.32 529.243 989.235C512.617 978.154 562.493 936.608 562.493 936.608C562.493 936.608 573.132 929.625 581.667 930.353C590.189 931.068 611.898 949.819 581.654 969.527Z" fill="black"/>
<path d="M585.968 883.024C585.968 883.024 539.193 873.939 532.398 870.286C525.588 866.632 612.167 924.961 612.167 924.961L705.34 897.542L585.968 883.024Z" fill="#CE9A09"/>
<path d="M606.342 662.259C606.342 662.259 570.786 673.475 576.327 753.803C581.869 834.131 587.411 814.734 587.411 814.734C587.411 814.734 616.967 678.745 606.342 662.259Z" fill="#FFCFDD"/>
<path d="M689.928 651.326C687.541 651.326 685.842 649.035 684.629 645.786H628.766C628.887 648.347 628.981 650.477 628.981 651.326C628.981 654.09 615.134 665.171 615.134 665.171C604.05 681.792 620.676 712.257 637.301 737.182C653.926 762.107 720.415 679.015 720.415 679.015C720.415 679.015 698.234 651.326 689.928 651.326Z" fill="#FFCFDD"/>
<path d="M653.683 896.639C653.683 896.639 608.284 891.099 598.508 883.981C588.732 876.864 601.272 856.28 601.272 820.274C601.272 784.268 597.2 753.21 597.2 753.21C597.2 753.21 582.045 731.898 597.2 709.615C612.356 687.319 606.814 665.171 606.814 665.171C606.814 665.171 612.356 651.327 617.898 659.63C623.44 667.934 615.134 701.176 640.065 706.717C664.996 712.257 689.928 670.711 692.705 654.09C695.47 637.469 712.095 659.63 706.553 665.171C701.011 670.711 692.705 726.101 739.804 739.959C739.804 739.959 770.075 844.552 750.793 853.193C731.484 861.82 675.608 898.216 653.683 896.639Z" fill="url(#paint17_linear)"/>
<path d="M706.553 662.407C706.553 662.407 778.839 679.082 772.098 768.052C766.623 840.333 649.733 835.048 649.733 835.048L653.899 814.747C653.899 814.747 734.33 819.277 739.777 739.959C739.777 739.959 719.498 737.047 709.304 723.338C701.038 712.23 698.22 698.413 700.998 679.028C703.776 659.63 706.553 662.407 706.553 662.407Z" fill="#FFCFDD"/>
<path d="M581.883 515.608C581.02 536.475 581.209 511.321 577.919 511.24C572.39 511.105 564.92 515.123 564.92 537.769C564.92 573.775 548.767 571.012 554.147 595.936C559.527 620.861 574.548 633.641 575.128 650.801C575.694 667.948 551.464 695.65 573.011 717.811C594.558 739.972 575.128 740.579 575.128 740.579C575.128 740.579 589.164 751.053 589.164 715.048C589.164 690.352 609.214 676.009 621.795 669.444C627.417 666.505 631.759 659.657 628.752 629.138L581.883 515.608Z" fill="black"/>
<path d="M681.608 626.402L634.509 510.067C634.509 510.067 565.244 482.366 568.021 543.31C570.785 604.24 576.327 609.781 587.411 629.165C598.494 648.55 628.01 634.746 628.01 634.746C628.01 634.746 628.685 653.82 628.968 659.63L684.615 648.55C681.622 640.475 681.608 626.402 681.608 626.402Z" fill="#FFCFDD"/>
<path d="M664.996 770.424L676.08 734.419C676.08 734.419 681.622 728.878 684.386 737.182L667.761 803.653L659.455 792.572L664.996 770.424Z" fill="white"/>
<path d="M507.385 760.476H697.398L730.258 892.258H559.877L524.011 857.412L507.385 760.476Z" fill="black"/>
<path d="M620.136 910.12C620.136 910.12 584.647 895.062 565.257 883.981C545.868 872.901 479.38 814.734 448.893 842.435C418.42 870.137 509.394 935.166 581.654 930.34C653.913 925.514 620.136 910.12 620.136 910.12Z" fill="url(#paint18_linear)"/>
<path d="M581.883 922.751C581.883 922.751 579.119 964.297 592.966 964.297C606.814 964.297 658.457 953.216 718.513 943.523C778.583 933.831 850.613 883.968 822.904 859.043C774.659 815.637 706.553 886.745 581.883 922.751Z" fill="url(#paint19_linear)"/>
<path d="M613.233 813.736C611.21 812.199 608.378 812.132 606.275 813.547C600.693 817.308 590.823 826.138 601.205 836.531C614.069 849.364 626.919 824.102 613.233 813.736Z" fill="white"/>
<path d="M619.826 813.938C624.802 818.912 629.777 810.501 626.312 805.581C625.071 803.815 622.509 803.599 620.837 804.974C618.532 806.875 616.037 810.164 619.826 813.938Z" fill="white"/>
<path d="M569.828 520.164C569.828 520.164 592.966 546.073 623.439 551.613C653.913 557.154 659.454 573.775 667.76 598.7C676.565 625.108 676.066 654.09 695.469 670.711C714.859 687.332 701.389 707.229 701.389 707.229C701.389 707.229 725.943 690.096 706.553 665.171C687.163 640.246 703.789 598.7 698.247 579.315C693.622 563.112 709.331 518.385 662.232 496.223C615.12 474.062 596.553 485.938 569.828 520.164Z" fill="black"/>
<path d="M685.613 534.467C685.613 534.467 698.247 583.589 703.789 595.02C710.801 609.484 723.179 612.167 723.179 629.313C723.179 646.46 730.311 664.254 737.053 677.734C737.053 677.734 714.131 662.906 707.389 662.906C696.494 662.906 679.343 611.843 679.1 610.576C678.844 609.309 685.613 534.467 685.613 534.467Z" fill="black"/>
<defs>
<linearGradient id="paint0_linear" x1="360" y1="0" x2="360" y2="1024" gradientUnits="userSpaceOnUse">
<stop stop-color="#4666DA"/>
<stop offset="1" stop-color="#D53DD8"/>
</linearGradient>
<linearGradient id="paint1_linear" x1="366" y1="0" x2="366" y2="1024" gradientUnits="userSpaceOnUse">
<stop stop-color="#A036FE"/>
<stop offset="1" stop-color="#7336FE" stop-opacity="0"/>
</linearGradient>
<linearGradient id="paint2_linear" x1="7" y1="864.004" x2="717" y2="864.004" gradientUnits="userSpaceOnUse">
<stop stop-color="#FFCFDD"/>
<stop offset="0.2587" stop-color="#FD86AA"/>
</linearGradient>
<linearGradient id="paint3_linear" x1="-3" y1="938.348" x2="861" y2="938.348" gradientUnits="userSpaceOnUse">
<stop stop-color="#FD86AA"/>
<stop offset="0.6571" stop-color="#DF6488"/>
</linearGradient>
<linearGradient id="paint4_linear" x1="-0.518908" y1="366.256" x2="591.215" y2="366.256" gradientUnits="userSpaceOnUse">
<stop stop-color="#A8E3F9"/>
<stop offset="0.2587" stop-color="#22BBEE"/>
</linearGradient>
<linearGradient id="paint5_linear" x1="107.765" y1="778.848" x2="261.272" y2="778.848" gradientUnits="userSpaceOnUse">
<stop stop-color="#A8E3F9"/>
<stop offset="0.0112" stop-color="#A6E2F9"/>
<stop offset="0.2443" stop-color="#77D4F5"/>
<stop offset="0.4668" stop-color="#52C9F2"/>
<stop offset="0.6729" stop-color="#38C1F0"/>
<stop offset="0.8568" stop-color="#28BDEE"/>
<stop offset="1" stop-color="#22BBEE"/>
</linearGradient>
<linearGradient id="paint6_linear" x1="500.699" y1="496.682" x2="570.607" y2="496.682" gradientUnits="userSpaceOnUse">
<stop stop-color="#A8E3F9"/>
<stop offset="0.0112" stop-color="#A6E2F9"/>
<stop offset="0.2443" stop-color="#77D4F5"/>
<stop offset="0.4668" stop-color="#52C9F2"/>
<stop offset="0.6729" stop-color="#38C1F0"/>
<stop offset="0.8568" stop-color="#28BDEE"/>
<stop offset="1" stop-color="#22BBEE"/>
</linearGradient>
<linearGradient id="paint7_linear" x1="501.356" y1="401.341" x2="525.675" y2="401.341" gradientUnits="userSpaceOnUse">
<stop stop-color="#A8E3F9"/>
<stop offset="0.0112" stop-color="#A6E2F9"/>
<stop offset="0.2443" stop-color="#77D4F5"/>
<stop offset="0.4668" stop-color="#52C9F2"/>
<stop offset="0.6729" stop-color="#38C1F0"/>
<stop offset="0.8568" stop-color="#28BDEE"/>
<stop offset="1" stop-color="#22BBEE"/>
</linearGradient>
<linearGradient id="paint8_linear" x1="212.152" y1="811.943" x2="255.324" y2="811.943" gradientUnits="userSpaceOnUse">
<stop stop-color="#A8E3F9"/>
<stop offset="0.0112" stop-color="#A6E2F9"/>
<stop offset="0.2443" stop-color="#77D4F5"/>
<stop offset="0.4668" stop-color="#52C9F2"/>
<stop offset="0.6729" stop-color="#38C1F0"/>
<stop offset="0.8568" stop-color="#28BDEE"/>
<stop offset="1" stop-color="#22BBEE"/>
</linearGradient>
<linearGradient id="paint9_linear" x1="308.023" y1="615.194" x2="445.804" y2="615.194" gradientUnits="userSpaceOnUse">
<stop stop-color="#FEF0C3"/>
<stop offset="0.6571" stop-color="#FDDA68"/>
</linearGradient>
<linearGradient id="paint10_linear" x1="271.852" y1="629.87" x2="437.702" y2="629.87" gradientUnits="userSpaceOnUse">
<stop stop-color="#FD86AA"/>
<stop offset="0.6571" stop-color="#DF6488"/>
</linearGradient>
<linearGradient id="paint11_linear" x1="238.64" y1="626.552" x2="472.65" y2="626.552" gradientUnits="userSpaceOnUse">
<stop offset="0.233" stop-color="#FEF0C3"/>
<stop offset="0.8872" stop-color="#FDDA68"/>
</linearGradient>
<linearGradient id="paint12_linear" x1="111.396" y1="381.674" x2="247.21" y2="381.674" gradientUnits="userSpaceOnUse">
<stop stop-color="#FD86AA"/>
<stop offset="0.6571" stop-color="#DF6488"/>
</linearGradient>
<linearGradient id="paint13_linear" x1="187.739" y1="356.555" x2="440.723" y2="480.261" gradientUnits="userSpaceOnUse">
<stop offset="0.1605" stop-color="#FEF0C3"/>
<stop offset="1" stop-color="#FDDA68"/>
</linearGradient>
<linearGradient id="paint14_linear" x1="118.492" y1="472.554" x2="253.499" y2="472.554" gradientUnits="userSpaceOnUse">
<stop stop-color="#FD86AA"/>
<stop offset="0.6571" stop-color="#DF6488"/>
</linearGradient>
<linearGradient id="paint15_linear" x1="30.8383" y1="142.172" x2="266.459" y2="142.172" gradientUnits="userSpaceOnUse">
<stop stop-color="#FFCFDD"/>
<stop offset="1" stop-color="#FD86AA"/>
</linearGradient>
<linearGradient id="paint16_linear" x1="362.135" y1="230.899" x2="426.905" y2="230.899" gradientUnits="userSpaceOnUse">
<stop stop-color="#FD86AA"/>
<stop offset="1" stop-color="#DF6488"/>
</linearGradient>
<linearGradient id="paint17_linear" x1="590.467" y1="772.353" x2="757.206" y2="772.353" gradientUnits="userSpaceOnUse">
<stop stop-color="#FD8EAA"/>
<stop offset="0.4941" stop-color="#F07B9B"/>
<stop offset="1" stop-color="#DF6488"/>
</linearGradient>
<linearGradient id="paint18_linear" x1="442.849" y1="882.816" x2="628.018" y2="882.816" gradientUnits="userSpaceOnUse">
<stop offset="0.223" stop-color="#FDDA68"/>
<stop offset="0.4345" stop-color="#FCD865"/>
<stop offset="0.584" stop-color="#F7D25C"/>
<stop offset="0.7143" stop-color="#EFC74C"/>
<stop offset="0.8336" stop-color="#E4B936"/>
<stop offset="0.9444" stop-color="#D7A61A"/>
<stop offset="1" stop-color="#CE9A09"/>
</linearGradient>
<linearGradient id="paint19_linear" x1="581.651" y1="904.869" x2="829.02" y2="904.869" gradientUnits="userSpaceOnUse">
<stop stop-color="#FEF0C3"/>
<stop offset="0.6571" stop-color="#FDDA68"/>
</linearGradient>
</defs>
</svg>
