<svg width="856" height="1028" viewBox="0 0 856 1028" fill="none" xmlns="http://www.w3.org/2000/svg">
<rect width="720" height="1024" transform="translate(1 1)" fill="url(#paint0_linear)"/>
<path d="M1 1H721V1025H1V1Z" fill="url(#paint1_linear)"/>
<path d="M42.3203 69.2097H57.25V74.8582H35.2891V40.7332H42.3203V69.2097ZM87.8359 58.5691C87.8359 61.9285 87.2422 64.8738 86.0547 67.405C84.8672 69.9363 83.1641 71.8894 80.9453 73.2644C78.7422 74.6394 76.2109 75.3269 73.3516 75.3269C70.5234 75.3269 68 74.6472 65.7812 73.2878C63.5625 71.9285 61.8438 69.991 60.625 67.4753C59.4062 64.9441 58.7891 62.0378 58.7734 58.7566V57.0691C58.7734 53.7097 59.375 50.7566 60.5781 48.2097C61.7969 45.6472 63.5078 43.6863 65.7109 42.3269C67.9297 40.9519 70.4609 40.2644 73.3047 40.2644C76.1484 40.2644 78.6719 40.9519 80.875 42.3269C83.0938 43.6863 84.8047 45.6472 86.0078 48.2097C87.2266 50.7566 87.8359 53.7019 87.8359 57.0457V58.5691ZM80.7109 57.0222C80.7109 53.4441 80.0703 50.7253 78.7891 48.866C77.5078 47.0066 75.6797 46.0769 73.3047 46.0769C70.9453 46.0769 69.125 46.9988 67.8438 48.8425C66.5625 50.6707 65.9141 53.3582 65.8984 56.905V58.5691C65.8984 62.0535 66.5391 64.7566 67.8203 66.6785C69.1016 68.6003 70.9453 69.5613 73.3516 69.5613C75.7109 69.5613 77.5234 68.6394 78.7891 66.7957C80.0547 64.9363 80.6953 62.2332 80.7109 58.6863V57.0222ZM119.945 70.5457C118.68 72.0613 116.891 73.241 114.578 74.0847C112.266 74.9128 109.703 75.3269 106.891 75.3269C103.938 75.3269 101.344 74.6863 99.1094 73.405C96.8906 72.1082 95.1719 70.2332 93.9531 67.78C92.75 65.3269 92.1328 62.4441 92.1016 59.1316V56.8113C92.1016 53.405 92.6719 50.4597 93.8125 47.9753C94.9688 45.4753 96.625 43.5691 98.7812 42.2566C100.953 40.9285 103.492 40.2644 106.398 40.2644C110.445 40.2644 113.609 41.2332 115.891 43.1707C118.172 45.0925 119.523 47.8972 119.945 51.5847H113.102C112.789 49.6316 112.094 48.2019 111.016 47.2957C109.953 46.3894 108.484 45.9363 106.609 45.9363C104.219 45.9363 102.398 46.8347 101.148 48.6316C99.8984 50.4285 99.2656 53.1003 99.25 56.6472V58.8269C99.25 62.405 99.9297 65.1082 101.289 66.9363C102.648 68.7644 104.641 69.6785 107.266 69.6785C109.906 69.6785 111.789 69.116 112.914 67.991V62.1082H106.516V56.9285H119.945V70.5457ZM153.695 58.5691C153.695 61.9285 153.102 64.8738 151.914 67.405C150.727 69.9363 149.023 71.8894 146.805 73.2644C144.602 74.6394 142.07 75.3269 139.211 75.3269C136.383 75.3269 133.859 74.6472 131.641 73.2878C129.422 71.9285 127.703 69.991 126.484 67.4753C125.266 64.9441 124.648 62.0378 124.633 58.7566V57.0691C124.633 53.7097 125.234 50.7566 126.438 48.2097C127.656 45.6472 129.367 43.6863 131.57 42.3269C133.789 40.9519 136.32 40.2644 139.164 40.2644C142.008 40.2644 144.531 40.9519 146.734 42.3269C148.953 43.6863 150.664 45.6472 151.867 48.2097C153.086 50.7566 153.695 53.7019 153.695 57.0457V58.5691ZM146.57 57.0222C146.57 53.4441 145.93 50.7253 144.648 48.866C143.367 47.0066 141.539 46.0769 139.164 46.0769C136.805 46.0769 134.984 46.9988 133.703 48.8425C132.422 50.6707 131.773 53.3582 131.758 56.905V58.5691C131.758 62.0535 132.398 64.7566 133.68 66.6785C134.961 68.6003 136.805 69.5613 139.211 69.5613C141.57 69.5613 143.383 68.6394 144.648 66.7957C145.914 64.9363 146.555 62.2332 146.57 58.6863V57.0222Z" fill="white"/>
<path d="M38.5352 86.5144H39.1367C39.4232 86.5144 39.6354 86.4428 39.7734 86.2996C39.9115 86.1563 39.9805 85.9662 39.9805 85.7292C39.9805 85.5001 39.9115 85.3217 39.7734 85.1941C39.638 85.0665 39.4505 85.0027 39.2109 85.0027C38.9948 85.0027 38.8138 85.0626 38.668 85.1824C38.5221 85.2996 38.4492 85.4532 38.4492 85.6433H37.3203C37.3203 85.3464 37.3997 85.0808 37.5586 84.8464C37.7201 84.6095 37.944 84.4246 38.2305 84.2917C38.5195 84.1589 38.8372 84.0925 39.1836 84.0925C39.7852 84.0925 40.2565 84.2371 40.5977 84.5261C40.9388 84.8126 41.1094 85.2084 41.1094 85.7136C41.1094 85.974 41.0299 86.2136 40.8711 86.4324C40.7122 86.6511 40.5039 86.8191 40.2461 86.9363C40.5664 87.0509 40.8047 87.2227 40.9609 87.4519C41.1198 87.6811 41.1992 87.9519 41.1992 88.2644C41.1992 88.7696 41.0143 89.1746 40.6445 89.4792C40.2773 89.7839 39.7904 89.9363 39.1836 89.9363C38.6159 89.9363 38.151 89.7865 37.7891 89.4871C37.4297 89.1876 37.25 88.7917 37.25 88.2996H38.3789C38.3789 88.5131 38.4583 88.6876 38.6172 88.823C38.7786 88.9584 38.9766 89.0261 39.2109 89.0261C39.4792 89.0261 39.6888 88.9558 39.8398 88.8152C39.9935 88.672 40.0703 88.4832 40.0703 88.2488C40.0703 87.6811 39.7578 87.3972 39.1328 87.3972H38.5352V86.5144ZM45.8789 89.8582H41.9805V89.0847L43.8203 87.1238C44.0729 86.8477 44.2591 86.6069 44.3789 86.4011C44.5013 86.1954 44.5625 86.0001 44.5625 85.8152C44.5625 85.5626 44.4987 85.3647 44.3711 85.2214C44.2435 85.0756 44.0612 85.0027 43.8242 85.0027C43.569 85.0027 43.3672 85.0912 43.2188 85.2683C43.0729 85.4428 43 85.6733 43 85.9597H41.8672C41.8672 85.6134 41.9492 85.297 42.1133 85.0105C42.2799 84.724 42.5143 84.5001 42.8164 84.3386C43.1185 84.1746 43.4609 84.0925 43.8438 84.0925C44.4297 84.0925 44.8841 84.2332 45.207 84.5144C45.5326 84.7957 45.6953 85.1928 45.6953 85.7058C45.6953 85.9871 45.6224 86.2735 45.4766 86.5652C45.3307 86.8569 45.0807 87.1967 44.7266 87.5847L43.4336 88.948H45.8789V89.8582ZM52.418 87.7839C52.418 88.435 52.2695 88.9571 51.9727 89.3503C51.6784 89.741 51.2799 89.9363 50.7773 89.9363C50.3503 89.9363 50.0052 89.7878 49.7422 89.491V91.4832H48.6133V85.6316H49.6602L49.6992 86.0457C49.9727 85.7175 50.3294 85.5535 50.7695 85.5535C51.2904 85.5535 51.6953 85.7462 51.9844 86.1316C52.2734 86.517 52.418 87.0483 52.418 87.7253V87.7839ZM51.2891 87.7019C51.2891 87.3087 51.2188 87.0053 51.0781 86.7917C50.9401 86.5782 50.7383 86.4714 50.4727 86.4714C50.1185 86.4714 49.875 86.6069 49.7422 86.8777V88.6082C49.8802 88.8868 50.1263 89.0261 50.4805 89.0261C51.0195 89.0261 51.2891 88.5847 51.2891 87.7019ZM54.668 86.8933L55.3789 85.6316H56.5859L55.3828 87.7019L56.6367 89.8582H55.4258L54.6719 88.53L53.9219 89.8582H52.707L53.9609 87.7019L52.7617 85.6316H53.9727L54.668 86.8933Z" fill="#FA36A0"/>
<path d="M1 701.625C1 701.625 272.575 654.731 483.023 793.528C693.47 932.325 712 1028 712 1028L1 1025V701.625Z" fill="url(#paint2_linear)"/>
<path d="M1 980.465C1 980.465 186.402 850.858 410.962 850.858C547.059 850.858 670.908 890.506 856 1027.86L1 1025V980.465Z" fill="url(#paint3_linear)"/>
<path d="M0.643997 701.052C0.643997 701.052 38.0652 769.331 94.9693 741.496C151.873 713.661 188.455 670.517 238.584 701.136C288.714 731.754 311.747 766.547 364.586 769.331C432.627 772.922 483.814 683.043 520.395 751.238C559.333 823.818 599.857 780.159 573.681 714.9C547.492 649.641 329.36 574.487 329.36 574.487L0.644043 504.858V531.5L0.643997 701.052Z" fill="#A8E3F9"/>
<path d="M585.472 733.612C585.472 733.612 595.854 630.205 539.223 605.941C482.591 581.677 487.702 553.368 477.198 485.967C466.694 418.566 523.393 360.831 427.308 271.632C332.922 184.011 411.114 144.932 331.574 50.5566C282.938 -7.14972 191.766 1.952 131.5 1.35801C49.7605 0.552384 1 0.99996 1 0.99996V631.358C1 631.358 88.8668 727.263 140.105 669.298C191.343 611.333 216.76 614.245 282.938 660.644C349.116 707.043 362.586 729.959 444.837 704.347C527.087 678.734 556.522 752.808 556.522 752.808C556.522 752.808 573.728 822.191 585.472 733.612Z" fill="url(#paint4_linear)"/>
<path d="M509.559 390.244C509.559 390.244 488.578 380.148 493.001 406.084C497.423 432.02 531.133 399.681 509.559 390.244Z" fill="#A8E3F9"/>
<path d="M253.611 803.264C257.171 808.535 257.238 815.518 253.57 820.708C249.323 826.72 241.031 832.759 225.012 830.737C196.588 827.165 224.405 759.939 253.611 803.264Z" fill="#A8E3F9"/>
<path d="M490.682 731.725C490.682 731.725 471.804 733.99 483.94 750.166C496.075 766.342 509.559 732.156 490.682 731.725Z" fill="#A8E3F9"/>
<path d="M243.66 773.77C243.66 773.77 196.683 788.989 194.377 817.998C192.071 847.008 123.52 892.032 114.082 812.202C104.643 732.358 233.305 706.369 253.355 726.71C273.405 747.052 272.61 765.439 243.66 773.77Z" fill="#A8E3F9"/>
<path d="M232.846 765.008C232.846 765.008 185.869 780.227 183.563 809.236C181.257 838.246 112.706 883.27 103.268 803.44C93.829 723.596 222.491 697.607 242.541 717.948C262.591 738.29 261.782 756.677 232.846 765.008Z" fill="url(#paint5_linear)"/>
<path d="M510.799 444.098C510.799 444.098 474.393 488.582 505.406 547.895C536.418 607.208 578.555 583.685 556.806 554.325C535.056 524.966 519.038 485.886 523.676 457.578C528.315 429.27 510.799 444.098 510.799 444.098Z" fill="#A8E3F9"/>
<path d="M513.604 429.337C513.604 429.337 477.198 473.822 508.21 533.135C539.223 592.447 581.36 568.925 559.61 539.565C537.875 510.218 521.842 471.126 526.481 442.817C531.119 414.509 513.604 429.337 513.604 429.337Z" fill="url(#paint6_linear)"/>
<path d="M513.523 390.46C513.523 390.46 492.542 380.363 496.965 406.299C501.388 432.235 535.097 399.896 513.523 390.46Z" fill="url(#paint7_linear)"/>
<path d="M247.638 806.257C251.198 811.528 251.265 818.511 247.597 823.7C243.35 829.713 235.058 835.752 219.039 833.73C190.615 830.157 218.419 762.932 247.638 806.257Z" fill="url(#paint8_linear)"/>
<path d="M490.857 726.926C490.857 726.926 471.98 729.191 484.115 745.367C496.25 761.543 509.734 727.357 490.857 726.926Z" fill="#22BBEE"/>
<path d="M409.779 90.9838C409.779 90.9838 366.119 173.55 411.128 223.09C512.566 334.746 463.714 229.83 463.566 221.661C462.932 185.143 425.798 153.222 430.436 124.913C435.088 96.605 409.779 90.9838 409.779 90.9838Z" fill="#A8E3F9"/>
<path d="M409.78 90.9837C409.78 90.9837 383.958 141.157 414.971 200.47C445.983 259.783 514.952 289.143 466.371 206.9C440.967 163.898 432.837 135.468 433.241 110.153C434.05 59.9793 409.78 90.9837 409.78 90.9837Z" fill="#22BBEE"/>
<path d="M316.742 566.835C316.742 566.835 272.245 531.787 370.676 620.756C402.579 649.59 422.481 670.889 434.805 686.499C437.448 687.227 439.484 687.335 440.805 686.728C430.113 670.997 418.355 654.389 409.779 639.628C385.508 597.84 323.483 560.095 323.483 560.095C323.483 560.095 316.189 553.651 305.766 545.253C304.62 547.383 303.487 550.389 303.015 554.285C311.078 561.254 316.742 566.835 316.742 566.835Z" fill="url(#paint9_linear)"/>
<path d="M349.777 713.769C395.575 713.769 432.702 676.652 432.702 630.866C432.702 585.08 395.575 547.963 349.777 547.963C303.979 547.963 266.852 585.08 266.852 630.866C266.852 676.652 303.979 713.769 349.777 713.769Z" fill="url(#paint10_linear)"/>
<path d="M440.805 686.728C439.484 687.348 437.448 687.24 434.805 686.499C460.519 719.067 453.318 726.926 453.318 726.926C384.942 721.21 238.536 530.439 256.267 527.567C267.553 525.734 288.938 542.126 303.015 554.299C303.474 550.403 304.62 547.397 305.766 545.267C282.129 526.233 242.352 497.129 234.707 510.232C223.704 529.104 300.561 618.073 323.484 642.338C346.406 666.602 440.792 756.92 462.366 747.483C476.322 741.377 460.37 715.522 440.805 686.728Z" fill="url(#paint11_linear)"/>
<path d="M106.396 399.68C106.396 399.68 158.645 358.256 176.336 359.428C194.04 360.588 232.024 378.705 241.341 388.519C250.658 398.332 180.974 405.949 180.974 405.949C180.974 405.949 183.617 382.763 163.203 385.836C142.802 388.896 106.396 399.68 106.396 399.68Z" fill="url(#paint12_linear)"/>
<path d="M165.495 440.215C165.495 440.215 168.421 460.341 185.95 461.689C203.478 463.037 229.516 453.844 256.267 456.419C283.019 458.993 413.824 438.773 444.837 382.156C444.837 382.156 384.794 340.421 288.062 370.051C191.33 399.68 169.769 406.421 169.769 406.421C169.769 406.421 158.524 424.268 165.495 425.455C172.466 426.641 210.22 406.421 243.93 418.553C243.93 418.553 230.446 437.425 183.253 437.425C183.253 437.425 163.917 433.583 165.495 440.215Z" fill="url(#paint13_linear)"/>
<path d="M113.488 471.867C113.488 471.867 172.924 502.09 190.035 497.439C207.146 492.788 240.788 467.499 247.975 456.028C255.162 444.556 185.356 450.919 185.356 450.919C185.356 450.919 192.543 473.121 171.927 474.159C151.31 475.224 113.488 471.867 113.488 471.867Z" fill="url(#paint14_linear)"/>
<path d="M56.5059 434.729C56.5059 434.729 149.651 405.464 153.643 405.935C157.634 406.421 157.256 418.068 150.029 420.332C142.802 422.597 56.5059 434.729 56.5059 434.729Z" fill="#F7F8F8"/>
<path d="M10.6616 457.645L97.4024 440.216C97.4024 440.216 107.771 443.383 101.016 449.166C94.2606 454.949 10.6616 457.645 10.6616 457.645Z" fill="#F7F8F8"/>
<path d="M67.293 467.082L150.892 450.905C150.892 450.905 159.967 450.905 158.807 457.645C157.647 464.385 67.293 467.082 67.293 467.082Z" fill="#F7F8F8"/>
<path d="M20.1001 155.689L84.8219 31.6708L268.2 128.728L202.13 255.442L20.1001 155.689Z" fill="#F7F8F8"/>
<path d="M25.8442 154.475L87.303 38.9905L261.459 129.362L198.705 247.354L25.8442 154.475Z" fill="url(#paint15_linear)"/>
<path d="M20.1003 155.689L1 173.5L203.479 278.359L202.13 255.442L20.1003 155.689Z" fill="#EDEFEF"/>
<path d="M1.00024 182.649L1 173.713L203.478 278.359L196.736 289.143L1.00024 182.649Z" fill="#C6C6C6"/>
<path d="M76.6374 181.759L137.705 65.1421L87.303 38.9905L25.8442 154.475L76.6374 181.759Z" fill="#FD86AA"/>
<path d="M87.5189 61.3273C82.1254 69.4154 71.3384 77.5035 79.4286 92.3318C87.5189 107.16 131.368 88.2877 114.837 76.8295C98.3058 65.3714 96.7687 47.4562 87.5189 61.3273Z" fill="#F7F8F8"/>
<path d="M85.8334 539.403C85.8334 539.403 60.8616 569.679 81.0736 587.541C101.286 605.402 131.988 598.702 144.703 569.275C144.703 569.275 110.832 590.978 96.7282 577.983C82.2737 564.665 83.4063 560.486 85.8334 539.403Z" fill="#F7F8F8"/>
<path d="M290.354 217.024C290.354 217.024 288.237 191.034 290.354 191.56C292.471 192.085 295.492 209.61 294.656 217.024C294.656 217.024 314.045 217.698 314.045 220.394C314.045 223.09 295.168 221.742 295.168 221.742C295.168 221.742 297.865 236.57 295.168 237.918C292.471 239.266 291.123 221.742 291.123 221.742C291.123 221.742 277.639 224.438 276.291 223.09C274.942 221.742 286.875 216.35 290.354 217.024Z" fill="#F7F8F8"/>
<path d="M49.6023 272.32C49.6023 272.32 47.4854 246.33 49.6023 246.855C51.7193 247.381 54.7396 264.905 53.9036 272.32C53.9036 272.32 73.2932 272.994 73.2932 275.69C73.2932 278.386 54.416 277.038 54.416 277.038C54.416 277.038 57.1127 291.866 54.416 293.214C51.7193 294.562 50.3709 277.038 50.3709 277.038C50.3709 277.038 36.8872 279.734 35.5388 278.386C34.1904 277.038 46.1235 271.645 49.6023 272.32Z" fill="#F7F8F8"/>
<path d="M273.041 260.659C273.041 260.659 271.787 245.265 273.041 245.575C274.295 245.885 276.075 256.265 275.589 260.659C275.589 260.659 287.077 261.064 287.077 262.654C287.077 264.245 275.899 263.45 275.899 263.45C275.899 263.45 277.49 272.225 275.899 273.034C274.308 273.829 273.499 263.45 273.499 263.45C273.499 263.45 265.517 265.04 264.721 264.245C263.926 263.45 270.991 260.255 273.041 260.659Z" fill="#F7F8F8"/>
<path d="M79.6038 302.569C79.6038 302.569 78.3498 287.175 79.6038 287.485C80.8578 287.795 82.6376 298.175 82.1522 302.569C82.1522 302.569 93.6403 302.974 93.6403 304.564C93.6403 306.155 82.4623 305.36 82.4623 305.36C82.4623 305.36 84.0534 314.135 82.4623 314.944C80.8713 315.739 80.0622 305.36 80.0622 305.36C80.0622 305.36 72.0799 306.95 71.2843 306.155C70.4888 305.36 77.5543 302.165 79.6038 302.569Z" fill="#F7F8F8"/>
<path d="M361.198 289.143C361.198 289.143 339.152 285.759 397.725 202.195C456.298 118.632 394.206 248.028 361.198 289.143Z" fill="url(#paint16_linear)"/>
<path d="M372.362 278.035C372.362 278.035 373.629 272.832 364.353 270.796C355.076 268.761 352.716 273.762 351.894 283.751C351.894 283.751 352.891 291.744 347.781 296.139C342.671 300.534 371.121 295.667 372.362 278.035Z" fill="#FDDA68"/>
<path d="M355.696 287.579C355.561 288.428 355.952 289.264 356.168 290.086C356.627 291.825 356.896 295.519 351.799 297.231C345.017 299.509 346.797 295.492 347.754 294.535C350.451 291.839 351.799 289.143 350.451 285.099C349.103 281.055 353.458 275.541 353.148 277.011C352.905 278.17 357.193 278.359 355.696 287.579Z" fill="#F7F8F8"/>
<path d="M384.807 492.586C384.807 492.586 382.69 466.596 384.807 467.122C386.924 467.648 389.945 485.172 389.109 492.586C389.109 492.586 408.498 493.26 408.498 495.956C408.498 498.652 389.621 497.304 389.621 497.304C389.621 497.304 392.318 512.132 389.621 513.481C386.924 514.829 385.576 497.304 385.576 497.304C385.576 497.304 372.092 500 370.744 498.652C369.395 497.304 381.342 491.912 384.807 492.586Z" fill="#F7F8F8"/>
<path d="M62.5465 628.736C62.5465 628.736 60.4296 602.746 62.5465 603.272C64.6635 603.798 67.6838 621.322 66.8478 628.736C66.8478 628.736 86.2374 629.41 86.2374 632.106C86.2374 634.802 67.3602 633.454 67.3602 633.454C67.3602 633.454 70.057 648.282 67.3602 649.63C64.6635 650.978 63.3151 633.454 63.3151 633.454C63.3151 633.454 49.8314 636.15 48.483 634.802C47.1347 633.454 59.0812 628.062 62.5465 628.736Z" fill="#F7F8F8"/>
<path d="M397.28 459.465C397.28 459.465 396.026 444.071 397.28 444.381C398.534 444.691 400.314 455.071 399.828 459.465C399.828 459.465 411.317 459.87 411.317 461.46C411.317 463.051 400.139 462.256 400.139 462.256C400.139 462.256 401.73 471.031 400.139 471.84C398.548 472.635 397.739 462.256 397.739 462.256C397.739 462.256 389.756 463.846 388.961 463.051C388.165 462.269 395.231 459.074 397.28 459.465Z" fill="#F7F8F8"/>
<path d="M126.257 528.214C126.257 528.214 125.003 512.82 126.257 513.13C127.511 513.44 129.291 523.82 128.806 528.214C128.806 528.214 140.294 528.619 140.294 530.209C140.294 531.8 129.116 531.005 129.116 531.005C129.116 531.005 130.707 539.78 129.116 540.589C127.525 541.385 126.716 531.005 126.716 531.005C126.716 531.005 118.733 532.595 117.938 531.8C117.142 531.018 124.208 527.823 126.257 528.214Z" fill="#F7F8F8"/>
<path d="M576.654 970.527C576.654 970.527 540.868 1001.32 524.243 990.235C507.617 979.154 557.493 937.608 557.493 937.608C557.493 937.608 568.132 930.625 576.667 931.353C585.189 932.068 606.898 950.819 576.654 970.527Z" fill="black"/>
<path d="M580.968 884.024C580.968 884.024 534.193 874.939 527.398 871.286C520.588 867.632 607.167 925.961 607.167 925.961L700.34 898.542L580.968 884.024Z" fill="#CE9A09"/>
<path d="M601.342 663.259C601.342 663.259 565.786 674.475 571.327 754.803C576.869 835.132 582.411 815.734 582.411 815.734C582.411 815.734 611.967 679.745 601.342 663.259Z" fill="#FFCFDD"/>
<path d="M684.928 652.326C682.541 652.326 680.842 650.035 679.629 646.786H623.766C623.887 649.347 623.981 651.477 623.981 652.326C623.981 655.09 610.134 666.171 610.134 666.171C599.05 682.792 615.676 713.257 632.301 738.182C648.926 763.107 715.415 680.015 715.415 680.015C715.415 680.015 693.234 652.326 684.928 652.326Z" fill="#FFCFDD"/>
<path d="M648.683 897.639C648.683 897.639 603.284 892.099 593.508 884.981C583.732 877.864 596.272 857.28 596.272 821.274C596.272 785.268 592.2 754.21 592.2 754.21C592.2 754.21 577.045 732.898 592.2 710.615C607.356 688.319 601.814 666.171 601.814 666.171C601.814 666.171 607.356 652.327 612.898 660.63C618.44 668.934 610.134 702.176 635.065 707.717C659.996 713.257 684.928 671.711 687.705 655.09C690.47 638.469 707.095 660.63 701.553 666.171C696.011 671.711 687.705 727.101 734.804 740.959C734.804 740.959 765.075 845.552 745.793 854.193C726.484 862.82 670.608 899.216 648.683 897.639Z" fill="url(#paint17_linear)"/>
<path d="M701.553 663.407C701.553 663.407 773.839 680.082 767.098 769.052C761.623 841.333 644.733 836.048 644.733 836.048L648.899 815.747C648.899 815.747 729.33 820.277 734.777 740.959C734.777 740.959 714.498 738.047 704.304 724.338C696.038 713.23 693.22 699.413 695.998 680.028C698.776 660.63 701.553 663.407 701.553 663.407Z" fill="#FFCFDD"/>
<path d="M576.883 516.608C576.02 537.475 576.209 512.321 572.919 512.24C567.39 512.105 559.92 516.123 559.92 538.769C559.92 574.775 543.767 572.012 549.147 596.936C554.527 621.861 569.548 634.641 570.128 651.801C570.694 668.948 546.464 696.65 568.011 718.811C589.558 740.972 570.128 741.579 570.128 741.579C570.128 741.579 584.164 752.053 584.164 716.048C584.164 691.352 604.214 677.009 616.795 670.444C622.417 667.505 626.759 660.657 623.752 630.138L576.883 516.608Z" fill="black"/>
<path d="M676.608 627.402L629.509 511.067C629.509 511.067 560.244 483.366 563.021 544.31C565.785 605.24 571.327 610.781 582.411 630.165C593.494 649.55 623.01 635.746 623.01 635.746C623.01 635.746 623.685 654.82 623.968 660.63L679.615 649.55C676.622 641.475 676.608 627.402 676.608 627.402Z" fill="#FFCFDD"/>
<path d="M659.996 771.424L671.08 735.419C671.08 735.419 676.622 729.878 679.386 738.182L662.761 804.653L654.455 793.572L659.996 771.424Z" fill="white"/>
<path d="M502.385 761.476H692.398L725.258 893.258H554.877L519.011 858.412L502.385 761.476Z" fill="black"/>
<path d="M615.136 911.12C615.136 911.12 579.647 896.062 560.257 884.981C540.868 873.901 474.38 815.734 443.893 843.435C413.42 871.137 504.394 936.166 576.654 931.34C648.913 926.514 615.136 911.12 615.136 911.12Z" fill="url(#paint18_linear)"/>
<path d="M576.883 923.751C576.883 923.751 574.119 965.297 587.966 965.297C601.814 965.297 653.457 954.216 713.513 944.523C773.583 934.831 845.613 884.968 817.904 860.043C769.659 816.637 701.553 887.745 576.883 923.751Z" fill="url(#paint19_linear)"/>
<path d="M608.233 814.736C606.21 813.199 603.378 813.132 601.275 814.547C595.693 818.308 585.823 827.138 596.205 837.531C609.069 850.364 621.919 825.102 608.233 814.736Z" fill="white"/>
<path d="M614.826 814.938C619.802 819.912 624.777 811.501 621.312 806.581C620.071 804.815 617.509 804.599 615.837 805.974C613.532 807.875 611.037 811.164 614.826 814.938Z" fill="white"/>
<path d="M564.828 521.164C564.828 521.164 587.966 547.073 618.439 552.613C648.913 558.154 654.454 574.775 662.76 599.7C671.565 626.108 671.066 655.09 690.469 671.711C709.859 688.332 696.389 708.229 696.389 708.229C696.389 708.229 720.943 691.096 701.553 666.171C682.163 641.246 698.789 599.7 693.247 580.315C688.622 564.112 704.331 519.385 657.232 497.223C610.12 475.062 591.553 486.938 564.828 521.164Z" fill="black"/>
<path d="M680.613 535.467C680.613 535.467 693.247 584.589 698.789 596.02C705.801 610.484 718.179 613.167 718.179 630.313C718.179 647.46 725.311 665.254 732.053 678.734C732.053 678.734 709.131 663.906 702.389 663.906C691.494 663.906 674.343 612.843 674.1 611.576C673.844 610.309 680.613 535.467 680.613 535.467Z" fill="black"/>
<defs>
<linearGradient id="paint0_linear" x1="360" y1="0" x2="360" y2="1024" gradientUnits="userSpaceOnUse">
<stop stop-color="#4666DA"/>
<stop offset="1" stop-color="#D53DD8"/>
</linearGradient>
<linearGradient id="paint1_linear" x1="361" y1="1" x2="361" y2="1025" gradientUnits="userSpaceOnUse">
<stop stop-color="#A036FE"/>
<stop offset="1" stop-color="#7336FE" stop-opacity="0"/>
</linearGradient>
<linearGradient id="paint2_linear" x1="5.42581" y1="865.066" x2="712.001" y2="865.066" gradientUnits="userSpaceOnUse">
<stop stop-color="#FFCFDD"/>
<stop offset="0.2587" stop-color="#FD86AA"/>
</linearGradient>
<linearGradient id="paint3_linear" x1="-8" y1="939.348" x2="856" y2="939.348" gradientUnits="userSpaceOnUse">
<stop stop-color="#FD86AA"/>
<stop offset="0.6571" stop-color="#DF6488"/>
</linearGradient>
<linearGradient id="paint4_linear" x1="-5.51891" y1="367.256" x2="586.215" y2="367.256" gradientUnits="userSpaceOnUse">
<stop stop-color="#A8E3F9"/>
<stop offset="0.2587" stop-color="#22BBEE"/>
</linearGradient>
<linearGradient id="paint5_linear" x1="102.765" y1="779.848" x2="256.272" y2="779.848" gradientUnits="userSpaceOnUse">
<stop stop-color="#A8E3F9"/>
<stop offset="0.0112" stop-color="#A6E2F9"/>
<stop offset="0.2443" stop-color="#77D4F5"/>
<stop offset="0.4668" stop-color="#52C9F2"/>
<stop offset="0.6729" stop-color="#38C1F0"/>
<stop offset="0.8568" stop-color="#28BDEE"/>
<stop offset="1" stop-color="#22BBEE"/>
</linearGradient>
<linearGradient id="paint6_linear" x1="495.699" y1="497.682" x2="565.607" y2="497.682" gradientUnits="userSpaceOnUse">
<stop stop-color="#A8E3F9"/>
<stop offset="0.0112" stop-color="#A6E2F9"/>
<stop offset="0.2443" stop-color="#77D4F5"/>
<stop offset="0.4668" stop-color="#52C9F2"/>
<stop offset="0.6729" stop-color="#38C1F0"/>
<stop offset="0.8568" stop-color="#28BDEE"/>
<stop offset="1" stop-color="#22BBEE"/>
</linearGradient>
<linearGradient id="paint7_linear" x1="496.356" y1="402.341" x2="520.675" y2="402.341" gradientUnits="userSpaceOnUse">
<stop stop-color="#A8E3F9"/>
<stop offset="0.0112" stop-color="#A6E2F9"/>
<stop offset="0.2443" stop-color="#77D4F5"/>
<stop offset="0.4668" stop-color="#52C9F2"/>
<stop offset="0.6729" stop-color="#38C1F0"/>
<stop offset="0.8568" stop-color="#28BDEE"/>
<stop offset="1" stop-color="#22BBEE"/>
</linearGradient>
<linearGradient id="paint8_linear" x1="207.152" y1="812.943" x2="250.324" y2="812.943" gradientUnits="userSpaceOnUse">
<stop stop-color="#A8E3F9"/>
<stop offset="0.0112" stop-color="#A6E2F9"/>
<stop offset="0.2443" stop-color="#77D4F5"/>
<stop offset="0.4668" stop-color="#52C9F2"/>
<stop offset="0.6729" stop-color="#38C1F0"/>
<stop offset="0.8568" stop-color="#28BDEE"/>
<stop offset="1" stop-color="#22BBEE"/>
</linearGradient>
<linearGradient id="paint9_linear" x1="303.023" y1="616.194" x2="440.804" y2="616.194" gradientUnits="userSpaceOnUse">
<stop stop-color="#FEF0C3"/>
<stop offset="0.6571" stop-color="#FDDA68"/>
</linearGradient>
<linearGradient id="paint10_linear" x1="266.852" y1="630.87" x2="432.702" y2="630.87" gradientUnits="userSpaceOnUse">
<stop stop-color="#FD86AA"/>
<stop offset="0.6571" stop-color="#DF6488"/>
</linearGradient>
<linearGradient id="paint11_linear" x1="233.64" y1="627.552" x2="467.65" y2="627.552" gradientUnits="userSpaceOnUse">
<stop offset="0.233" stop-color="#FEF0C3"/>
<stop offset="0.8872" stop-color="#FDDA68"/>
</linearGradient>
<linearGradient id="paint12_linear" x1="106.396" y1="382.674" x2="242.21" y2="382.674" gradientUnits="userSpaceOnUse">
<stop stop-color="#FD86AA"/>
<stop offset="0.6571" stop-color="#DF6488"/>
</linearGradient>
<linearGradient id="paint13_linear" x1="182.739" y1="357.555" x2="435.723" y2="481.261" gradientUnits="userSpaceOnUse">
<stop offset="0.1605" stop-color="#FEF0C3"/>
<stop offset="1" stop-color="#FDDA68"/>
</linearGradient>
<linearGradient id="paint14_linear" x1="113.492" y1="473.554" x2="248.499" y2="473.554" gradientUnits="userSpaceOnUse">
<stop stop-color="#FD86AA"/>
<stop offset="0.6571" stop-color="#DF6488"/>
</linearGradient>
<linearGradient id="paint15_linear" x1="25.8383" y1="143.172" x2="261.459" y2="143.172" gradientUnits="userSpaceOnUse">
<stop stop-color="#FFCFDD"/>
<stop offset="1" stop-color="#FD86AA"/>
</linearGradient>
<linearGradient id="paint16_linear" x1="357.135" y1="231.899" x2="421.905" y2="231.899" gradientUnits="userSpaceOnUse">
<stop stop-color="#FD86AA"/>
<stop offset="1" stop-color="#DF6488"/>
</linearGradient>
<linearGradient id="paint17_linear" x1="585.467" y1="773.353" x2="752.206" y2="773.353" gradientUnits="userSpaceOnUse">
<stop stop-color="#FD8EAA"/>
<stop offset="0.4941" stop-color="#F07B9B"/>
<stop offset="1" stop-color="#DF6488"/>
</linearGradient>
<linearGradient id="paint18_linear" x1="437.849" y1="883.816" x2="623.018" y2="883.816" gradientUnits="userSpaceOnUse">
<stop offset="0.223" stop-color="#FDDA68"/>
<stop offset="0.4345" stop-color="#FCD865"/>
<stop offset="0.584" stop-color="#F7D25C"/>
<stop offset="0.7143" stop-color="#EFC74C"/>
<stop offset="0.8336" stop-color="#E4B936"/>
<stop offset="0.9444" stop-color="#D7A61A"/>
<stop offset="1" stop-color="#CE9A09"/>
</linearGradient>
<linearGradient id="paint19_linear" x1="576.651" y1="905.869" x2="824.02" y2="905.869" gradientUnits="userSpaceOnUse">
<stop stop-color="#FEF0C3"/>
<stop offset="0.6571" stop-color="#FDDA68"/>
</linearGradient>
</defs>
</svg>
