<svg width="848" height="1024" viewBox="0 0 848 1024" fill="none" xmlns="http://www.w3.org/2000/svg">
<g clip-path="url(#clip0)">
<path d="M-8 711.151C-8 711.151 264.155 650.598 478.546 789.444C692.937 928.291 711.814 1024 711.814 1024H-5.519L-8 711.151Z" fill="url(#paint0_linear)"/>
<path d="M-8 976.607C-8 976.607 186.401 847 410.962 847C547.059 847 670.908 886.648 856 1024H-5.49581L-8 976.607Z" fill="url(#paint1_linear)"/>
<path d="M-8 697.194C-8 697.194 38.0652 765.473 94.9692 737.638C151.873 709.803 188.454 666.659 238.584 697.277C288.714 727.896 311.747 762.689 364.586 765.473C432.627 769.063 483.814 679.185 520.395 747.38C559.333 819.959 599.857 776.301 573.681 711.042C547.492 645.783 329.36 570.629 329.36 570.629L0.643997 501L-7.53935 523.365L-8 697.194Z" fill="#A8E3F9"/>
<path d="M585.472 729.754C585.472 729.754 595.854 626.347 539.223 602.083C482.591 577.819 487.702 549.51 477.198 482.109C466.694 414.708 523.393 356.972 427.308 267.774C332.922 180.153 411.114 141.073 331.574 46.6984C187.298 -124.5 -5.51904 -11.2664 -5.51904 -11.2664L-4.96621 635.002C-4.96621 635.002 88.8669 723.405 140.105 665.44C191.343 607.475 216.76 610.387 282.938 656.786C349.116 703.185 362.586 726.101 444.837 700.489C527.088 674.876 556.523 748.95 556.523 748.95C556.523 748.95 573.728 818.333 585.472 729.754Z" fill="url(#paint2_linear)"/>
<path d="M509.559 386.386C509.559 386.386 488.578 376.29 493.001 402.225C497.423 428.161 531.133 395.822 509.559 386.386Z" fill="#A8E3F9"/>
<path d="M253.611 799.406C257.171 804.677 257.238 811.66 253.57 816.85C249.323 822.862 241.031 828.901 225.012 826.879C196.588 823.307 224.405 756.081 253.611 799.406Z" fill="#A8E3F9"/>
<path d="M490.682 727.867C490.682 727.867 471.804 730.131 483.94 746.308C496.075 762.484 509.559 728.298 490.682 727.867Z" fill="#A8E3F9"/>
<path d="M243.66 769.911C243.66 769.911 196.683 785.131 194.377 814.14C192.071 843.149 123.52 888.173 114.082 808.344C104.643 728.5 233.305 702.51 253.355 722.852C273.405 743.194 272.61 761.581 243.66 769.911Z" fill="#A8E3F9"/>
<path d="M232.846 761.15C232.846 761.15 185.869 776.369 183.563 805.378C181.257 834.387 112.706 879.411 103.268 799.582C93.829 719.738 222.491 693.749 242.541 714.09C262.591 734.432 261.782 752.819 232.846 761.15Z" fill="url(#paint3_linear)"/>
<path d="M510.799 440.24C510.799 440.24 474.393 484.724 505.406 544.037C536.418 603.35 578.555 579.827 556.806 550.467C535.056 521.107 519.038 482.028 523.676 453.72C528.315 425.411 510.799 440.24 510.799 440.24Z" fill="#A8E3F9"/>
<path d="M513.604 425.479C513.604 425.479 477.198 469.963 508.21 529.276C539.223 588.589 581.36 565.066 559.61 535.706C537.875 506.36 521.842 467.267 526.481 438.959C531.119 410.65 513.604 425.479 513.604 425.479Z" fill="url(#paint4_linear)"/>
<path d="M513.523 386.602C513.523 386.602 492.542 376.505 496.965 402.441C501.388 428.377 535.097 396.038 513.523 386.602Z" fill="url(#paint5_linear)"/>
<path d="M247.638 802.399C251.198 807.67 251.265 814.652 247.597 819.842C243.35 825.854 235.058 831.894 219.039 829.872C190.615 826.299 218.419 759.074 247.638 802.399Z" fill="url(#paint6_linear)"/>
<path d="M490.857 723.068C490.857 723.068 471.98 725.333 484.115 741.509C496.25 757.685 509.734 723.499 490.857 723.068Z" fill="#22BBEE"/>
<path d="M409.779 87.1255C409.779 87.1255 366.119 169.692 411.128 219.232C512.566 330.888 463.714 225.972 463.566 217.803C462.932 181.285 425.798 149.364 430.436 121.055C435.088 92.7467 409.779 87.1255 409.779 87.1255Z" fill="#A8E3F9"/>
<path d="M409.78 87.1255C409.78 87.1255 383.958 137.299 414.971 196.612C445.983 255.925 514.952 285.285 466.371 203.042C440.967 160.04 432.837 131.61 433.241 106.294C434.05 56.121 409.78 87.1255 409.78 87.1255Z" fill="#22BBEE"/>
<path d="M316.742 562.977C316.742 562.977 272.245 527.928 370.676 616.898C402.579 645.732 422.481 667.031 434.805 682.641C437.448 683.369 439.484 683.476 440.805 682.87C430.113 667.138 418.355 650.531 409.779 635.77C385.508 593.981 323.483 556.237 323.483 556.237C323.483 556.237 316.189 549.793 305.766 541.395C304.62 543.525 303.487 546.531 303.015 550.427C311.078 557.396 316.742 562.977 316.742 562.977Z" fill="url(#paint7_linear)"/>
<path d="M349.777 709.911C395.575 709.911 432.702 672.794 432.702 627.008C432.702 581.222 395.575 544.104 349.777 544.104C303.979 544.104 266.852 581.222 266.852 627.008C266.852 672.794 303.979 709.911 349.777 709.911Z" fill="url(#paint8_linear)"/>
<path d="M440.805 682.87C439.484 683.49 437.448 683.382 434.805 682.641C460.519 715.209 453.318 723.068 453.318 723.068C384.942 717.352 238.536 526.58 256.267 523.709C267.553 521.876 288.938 538.268 303.015 550.44C303.474 546.545 304.62 543.538 305.766 541.409C282.129 522.375 242.352 493.271 234.707 506.374C223.704 525.246 300.561 614.215 323.484 638.48C346.406 662.744 440.792 753.061 462.366 743.625C476.322 737.519 460.37 711.664 440.805 682.87Z" fill="url(#paint9_linear)"/>
<path d="M106.396 395.822C106.396 395.822 158.645 354.398 176.336 355.57C194.04 356.73 232.024 374.847 241.341 384.661C250.658 394.474 180.974 402.091 180.974 402.091C180.974 402.091 183.617 378.905 163.203 381.978C142.802 385.038 106.396 395.822 106.396 395.822Z" fill="url(#paint10_linear)"/>
<path d="M165.495 436.357C165.495 436.357 168.421 456.483 185.95 457.831C203.478 459.179 229.516 449.986 256.267 452.561C283.019 455.135 413.824 434.915 444.837 378.298C444.837 378.298 384.794 336.563 288.062 366.193C191.33 395.822 169.769 402.562 169.769 402.562C169.769 402.562 158.524 420.41 165.495 421.596C172.466 422.783 210.22 402.562 243.93 414.695C243.93 414.695 230.446 433.567 183.253 433.567C183.253 433.567 163.917 429.725 165.495 436.357Z" fill="url(#paint11_linear)"/>
<path d="M113.488 468.009C113.488 468.009 172.924 498.231 190.035 493.581C207.146 488.93 240.788 463.641 247.975 452.17C255.162 440.698 185.356 447.061 185.356 447.061C185.356 447.061 192.543 469.262 171.927 470.3C151.31 471.365 113.488 468.009 113.488 468.009Z" fill="url(#paint12_linear)"/>
<path d="M56.5059 430.871C56.5059 430.871 149.651 401.605 153.643 402.077C157.634 402.562 157.256 414.209 150.029 416.474C142.802 418.739 56.5059 430.871 56.5059 430.871Z" fill="#F7F8F8"/>
<path d="M10.6616 453.787L97.4024 436.357C97.4024 436.357 107.771 439.525 101.016 445.308C94.2606 451.091 10.6616 453.787 10.6616 453.787Z" fill="#F7F8F8"/>
<path d="M67.293 463.223L150.892 447.047C150.892 447.047 159.967 447.047 158.807 453.787C157.647 460.527 67.293 463.223 67.293 463.223Z" fill="#F7F8F8"/>
<path d="M20.1001 151.831L84.8219 27.8127L268.2 124.87L202.13 251.584L20.1001 151.831Z" fill="#F7F8F8"/>
<path d="M25.8442 150.617L87.303 35.1323L261.459 125.504L198.705 243.496L25.8442 150.617Z" fill="url(#paint13_linear)"/>
<path d="M20.1001 151.831L-0.125488 169.355L203.479 274.5L202.13 251.584L20.1001 151.831Z" fill="#EDEFEF"/>
<path d="M-4.1709 178.791L-0.125785 169.355L203.478 274.501L196.736 285.285L-4.1709 178.791Z" fill="#C6C6C6"/>
<path d="M76.6374 177.901L137.705 61.2839L87.303 35.1323L25.8442 150.617L76.6374 177.901Z" fill="#FD86AA"/>
<path d="M87.5189 57.4691C82.1254 65.5573 71.3384 73.6454 79.4286 88.4736C87.5189 103.302 131.368 84.4296 114.837 72.9714C98.3058 61.5132 96.7687 43.598 87.5189 57.4691Z" fill="#F7F8F8"/>
<path d="M85.8334 535.545C85.8334 535.545 60.8616 565.821 81.0736 583.683C101.286 601.544 131.988 594.844 144.703 565.417C144.703 565.417 110.832 587.12 96.7282 574.125C82.2737 560.807 83.4063 556.628 85.8334 535.545Z" fill="#F7F8F8"/>
<path d="M290.354 213.166C290.354 213.166 288.237 187.176 290.354 187.701C292.471 188.227 295.492 205.751 294.656 213.166C294.656 213.166 314.045 213.84 314.045 216.536C314.045 219.232 295.168 217.884 295.168 217.884C295.168 217.884 297.865 232.712 295.168 234.06C292.471 235.408 291.123 217.884 291.123 217.884C291.123 217.884 277.639 220.58 276.291 219.232C274.942 217.884 286.875 212.492 290.354 213.166Z" fill="#F7F8F8"/>
<path d="M49.6023 268.461C49.6023 268.461 47.4854 242.471 49.6023 242.997C51.7193 243.523 54.7396 261.047 53.9036 268.461C53.9036 268.461 73.2932 269.135 73.2932 271.831C73.2932 274.527 54.416 273.179 54.416 273.179C54.416 273.179 57.1127 288.008 54.416 289.356C51.7193 290.704 50.3709 273.179 50.3709 273.179C50.3709 273.179 36.8872 275.875 35.5388 274.527C34.1904 273.179 46.1235 267.787 49.6023 268.461Z" fill="#F7F8F8"/>
<path d="M273.041 256.801C273.041 256.801 271.787 241.406 273.041 241.717C274.295 242.027 276.075 252.406 275.589 256.801C275.589 256.801 287.077 257.205 287.077 258.796C287.077 260.387 275.899 259.591 275.899 259.591C275.899 259.591 277.49 268.367 275.899 269.176C274.308 269.971 273.499 259.591 273.499 259.591C273.499 259.591 265.517 261.182 264.721 260.387C263.926 259.591 270.991 256.396 273.041 256.801Z" fill="#F7F8F8"/>
<path d="M79.6038 298.711C79.6038 298.711 78.3498 283.317 79.6038 283.627C80.8578 283.937 82.6376 294.317 82.1522 298.711C82.1522 298.711 93.6403 299.115 93.6403 300.706C93.6403 302.297 82.4623 301.501 82.4623 301.501C82.4623 301.501 84.0534 310.277 82.4623 311.086C80.8713 311.881 80.0622 301.501 80.0622 301.501C80.0622 301.501 72.0799 303.092 71.2843 302.297C70.4888 301.501 77.5543 298.307 79.6038 298.711Z" fill="#F7F8F8"/>
<path d="M361.198 285.285C361.198 285.285 339.152 281.901 397.725 198.337C456.298 114.773 394.206 244.17 361.198 285.285Z" fill="url(#paint14_linear)"/>
<path d="M372.362 274.177C372.362 274.177 373.629 268.974 364.353 266.938C355.076 264.902 352.716 269.904 351.894 279.893C351.894 279.893 352.891 287.886 347.781 292.281C342.671 296.675 371.121 291.809 372.362 274.177Z" fill="#FDDA68"/>
<path d="M355.696 283.721C355.561 284.57 355.952 285.406 356.168 286.228C356.627 287.967 356.896 291.661 351.799 293.373C345.017 295.651 346.797 291.634 347.754 290.677C350.451 287.981 351.799 285.285 350.451 281.241C349.103 277.197 353.458 271.683 353.148 273.152C352.905 274.312 357.193 274.5 355.696 283.721Z" fill="#F7F8F8"/>
<path d="M384.807 488.728C384.807 488.728 382.69 462.738 384.807 463.264C386.924 463.789 389.945 481.314 389.109 488.728C389.109 488.728 408.498 489.402 408.498 492.098C408.498 494.794 389.621 493.446 389.621 493.446C389.621 493.446 392.318 508.274 389.621 509.622C386.924 510.97 385.576 493.446 385.576 493.446C385.576 493.446 372.092 496.142 370.744 494.794C369.395 493.446 381.342 488.054 384.807 488.728Z" fill="#F7F8F8"/>
<path d="M62.5465 624.878C62.5465 624.878 60.4296 598.888 62.5465 599.414C64.6635 599.94 67.6838 617.464 66.8478 624.878C66.8478 624.878 86.2374 625.552 86.2374 628.248C86.2374 630.944 67.3602 629.596 67.3602 629.596C67.3602 629.596 70.057 644.424 67.3602 645.772C64.6635 647.12 63.3151 629.596 63.3151 629.596C63.3151 629.596 49.8314 632.292 48.483 630.944C47.1347 629.596 59.0812 624.204 62.5465 624.878Z" fill="#F7F8F8"/>
<path d="M397.28 455.607C397.28 455.607 396.026 440.213 397.28 440.523C398.534 440.833 400.314 451.213 399.828 455.607C399.828 455.607 411.317 456.011 411.317 457.602C411.317 459.193 400.139 458.397 400.139 458.397C400.139 458.397 401.73 467.173 400.139 467.982C398.548 468.777 397.739 458.397 397.739 458.397C397.739 458.397 389.756 459.988 388.961 459.193C388.165 458.411 395.231 455.216 397.28 455.607Z" fill="#F7F8F8"/>
<path d="M126.257 524.356C126.257 524.356 125.003 508.962 126.257 509.272C127.511 509.582 129.291 519.962 128.806 524.356C128.806 524.356 140.294 524.761 140.294 526.351C140.294 527.942 129.116 527.147 129.116 527.147C129.116 527.147 130.707 535.922 129.116 536.731C127.525 537.526 126.716 527.147 126.716 527.147C126.716 527.147 118.733 528.737 117.938 527.942C117.142 527.16 124.208 523.965 126.257 524.356Z" fill="#F7F8F8"/>
<path d="M576.654 966.669C576.654 966.669 540.868 997.458 524.243 986.377C507.617 975.296 557.493 933.75 557.493 933.75C557.493 933.75 568.132 926.767 576.667 927.495C585.189 928.21 606.898 946.961 576.654 966.669Z" fill="black"/>
<path d="M580.968 880.166C580.968 880.166 534.193 871.081 527.398 867.428C520.588 863.774 607.167 922.103 607.167 922.103L700.34 894.684L580.968 880.166Z" fill="#CE9A09"/>
<path d="M601.343 659.401C601.343 659.401 565.786 670.616 571.328 750.945C576.87 831.273 582.411 811.875 582.411 811.875C582.411 811.875 611.968 675.887 601.343 659.401Z" fill="#FFCFDD"/>
<path d="M684.928 648.469C682.541 648.469 680.842 646.177 679.629 642.928H623.766C623.887 645.489 623.981 647.619 623.981 648.469C623.981 651.232 610.134 662.313 610.134 662.313C599.05 678.934 615.676 709.399 632.301 734.324C648.926 759.249 715.415 676.157 715.415 676.157C715.415 676.157 693.234 648.469 684.928 648.469Z" fill="#FFCFDD"/>
<path d="M648.683 893.781C648.683 893.781 603.284 888.241 593.508 881.123C583.732 874.006 596.272 853.422 596.272 817.416C596.272 781.41 592.2 750.352 592.2 750.352C592.2 750.352 577.045 729.04 592.2 706.757C607.356 684.461 601.814 662.313 601.814 662.313C601.814 662.313 607.356 648.469 612.898 656.772C618.44 665.076 610.134 698.318 635.065 703.859C659.996 709.399 684.928 667.853 687.705 651.232C690.47 634.611 707.095 656.772 701.553 662.313C696.011 667.853 687.705 723.243 734.804 737.101C734.804 737.101 765.075 841.694 745.793 850.335C726.484 858.962 670.608 895.359 648.683 893.781Z" fill="url(#paint15_linear)"/>
<path d="M701.553 659.549C701.553 659.549 773.839 676.224 767.098 765.194C761.623 837.474 644.733 832.19 644.733 832.19L648.899 811.889C648.899 811.889 729.33 816.418 734.777 737.101C734.777 737.101 714.498 734.189 704.304 720.48C696.038 709.372 693.22 695.555 695.998 676.17C698.776 656.772 701.553 659.549 701.553 659.549Z" fill="#FFCFDD"/>
<path d="M576.883 512.75C576.02 533.617 576.209 508.463 572.919 508.382C567.39 508.247 559.92 512.264 559.92 534.911C559.92 570.917 543.767 568.153 549.147 593.078C554.527 618.003 569.548 630.782 570.128 647.943C570.694 665.09 546.464 692.791 568.011 714.953C589.558 737.114 570.128 737.721 570.128 737.721C570.128 737.721 584.164 748.195 584.164 712.189C584.164 687.494 604.214 673.151 616.795 666.586C622.417 663.647 626.759 656.799 623.752 626.28L576.883 512.75Z" fill="black"/>
<path d="M676.608 623.543L629.509 507.209C629.509 507.209 560.244 479.508 563.021 540.452C565.785 601.382 571.327 606.922 582.411 626.307C593.494 645.691 623.01 631.888 623.01 631.888C623.01 631.888 623.685 650.962 623.968 656.772L679.615 645.691C676.622 637.617 676.608 623.543 676.608 623.543Z" fill="#FFCFDD"/>
<path d="M659.996 767.566L671.08 731.561C671.08 731.561 676.622 726.02 679.386 734.324L662.761 800.795L654.455 789.714L659.996 767.566Z" fill="white"/>
<path d="M502.385 757.618H692.398L725.258 889.4H554.877L519.011 854.554L502.385 757.618Z" fill="black"/>
<path d="M615.136 907.262C615.136 907.262 579.647 892.204 560.257 881.123C540.868 870.043 474.38 811.876 443.893 839.577C413.42 867.279 504.394 932.308 576.654 927.482C648.913 922.656 615.136 907.262 615.136 907.262Z" fill="url(#paint16_linear)"/>
<path d="M576.883 919.892C576.883 919.892 574.119 961.438 587.966 961.438C601.814 961.438 653.457 950.358 713.513 940.665C773.583 930.973 845.613 881.11 817.904 856.185C769.659 812.779 701.553 883.887 576.883 919.892Z" fill="url(#paint17_linear)"/>
<path d="M608.232 810.878C606.21 809.341 603.378 809.274 601.275 810.689C595.692 814.45 585.822 823.28 596.205 833.673C609.068 846.506 621.918 821.244 608.232 810.878Z" fill="white"/>
<path d="M614.826 811.08C619.802 816.054 624.777 807.643 621.312 802.723C620.071 800.957 617.509 800.741 615.837 802.116C613.532 804.017 611.037 807.306 614.826 811.08Z" fill="white"/>
<path d="M564.828 517.306C564.828 517.306 587.966 543.215 618.439 548.755C648.913 554.296 654.454 570.917 662.76 595.842C671.565 622.249 671.066 651.232 690.469 667.853C709.859 684.474 696.389 704.371 696.389 704.371C696.389 704.371 720.943 687.238 701.553 662.313C682.163 637.388 698.789 595.842 693.247 576.457C688.622 560.254 704.331 515.527 657.232 493.365C610.12 471.204 591.553 483.08 564.828 517.306Z" fill="black"/>
<path d="M680.613 531.609C680.613 531.609 693.247 580.731 698.789 592.162C705.801 606.626 718.179 609.309 718.179 626.455C718.179 643.602 725.311 661.396 732.053 674.876C732.053 674.876 709.131 660.048 702.389 660.048C691.494 660.048 674.343 608.985 674.1 607.718C673.844 606.451 680.613 531.609 680.613 531.609Z" fill="black"/>
</g>
<defs>
<linearGradient id="paint0_linear" x1="-8" y1="861.008" x2="711.815" y2="861.008" gradientUnits="userSpaceOnUse">
<stop stop-color="#FFCFDD"/>
<stop offset="0.2587" stop-color="#FD86AA"/>
</linearGradient>
<linearGradient id="paint1_linear" x1="-8" y1="935.49" x2="856" y2="935.49" gradientUnits="userSpaceOnUse">
<stop stop-color="#FD86AA"/>
<stop offset="0.6571" stop-color="#DF6488"/>
</linearGradient>
<linearGradient id="paint2_linear" x1="-5.51891" y1="363.398" x2="586.215" y2="363.398" gradientUnits="userSpaceOnUse">
<stop stop-color="#A8E3F9"/>
<stop offset="0.2587" stop-color="#22BBEE"/>
</linearGradient>
<linearGradient id="paint3_linear" x1="102.765" y1="775.99" x2="256.272" y2="775.99" gradientUnits="userSpaceOnUse">
<stop stop-color="#A8E3F9"/>
<stop offset="0.0112" stop-color="#A6E2F9"/>
<stop offset="0.2443" stop-color="#77D4F5"/>
<stop offset="0.4668" stop-color="#52C9F2"/>
<stop offset="0.6729" stop-color="#38C1F0"/>
<stop offset="0.8568" stop-color="#28BDEE"/>
<stop offset="1" stop-color="#22BBEE"/>
</linearGradient>
<linearGradient id="paint4_linear" x1="495.699" y1="493.824" x2="565.607" y2="493.824" gradientUnits="userSpaceOnUse">
<stop stop-color="#A8E3F9"/>
<stop offset="0.0112" stop-color="#A6E2F9"/>
<stop offset="0.2443" stop-color="#77D4F5"/>
<stop offset="0.4668" stop-color="#52C9F2"/>
<stop offset="0.6729" stop-color="#38C1F0"/>
<stop offset="0.8568" stop-color="#28BDEE"/>
<stop offset="1" stop-color="#22BBEE"/>
</linearGradient>
<linearGradient id="paint5_linear" x1="496.356" y1="398.483" x2="520.675" y2="398.483" gradientUnits="userSpaceOnUse">
<stop stop-color="#A8E3F9"/>
<stop offset="0.0112" stop-color="#A6E2F9"/>
<stop offset="0.2443" stop-color="#77D4F5"/>
<stop offset="0.4668" stop-color="#52C9F2"/>
<stop offset="0.6729" stop-color="#38C1F0"/>
<stop offset="0.8568" stop-color="#28BDEE"/>
<stop offset="1" stop-color="#22BBEE"/>
</linearGradient>
<linearGradient id="paint6_linear" x1="207.152" y1="809.085" x2="250.324" y2="809.085" gradientUnits="userSpaceOnUse">
<stop stop-color="#A8E3F9"/>
<stop offset="0.0112" stop-color="#A6E2F9"/>
<stop offset="0.2443" stop-color="#77D4F5"/>
<stop offset="0.4668" stop-color="#52C9F2"/>
<stop offset="0.6729" stop-color="#38C1F0"/>
<stop offset="0.8568" stop-color="#28BDEE"/>
<stop offset="1" stop-color="#22BBEE"/>
</linearGradient>
<linearGradient id="paint7_linear" x1="303.023" y1="612.336" x2="440.804" y2="612.336" gradientUnits="userSpaceOnUse">
<stop stop-color="#FEF0C3"/>
<stop offset="0.6571" stop-color="#FDDA68"/>
</linearGradient>
<linearGradient id="paint8_linear" x1="266.852" y1="627.012" x2="432.702" y2="627.012" gradientUnits="userSpaceOnUse">
<stop stop-color="#FD86AA"/>
<stop offset="0.6571" stop-color="#DF6488"/>
</linearGradient>
<linearGradient id="paint9_linear" x1="233.64" y1="623.694" x2="467.65" y2="623.694" gradientUnits="userSpaceOnUse">
<stop offset="0.233" stop-color="#FEF0C3"/>
<stop offset="0.8872" stop-color="#FDDA68"/>
</linearGradient>
<linearGradient id="paint10_linear" x1="106.396" y1="378.816" x2="242.21" y2="378.816" gradientUnits="userSpaceOnUse">
<stop stop-color="#FD86AA"/>
<stop offset="0.6571" stop-color="#DF6488"/>
</linearGradient>
<linearGradient id="paint11_linear" x1="182.739" y1="353.697" x2="435.723" y2="477.403" gradientUnits="userSpaceOnUse">
<stop offset="0.1605" stop-color="#FEF0C3"/>
<stop offset="1" stop-color="#FDDA68"/>
</linearGradient>
<linearGradient id="paint12_linear" x1="113.492" y1="469.696" x2="248.499" y2="469.696" gradientUnits="userSpaceOnUse">
<stop stop-color="#FD86AA"/>
<stop offset="0.6571" stop-color="#DF6488"/>
</linearGradient>
<linearGradient id="paint13_linear" x1="25.8383" y1="139.313" x2="261.459" y2="139.313" gradientUnits="userSpaceOnUse">
<stop stop-color="#FFCFDD"/>
<stop offset="1" stop-color="#FD86AA"/>
</linearGradient>
<linearGradient id="paint14_linear" x1="357.135" y1="228.041" x2="421.905" y2="228.041" gradientUnits="userSpaceOnUse">
<stop stop-color="#FD86AA"/>
<stop offset="1" stop-color="#DF6488"/>
</linearGradient>
<linearGradient id="paint15_linear" x1="585.467" y1="769.496" x2="752.206" y2="769.496" gradientUnits="userSpaceOnUse">
<stop stop-color="#FD8EAA"/>
<stop offset="0.4941" stop-color="#F07B9B"/>
<stop offset="1" stop-color="#DF6488"/>
</linearGradient>
<linearGradient id="paint16_linear" x1="437.849" y1="879.958" x2="623.018" y2="879.958" gradientUnits="userSpaceOnUse">
<stop offset="0.223" stop-color="#FDDA68"/>
<stop offset="0.4345" stop-color="#FCD865"/>
<stop offset="0.584" stop-color="#F7D25C"/>
<stop offset="0.7143" stop-color="#EFC74C"/>
<stop offset="0.8336" stop-color="#E4B936"/>
<stop offset="0.9444" stop-color="#D7A61A"/>
<stop offset="1" stop-color="#CE9A09"/>
</linearGradient>
<linearGradient id="paint17_linear" x1="576.651" y1="902.011" x2="824.02" y2="902.011" gradientUnits="userSpaceOnUse">
<stop stop-color="#FEF0C3"/>
<stop offset="0.6571" stop-color="#FDDA68"/>
</linearGradient>
<clipPath id="clip0">
<rect width="856" height="1072" fill="white" transform="translate(-8 -48)"/>
</clipPath>
</defs>
</svg>
