<svg width="798" height="1028" viewBox="0 0 798 1028" fill="none" xmlns="http://www.w3.org/2000/svg">
<rect width="797" height="1028" transform="translate(1)" fill="url(#paint0_linear)"/>
<path d="M0 699.748C0 699.748 246.515 636.407 440.708 781.645C634.901 926.884 652 1027 652 1027L1 1028L0 699.748Z" fill="url(#paint1_linear)"/>
<path d="M1 980.339C1 980.339 180.326 850 387.473 850C513.016 850 627.261 889.872 798 1028H1V980.339Z" fill="url(#paint2_linear)"/>
<path d="M0 700.194C0 700.194 40.756 768.473 91.1016 740.638C141.447 712.803 173.812 669.659 218.164 700.277C262.516 730.896 282.894 765.689 329.644 768.473C389.843 772.063 435.13 682.185 467.495 750.38C501.946 822.959 537.799 779.301 514.64 714.042C491.469 648.783 298.478 573.629 298.478 573.629L7.64774 504L0.40756 526.365L0 700.194Z" fill="#A8E3F9"/>
<path d="M525.327 732.935C525.327 732.935 534.682 629.483 483.651 605.208C432.619 580.933 437.224 552.612 427.759 485.181C418.294 417.75 469.386 359.989 382.802 270.751C297.749 183.091 368.21 143.995 296.534 49.5785C252.708 -8.15329 170.551 0.952449 116.244 0.358197C42.5873 -0.447788 0 0.358268 0 0.358268V630.636C0 630.636 77.8267 726.583 123.998 668.593C170.17 610.602 193.073 613.515 252.708 659.935C312.342 706.354 324.48 729.28 398.598 703.657C472.715 678.033 499.24 752.139 499.24 752.139C499.24 752.139 514.744 821.553 525.327 732.935Z" fill="url(#paint3_linear)"/>
<path d="M467.17 384.935C467.17 384.935 446.19 374.838 450.612 400.774C455.035 426.71 488.744 394.371 467.17 384.935Z" fill="#A8E3F9"/>
<path d="M267.479 796.5C271.039 801.771 271.106 808.754 267.439 813.944C263.191 819.956 254.899 825.995 238.88 823.973C210.456 820.401 238.273 753.175 267.479 796.5Z" fill="#A8E3F9"/>
<path d="M437.811 743C437.811 743 418.933 745.265 431.069 761.441C443.204 777.617 456.688 743.431 437.811 743Z" fill="#A8E3F9"/>
<path d="M225.073 775.68C225.073 775.68 178.095 790.899 175.79 819.909C173.484 848.918 104.933 893.942 95.4941 814.112C86.0555 734.269 214.717 708.279 234.767 728.621C254.818 748.962 254.022 767.349 225.073 775.68Z" fill="#A8E3F9"/>
<path d="M216.073 769.68C216.073 769.68 169.095 784.899 166.79 813.909C164.484 842.918 95.9327 887.942 86.4941 808.112C77.0555 728.269 205.717 702.279 225.767 722.621C245.818 742.962 245.009 761.349 216.073 769.68Z" fill="url(#paint4_linear)"/>
<path d="M466.905 441.642C466.905 441.642 430.499 486.127 461.512 545.44C492.524 604.753 534.661 581.23 512.912 551.87C491.162 522.51 475.144 483.431 479.782 455.123C484.421 426.814 466.905 441.642 466.905 441.642Z" fill="#A8E3F9"/>
<path d="M469.71 426.881C469.71 426.881 433.304 471.366 464.316 530.679C495.329 589.992 537.465 566.469 515.716 537.109C493.981 507.763 477.948 468.67 482.587 440.362C487.225 412.053 469.71 426.881 469.71 426.881Z" fill="url(#paint5_linear)"/>
<path d="M471.135 385.15C471.135 385.15 450.154 375.054 454.577 400.99C458.999 426.926 492.709 394.587 471.135 385.15Z" fill="url(#paint6_linear)"/>
<path d="M264.482 792.5C268.041 797.771 268.109 804.754 264.441 809.944C260.194 815.956 251.901 821.995 235.883 819.973C207.459 816.401 235.262 749.175 264.482 792.5Z" fill="url(#paint7_linear)"/>
<path d="M437.811 740C437.811 740 418.933 742.265 431.069 758.441C443.204 774.617 456.688 740.431 437.811 740Z" fill="#22BBEE"/>
<path d="M387.011 95.4729C387.011 95.4729 343.351 178.039 388.36 227.579C489.798 339.235 440.946 234.319 440.798 226.15C440.164 189.632 403.03 157.711 407.668 129.403C412.32 101.094 387.011 95.4729 387.011 95.4729Z" fill="#A8E3F9"/>
<path d="M388.08 99.4729C388.08 99.4729 362.259 149.646 393.271 208.959C424.284 268.272 493.253 297.632 444.671 215.389C419.268 172.387 411.137 143.958 411.542 118.642C412.351 68.4685 388.08 99.4729 388.08 99.4729Z" fill="#22BBEE"/>
<path d="M256.742 565.977C256.742 565.977 212.245 530.928 310.676 619.898C342.579 648.732 362.481 670.031 374.805 685.641C377.448 686.369 379.484 686.476 380.805 685.87C370.113 670.138 358.355 653.531 349.779 638.77C325.508 596.981 263.483 559.237 263.483 559.237C263.483 559.237 256.189 552.793 245.766 544.395C244.62 546.525 243.487 549.531 243.015 553.427C251.078 560.396 256.742 565.977 256.742 565.977Z" fill="url(#paint8_linear)"/>
<path d="M289.777 712.911C335.575 712.911 372.702 675.794 372.702 630.008C372.702 584.222 335.575 547.104 289.777 547.104C243.979 547.104 206.852 584.222 206.852 630.008C206.852 675.794 243.979 712.911 289.777 712.911Z" fill="url(#paint9_linear)"/>
<path d="M380.805 685.87C379.484 686.49 377.448 686.382 374.805 685.641C400.519 718.209 393.318 726.068 393.318 726.068C324.942 720.352 178.536 529.58 196.267 526.709C207.553 524.876 228.938 541.268 243.015 553.44C243.474 549.545 244.62 546.538 245.766 544.409C222.129 525.375 182.352 496.271 174.707 509.374C163.704 528.246 240.561 617.215 263.484 641.48C286.406 665.744 380.792 756.061 402.366 746.625C416.322 740.519 400.37 714.664 380.805 685.87Z" fill="url(#paint10_linear)"/>
<path d="M110.734 374.276C110.734 374.276 162.984 332.852 180.674 334.024C198.379 335.184 236.362 353.301 245.679 363.115C254.997 372.928 185.313 380.545 185.313 380.545C185.313 380.545 187.956 357.359 167.541 360.432C147.14 363.492 110.734 374.276 110.734 374.276Z" fill="url(#paint11_linear)"/>
<path d="M169.833 414.811C169.833 414.811 172.759 434.937 190.288 436.285C207.817 437.633 233.854 428.44 260.606 431.015C287.357 433.589 418.163 413.369 449.175 356.752C449.175 356.752 389.132 315.017 292.4 344.647C195.668 374.276 174.108 381.017 174.108 381.017C174.108 381.017 162.862 398.864 169.833 400.051C176.804 401.237 214.559 381.017 248.268 393.149C248.268 393.149 234.784 412.021 187.591 412.021C187.591 412.021 168.256 408.179 169.833 414.811Z" fill="url(#paint12_linear)"/>
<path d="M117.827 446.463C117.827 446.463 177.263 476.685 194.374 472.035C211.485 467.384 245.126 442.095 252.313 430.624C259.5 419.152 189.695 425.515 189.695 425.515C189.695 425.515 196.882 447.716 176.265 448.754C155.648 449.819 117.827 446.463 117.827 446.463Z" fill="url(#paint13_linear)"/>
<path d="M60.8442 409.325C60.8442 409.325 153.99 380.059 157.981 380.531C161.972 381.017 161.595 392.663 154.367 394.928C147.14 397.193 60.8442 409.325 60.8442 409.325Z" fill="#F7F8F8"/>
<path d="M15 432.241L101.741 414.812C101.741 414.812 112.11 417.979 105.354 423.762C98.599 429.545 15 432.241 15 432.241Z" fill="#F7F8F8"/>
<path d="M71.6313 441.677L155.23 425.501C155.23 425.501 164.305 425.501 163.145 432.241C161.986 438.981 71.6313 441.677 71.6313 441.677Z" fill="#F7F8F8"/>
<path d="M39.271 131.018L103.993 7L287.371 104.058L221.301 230.771L39.271 131.018Z" fill="#F7F8F8"/>
<path d="M45.0151 129.805L106.474 14.3196L280.629 104.691L217.876 222.683L45.0151 129.805Z" fill="url(#paint14_linear)"/>
<path d="M39.271 131.018L19.0454 148.542L222.649 253.688L221.301 230.771L39.271 131.018Z" fill="#EDEFEF"/>
<path d="M15 157.978L19.0451 148.542L222.649 253.688L215.907 264.472L15 157.978Z" fill="#C6C6C6"/>
<path d="M95.8083 157.088L156.876 40.4712L106.474 14.3196L45.0151 129.805L95.8083 157.088Z" fill="#FD86AA"/>
<path d="M106.69 36.6564C101.296 44.7445 90.5093 52.8326 98.5995 67.6609C106.69 82.4891 150.539 63.6168 134.008 52.1586C117.477 40.7005 115.94 22.7853 106.69 36.6564Z" fill="#F7F8F8"/>
<path d="M25.8334 538.545C25.8334 538.545 0.861564 568.821 21.0736 586.683C41.2857 604.544 71.9881 597.844 84.7033 568.417C84.7033 568.417 50.8322 590.12 36.7282 577.125C22.2737 563.807 23.4063 559.628 25.8334 538.545Z" fill="#F7F8F8"/>
<path d="M282.169 217.472C282.169 217.472 280.052 191.482 282.169 192.008C284.286 192.534 287.307 210.058 286.471 217.472C286.471 217.472 305.86 218.146 305.86 220.842C305.86 223.538 286.983 222.19 286.983 222.19C286.983 222.19 289.68 237.018 286.983 238.366C284.286 239.714 282.938 222.19 282.938 222.19C282.938 222.19 269.454 224.886 268.106 223.538C266.757 222.19 278.69 216.798 282.169 217.472Z" fill="#F7F8F8"/>
<path d="M36.1692 270.472C36.1692 270.472 34.0523 244.482 36.1692 245.008C38.2862 245.534 41.3065 263.058 40.4705 270.472C40.4705 270.472 59.8601 271.146 59.8601 273.842C59.8601 276.538 40.9829 275.19 40.9829 275.19C40.9829 275.19 43.6796 290.018 40.9829 291.366C38.2862 292.714 36.9378 275.19 36.9378 275.19C36.9378 275.19 23.4541 277.886 22.1057 276.538C20.7573 275.19 32.6904 269.798 36.1692 270.472Z" fill="#F7F8F8"/>
<path d="M265.382 260.089C265.382 260.089 264.128 244.695 265.382 245.005C266.636 245.315 268.415 255.694 267.93 260.089C267.93 260.089 279.418 260.493 279.418 262.084C279.418 263.675 268.24 262.879 268.24 262.879C268.24 262.879 269.831 271.655 268.24 272.464C266.649 273.259 265.84 262.879 265.84 262.879C265.84 262.879 257.858 264.47 257.062 263.675C256.267 262.879 263.332 259.685 265.382 260.089Z" fill="#F7F8F8"/>
<path d="M19.6038 301.711C19.6038 301.711 18.3498 286.317 19.6038 286.627C20.8578 286.937 22.6376 297.317 22.1522 301.711C22.1522 301.711 33.6403 302.115 33.6403 303.706C33.6403 305.297 22.4623 304.501 22.4623 304.501C22.4623 304.501 24.0534 313.277 22.4623 314.086C20.8713 314.881 20.0622 304.501 20.0622 304.501C20.0622 304.501 12.0799 306.092 11.2843 305.297C10.4888 304.501 17.5543 301.307 19.6038 301.711Z" fill="#F7F8F8"/>
<path d="M301.198 288.285C301.198 288.285 279.152 284.901 337.725 201.337C396.298 117.773 334.206 247.17 301.198 288.285Z" fill="url(#paint15_linear)"/>
<path d="M312.362 277.177C312.362 277.177 313.629 271.974 304.353 269.938C295.076 267.902 292.716 272.904 291.894 282.893C291.894 282.893 292.891 290.886 287.781 295.281C282.671 299.675 311.121 294.809 312.362 277.177Z" fill="#FDDA68"/>
<path d="M295.696 286.721C295.561 287.57 295.952 288.406 296.168 289.228C296.627 290.967 296.896 294.661 291.799 296.373C285.017 298.651 286.797 294.634 287.754 293.677C290.451 290.981 291.799 288.285 290.451 284.241C289.103 280.197 293.458 274.683 293.148 276.152C292.905 277.312 297.193 277.5 295.696 286.721Z" fill="#F7F8F8"/>
<path d="M324.807 491.728C324.807 491.728 322.69 465.738 324.807 466.264C326.924 466.789 329.945 484.314 329.109 491.728C329.109 491.728 348.498 492.402 348.498 495.098C348.498 497.794 329.621 496.446 329.621 496.446C329.621 496.446 332.318 511.274 329.621 512.622C326.924 513.97 325.576 496.446 325.576 496.446C325.576 496.446 312.092 499.142 310.744 497.794C309.395 496.446 321.342 491.054 324.807 491.728Z" fill="#F7F8F8"/>
<path d="M63.1691 627.472C63.1691 627.472 61.0522 601.482 63.1691 602.008C65.286 602.534 68.3064 620.058 67.4704 627.472C67.4704 627.472 86.86 628.146 86.86 630.842C86.86 633.538 67.9828 632.19 67.9828 632.19C67.9828 632.19 70.6795 647.018 67.9828 648.366C65.286 649.714 63.9377 632.19 63.9377 632.19C63.9377 632.19 50.454 634.886 49.1056 633.538C47.7572 632.19 59.7038 626.798 63.1691 627.472Z" fill="#F7F8F8"/>
<path d="M337.28 458.607C337.28 458.607 336.026 443.213 337.28 443.523C338.534 443.833 340.314 454.213 339.828 458.607C339.828 458.607 351.317 459.011 351.317 460.602C351.317 462.193 340.139 461.397 340.139 461.397C340.139 461.397 341.73 470.173 340.139 470.982C338.548 471.777 337.739 461.397 337.739 461.397C337.739 461.397 329.756 462.988 328.961 462.193C328.165 461.411 335.231 458.216 337.28 458.607Z" fill="#F7F8F8"/>
<path d="M66.2571 527.356C66.2571 527.356 65.0031 511.962 66.2571 512.272C67.5111 512.582 69.2909 522.962 68.8055 527.356C68.8055 527.356 80.2936 527.761 80.2936 529.351C80.2936 530.942 69.1156 530.147 69.1156 530.147C69.1156 530.147 70.7067 538.922 69.1156 539.731C67.5246 540.526 66.7156 530.147 66.7156 530.147C66.7156 530.147 58.7332 531.737 57.9377 530.942C57.1421 530.16 64.2076 526.965 66.2571 527.356Z" fill="#F7F8F8"/>
<path d="M516.654 969.669C516.654 969.669 480.868 1000.46 464.243 989.377C447.617 978.296 497.493 936.75 497.493 936.75C497.493 936.75 508.132 929.767 516.667 930.495C525.189 931.21 546.898 949.961 516.654 969.669Z" fill="black"/>
<path d="M520.968 883.166C520.968 883.166 474.193 874.081 467.398 870.427C460.588 866.774 547.167 925.103 547.167 925.103L640.34 897.684L520.968 883.166Z" fill="#CE9A09"/>
<path d="M541.343 662.401C541.343 662.401 505.786 673.616 511.328 753.945C516.87 834.273 522.411 814.875 522.411 814.875C522.411 814.875 551.968 678.887 541.343 662.401Z" fill="#FFCFDD"/>
<path d="M624.928 651.468C622.541 651.468 620.842 649.177 619.629 645.928H563.766C563.887 648.489 563.981 650.619 563.981 651.468C563.981 654.232 550.134 665.313 550.134 665.313C539.05 681.934 555.676 712.399 572.301 737.324C588.926 762.249 655.415 679.157 655.415 679.157C655.415 679.157 633.234 651.468 624.928 651.468Z" fill="#FFCFDD"/>
<path d="M588.684 896.781C588.684 896.781 543.284 891.241 533.509 884.123C523.733 877.006 536.273 856.421 536.273 820.416C536.273 784.41 532.201 753.352 532.201 753.352C532.201 753.352 517.045 732.04 532.201 709.757C547.356 687.461 541.815 665.313 541.815 665.313C541.815 665.313 547.356 651.468 552.898 659.772C558.44 668.076 550.134 701.318 575.065 706.859C599.997 712.399 624.928 670.853 627.706 654.232C630.47 637.611 647.095 659.772 641.554 665.313C636.012 670.853 627.706 726.243 674.804 740.101C674.804 740.101 705.075 844.694 685.794 853.334C666.485 861.962 610.608 898.358 588.684 896.781Z" fill="url(#paint16_linear)"/>
<path d="M641.553 662.549C641.553 662.549 713.839 679.224 707.098 768.194C701.623 840.474 584.733 835.19 584.733 835.19L588.899 814.889C588.899 814.889 669.33 819.418 674.777 740.101C674.777 740.101 654.498 737.189 644.304 723.48C636.038 712.372 633.22 698.555 635.998 679.17C638.776 659.772 641.553 662.549 641.553 662.549Z" fill="#FFCFDD"/>
<path d="M516.883 515.75C516.02 536.617 516.209 511.463 512.919 511.382C507.39 511.247 499.92 515.264 499.92 537.911C499.92 573.917 483.767 571.153 489.147 596.078C494.527 621.003 509.548 633.782 510.128 650.943C510.694 668.09 486.464 695.791 508.011 717.953C529.558 740.114 510.128 740.721 510.128 740.721C510.128 740.721 524.164 751.195 524.164 715.189C524.164 690.494 544.214 676.151 556.795 669.586C562.417 666.647 566.759 659.799 563.752 629.28L516.883 515.75Z" fill="black"/>
<path d="M616.609 626.543L569.51 510.209C569.51 510.209 500.244 482.508 503.022 543.452C505.786 604.382 511.328 609.922 522.411 629.307C533.495 648.691 563.011 634.888 563.011 634.888C563.011 634.888 563.685 653.962 563.968 659.772L619.615 648.691C616.622 640.617 616.609 626.543 616.609 626.543Z" fill="#FFCFDD"/>
<path d="M599.996 770.566L611.08 734.56C611.08 734.56 616.622 729.02 619.386 737.324L602.761 803.795L594.455 792.714L599.996 770.566Z" fill="white"/>
<path d="M442.385 760.618H632.398L665.258 892.4H494.877L459.011 857.554L442.385 760.618Z" fill="black"/>
<path d="M555.136 910.262C555.136 910.262 519.647 895.204 500.257 884.123C480.868 873.043 414.38 814.876 383.893 842.577C353.42 870.279 444.394 935.308 516.654 930.482C588.913 925.656 555.136 910.262 555.136 910.262Z" fill="url(#paint17_linear)"/>
<path d="M516.883 922.892C516.883 922.892 514.119 964.438 527.966 964.438C541.814 964.438 593.457 953.358 653.513 943.665C713.583 933.973 785.613 884.11 757.904 859.185C709.659 815.779 641.553 886.887 516.883 922.892Z" fill="url(#paint18_linear)"/>
<path d="M548.233 813.878C546.21 812.341 543.379 812.274 541.275 813.689C535.693 817.45 525.823 826.28 536.205 836.673C549.069 849.506 561.919 824.244 548.233 813.878Z" fill="white"/>
<path d="M554.826 814.08C559.802 819.054 564.777 810.643 561.312 805.723C560.071 803.957 557.509 803.741 555.837 805.116C553.532 807.017 551.037 810.306 554.826 814.08Z" fill="white"/>
<path d="M504.828 520.306C504.828 520.306 527.966 546.215 558.439 551.755C588.913 557.296 594.454 573.917 602.76 598.842C611.565 625.249 611.066 654.232 630.469 670.853C649.859 687.474 636.389 707.371 636.389 707.371C636.389 707.371 660.943 690.238 641.553 665.313C622.163 640.388 638.789 598.842 633.247 579.457C628.622 563.254 644.331 518.527 597.232 496.365C550.12 474.204 531.553 486.08 504.828 520.306Z" fill="black"/>
<path d="M620.613 534.608C620.613 534.608 633.247 583.73 638.789 595.162C645.801 609.626 658.179 612.308 658.179 629.455C658.179 646.602 665.311 664.396 672.053 677.876C672.053 677.876 649.131 663.048 642.389 663.048C631.494 663.048 614.343 611.985 614.1 610.718C613.844 609.45 620.613 534.608 620.613 534.608Z" fill="black"/>
<defs>
<linearGradient id="paint0_linear" x1="398.5" y1="0" x2="398.5" y2="1028" gradientUnits="userSpaceOnUse">
<stop stop-color="#4666DA"/>
<stop offset="1" stop-color="#D53DD8"/>
</linearGradient>
<linearGradient id="paint1_linear" x1="-3.13019e-06" y1="856.504" x2="652" y2="856.504" gradientUnits="userSpaceOnUse">
<stop stop-color="#FFCFDD"/>
<stop offset="0.2587" stop-color="#FD86AA"/>
</linearGradient>
<linearGradient id="paint2_linear" x1="1" y1="938.99" x2="798" y2="938.99" gradientUnits="userSpaceOnUse">
<stop stop-color="#FD86AA"/>
<stop offset="0.6571" stop-color="#DF6488"/>
</linearGradient>
<linearGradient id="paint3_linear" x1="-7.22598" y1="366.417" x2="525.996" y2="366.417" gradientUnits="userSpaceOnUse">
<stop stop-color="#A8E3F9"/>
<stop offset="0.2587" stop-color="#22BBEE"/>
</linearGradient>
<linearGradient id="paint4_linear" x1="85.9912" y1="784.52" x2="239.499" y2="784.52" gradientUnits="userSpaceOnUse">
<stop stop-color="#A8E3F9"/>
<stop offset="0.0112" stop-color="#A6E2F9"/>
<stop offset="0.2443" stop-color="#77D4F5"/>
<stop offset="0.4668" stop-color="#52C9F2"/>
<stop offset="0.6729" stop-color="#38C1F0"/>
<stop offset="0.8568" stop-color="#28BDEE"/>
<stop offset="1" stop-color="#22BBEE"/>
</linearGradient>
<linearGradient id="paint5_linear" x1="451.805" y1="495.227" x2="521.713" y2="495.227" gradientUnits="userSpaceOnUse">
<stop stop-color="#A8E3F9"/>
<stop offset="0.0112" stop-color="#A6E2F9"/>
<stop offset="0.2443" stop-color="#77D4F5"/>
<stop offset="0.4668" stop-color="#52C9F2"/>
<stop offset="0.6729" stop-color="#38C1F0"/>
<stop offset="0.8568" stop-color="#28BDEE"/>
<stop offset="1" stop-color="#22BBEE"/>
</linearGradient>
<linearGradient id="paint6_linear" x1="453.968" y1="397.032" x2="478.287" y2="397.032" gradientUnits="userSpaceOnUse">
<stop stop-color="#A8E3F9"/>
<stop offset="0.0112" stop-color="#A6E2F9"/>
<stop offset="0.2443" stop-color="#77D4F5"/>
<stop offset="0.4668" stop-color="#52C9F2"/>
<stop offset="0.6729" stop-color="#38C1F0"/>
<stop offset="0.8568" stop-color="#28BDEE"/>
<stop offset="1" stop-color="#22BBEE"/>
</linearGradient>
<linearGradient id="paint7_linear" x1="223.995" y1="799.186" x2="267.167" y2="799.186" gradientUnits="userSpaceOnUse">
<stop stop-color="#A8E3F9"/>
<stop offset="0.0112" stop-color="#A6E2F9"/>
<stop offset="0.2443" stop-color="#77D4F5"/>
<stop offset="0.4668" stop-color="#52C9F2"/>
<stop offset="0.6729" stop-color="#38C1F0"/>
<stop offset="0.8568" stop-color="#28BDEE"/>
<stop offset="1" stop-color="#22BBEE"/>
</linearGradient>
<linearGradient id="paint8_linear" x1="243.023" y1="615.336" x2="380.804" y2="615.336" gradientUnits="userSpaceOnUse">
<stop stop-color="#FEF0C3"/>
<stop offset="0.6571" stop-color="#FDDA68"/>
</linearGradient>
<linearGradient id="paint9_linear" x1="206.852" y1="630.012" x2="372.702" y2="630.012" gradientUnits="userSpaceOnUse">
<stop stop-color="#FD86AA"/>
<stop offset="0.6571" stop-color="#DF6488"/>
</linearGradient>
<linearGradient id="paint10_linear" x1="173.64" y1="626.694" x2="407.65" y2="626.694" gradientUnits="userSpaceOnUse">
<stop offset="0.233" stop-color="#FEF0C3"/>
<stop offset="0.8872" stop-color="#FDDA68"/>
</linearGradient>
<linearGradient id="paint11_linear" x1="110.735" y1="357.27" x2="246.548" y2="357.27" gradientUnits="userSpaceOnUse">
<stop stop-color="#FD86AA"/>
<stop offset="0.6571" stop-color="#DF6488"/>
</linearGradient>
<linearGradient id="paint12_linear" x1="187.077" y1="332.151" x2="440.062" y2="455.857" gradientUnits="userSpaceOnUse">
<stop offset="0.1605" stop-color="#FEF0C3"/>
<stop offset="1" stop-color="#FDDA68"/>
</linearGradient>
<linearGradient id="paint13_linear" x1="117.831" y1="448.15" x2="252.838" y2="448.15" gradientUnits="userSpaceOnUse">
<stop stop-color="#FD86AA"/>
<stop offset="0.6571" stop-color="#DF6488"/>
</linearGradient>
<linearGradient id="paint14_linear" x1="45.0092" y1="118.501" x2="280.63" y2="118.501" gradientUnits="userSpaceOnUse">
<stop stop-color="#FFCFDD"/>
<stop offset="1" stop-color="#FD86AA"/>
</linearGradient>
<linearGradient id="paint15_linear" x1="297.135" y1="231.041" x2="361.905" y2="231.041" gradientUnits="userSpaceOnUse">
<stop stop-color="#FD86AA"/>
<stop offset="1" stop-color="#DF6488"/>
</linearGradient>
<linearGradient id="paint16_linear" x1="525.467" y1="772.495" x2="692.207" y2="772.495" gradientUnits="userSpaceOnUse">
<stop stop-color="#FD8EAA"/>
<stop offset="0.4941" stop-color="#F07B9B"/>
<stop offset="1" stop-color="#DF6488"/>
</linearGradient>
<linearGradient id="paint17_linear" x1="377.849" y1="882.958" x2="563.018" y2="882.958" gradientUnits="userSpaceOnUse">
<stop offset="0.223" stop-color="#FDDA68"/>
<stop offset="0.4345" stop-color="#FCD865"/>
<stop offset="0.584" stop-color="#F7D25C"/>
<stop offset="0.7143" stop-color="#EFC74C"/>
<stop offset="0.8336" stop-color="#E4B936"/>
<stop offset="0.9444" stop-color="#D7A61A"/>
<stop offset="1" stop-color="#CE9A09"/>
</linearGradient>
<linearGradient id="paint18_linear" x1="516.651" y1="905.011" x2="764.02" y2="905.011" gradientUnits="userSpaceOnUse">
<stop stop-color="#FEF0C3"/>
<stop offset="0.6571" stop-color="#FDDA68"/>
</linearGradient>
</defs>
</svg>
