<svg width="845" height="1030" viewBox="0 0 845 1030" fill="none" xmlns="http://www.w3.org/2000/svg">
<path d="M0.5 0H720.5V1024H0.5V0Z" fill="url(#paint0_linear)"/>
<path d="M713.1 398.427C693.738 379.056 691.87 438.751 682.399 456.337C674.064 471.826 599.657 468.674 571.228 426.807C542.8 384.954 530.351 461.071 550.039 476.871C569.726 492.671 678.881 520.524 696.647 483.486C714.413 446.448 722.653 408.004 713.1 398.427Z" fill="#A8E3F9"/>
<path d="M708.554 389.161C689.191 369.776 687.324 429.485 677.852 447.071C669.517 462.559 595.111 459.408 566.682 417.541C538.253 375.688 525.805 451.805 545.492 467.605C565.18 483.405 674.334 511.257 692.101 474.22C709.88 437.169 718.121 398.724 708.554 389.161Z" fill="url(#paint1_linear)"/>
<path d="M1.5 716.183C1.5 716.183 268.432 655.443 478.709 794.719C688.985 933.994 707.5 1030 707.5 1030L0 1023L1.5 716.183Z" fill="url(#paint2_linear)"/>
<path d="M0.5 984.749C0.5 984.749 190.401 861 409.764 861C542.711 861 663.692 898.856 844.5 1030H0.5V984.749Z" fill="url(#paint3_linear)"/>
<path d="M11.845 11.2908C11.845 11.2908 -30.6828 141.152 49.1499 193.909C128.983 246.665 168.209 242.025 178.371 318.075C188.532 394.125 266.998 426.577 298.12 410.344C329.241 394.112 491.599 324.23 546.399 378.785C601.2 433.341 655.337 453.631 674.281 403.581C693.224 353.53 714.873 342.816 715.55 323.148C716.227 303.479 715.55 11.2908 715.55 11.2908H11.845Z" fill="#A8E3F9"/>
<path d="M17.8111 0C17.8111 0 -24.6976 127.116 55.0992 178.757C134.896 230.398 174.105 225.856 184.262 300.298C194.419 374.741 272.85 406.506 303.957 390.617C335.064 374.727 497.349 306.323 552.125 359.725C606.901 413.127 661.014 432.989 679.949 383.996C698.883 335.004 720.523 324.517 721.199 305.264C721.876 286.011 721.199 0 721.199 0H17.8111Z" fill="url(#paint4_linear)"/>
<path d="M17.6906 367.448C8.1377 353.326 2.4141 337.972 3.67248 329.18C5.13383 319.007 12.6029 311.675 38.0547 327.516C83.1804 355.598 96.0755 483.377 17.6906 367.448Z" fill="#A8E3F9"/>
<path d="M24.1583 365.135C14.6055 351.013 8.88187 335.659 10.1403 326.866C11.6016 316.694 19.0707 309.362 44.5224 325.203C89.6482 353.285 102.543 481.05 24.1583 365.135Z" fill="url(#paint5_linear)"/>
<path d="M63.3303 144.818C63.3303 144.818 63.3032 156.425 67.579 156.655C71.8548 156.885 82.8149 156.249 76.4554 140.665C70.0958 125.082 62.1802 144.913 62.1802 144.913L63.3303 144.818Z" fill="black"/>
<path d="M68.4992 64.6558C60.773 58.8391 50.3677 58.1492 41.559 62.1262C28.9211 67.8212 11.412 81.1726 31.6138 107.632C60.7459 145.792 57.9991 139.651 57.9991 139.651L78.458 134.01C78.458 134.01 81.1236 101.68 80.8259 92.6707C80.5959 86.1506 79.1075 72.6504 68.4992 64.6558Z" fill="url(#paint6_linear)"/>
<path d="M57.9987 139.651C57.9987 139.651 55.1707 147.172 60.4749 148.646C65.779 150.121 91.0684 143.154 78.444 134.01C78.4575 134.01 68.0116 132.684 57.9987 139.651Z" fill="#F7F8F8"/>
<path d="M30.1656 60.0295C30.1656 60.0295 7.42007 11.372 18.5831 20.4758C29.7462 29.5797 30.1656 60.0295 30.1656 60.0295Z" fill="#F7F8F8"/>
<path d="M64.9131 53.6717C64.9131 53.6717 77.551 1.47005 80.5819 15.5519C83.6264 29.6202 64.9131 53.6717 64.9131 53.6717Z" fill="#F7F8F8"/>
<path d="M415.555 156.682L491.152 31.5682C491.152 31.5682 556.561 42.4035 574.151 80.2798L492.965 197.967L415.555 156.682Z" fill="white"/>
<path d="M433.429 146.563L492.965 43.7562C492.965 43.7562 533.91 41.3619 566.209 81.1049L494.846 180.084L433.429 146.563Z" fill="#FFCFDD"/>
<path d="M452.657 128.64C456.879 125.095 462.927 124.757 467.785 127.341C477.73 132.617 500.624 145.062 503.777 149.269C507.836 154.679 499.718 168.207 491.599 165.501C485.537 163.486 464.361 150.878 454.037 144.642C448.598 141.355 447.407 133.739 451.94 129.275C452.17 129.059 452.413 128.842 452.657 128.64Z" fill="url(#paint7_linear)"/>
<path d="M502.437 64.047C502.437 64.047 484.563 67.4694 494.846 80.645C505.13 93.8205 493.764 99.0691 504.873 98.4739C515.968 97.8787 534.911 104.642 532.205 88.4096C529.499 72.1769 518.674 62.6943 502.437 64.047Z" fill="white"/>
<path d="M380.131 22.2615C380.131 22.2615 355.071 52.6437 375.354 70.5672C395.637 88.4773 426.447 81.7678 439.207 52.2378C439.207 52.2378 405.217 74.0167 391.064 60.9764C376.559 47.6115 377.682 43.4045 380.131 22.2615Z" fill="#F7F8F8"/>
<path d="M356.763 111.893C356.763 111.893 354.638 85.8124 356.763 86.3399C358.887 86.8675 361.918 104.453 361.079 111.893C361.079 111.893 380.537 112.569 380.537 115.275C380.537 117.98 361.593 116.627 361.593 116.627C361.593 116.627 364.3 131.507 361.593 132.86C358.887 134.213 357.534 116.627 357.534 116.627C357.534 116.627 344.003 119.333 342.65 117.98C341.297 116.627 353.272 111.217 356.763 111.893Z" fill="#F7F8F8"/>
<path d="M419.911 19.1416C419.911 19.1416 418.653 3.69351 419.911 4.00464C421.169 4.31576 422.969 14.7317 422.468 19.1416C422.468 19.1416 433.997 19.5474 433.997 21.1436C433.997 22.7399 422.78 21.9418 422.78 21.9418C422.78 21.9418 424.376 30.748 422.78 31.5596C421.183 32.3577 420.371 21.9418 420.371 21.9418C420.371 21.9418 412.361 23.538 411.562 22.7399C410.764 21.9418 417.854 18.7358 419.911 19.1416Z" fill="#F7F8F8"/>
<path d="M396.449 313.963C396.449 313.963 394.325 287.882 396.449 288.41C398.574 288.937 401.605 306.523 400.766 313.963C400.766 313.963 420.223 314.639 420.223 317.345C420.223 320.05 401.28 318.697 401.28 318.697C401.28 318.697 403.986 333.577 401.28 334.93C398.574 336.283 397.22 318.697 397.22 318.697C397.22 318.697 383.69 321.403 382.336 320.05C380.983 318.697 392.972 313.286 396.449 313.963Z" fill="#F7F8F8"/>
<path d="M372.431 279.374C372.431 279.374 371.173 263.925 372.431 264.237C373.69 264.548 375.476 274.964 374.989 279.374C374.989 279.374 386.517 279.779 386.517 281.376C386.517 282.972 375.3 282.174 375.3 282.174C375.3 282.174 376.897 290.98 375.3 291.792C373.703 292.59 372.892 282.174 372.892 282.174C372.892 282.174 364.881 283.77 364.083 282.972C363.285 282.174 370.375 278.968 372.431 279.374Z" fill="#F7F8F8"/>
<path d="M579.117 155.694C579.117 155.694 576.993 129.614 579.117 130.141C581.242 130.669 584.272 148.254 583.434 155.694C583.434 155.694 602.891 156.371 602.891 159.076C602.891 161.781 583.948 160.429 583.948 160.429C583.948 160.429 586.654 175.309 583.948 176.661C581.242 178.014 579.888 160.429 579.888 160.429C579.888 160.429 566.358 163.134 565.004 161.781C563.651 160.429 575.64 155.018 579.117 155.694Z" fill="#F7F8F8"/>
<path d="M552.393 186.036C552.393 186.036 551.135 170.588 552.393 170.899C553.652 171.21 555.438 181.626 554.951 186.036C554.951 186.036 566.479 186.441 566.479 188.038C566.479 189.634 555.262 188.836 555.262 188.836C555.262 188.836 556.859 197.642 555.262 198.454C553.665 199.252 552.853 188.836 552.853 188.836C552.853 188.836 544.843 190.432 544.045 189.634C543.246 188.836 550.337 185.63 552.393 186.036Z" fill="#F7F8F8"/>
<path d="M146.424 126.218C146.424 126.218 144.299 100.138 146.424 100.665C148.548 101.193 151.579 118.778 150.74 126.218C150.74 126.218 170.198 126.895 170.198 129.6C170.198 132.306 151.254 130.953 151.254 130.953C151.254 130.953 153.961 145.833 151.254 147.185C148.548 148.538 147.195 130.953 147.195 130.953C147.195 130.953 133.664 133.658 132.311 132.306C130.958 130.953 142.946 125.542 146.424 126.218Z" fill="#F7F8F8"/>
<path d="M122.42 91.6291C122.42 91.6291 121.161 76.181 122.42 76.4921C123.678 76.8033 125.464 87.2192 124.977 91.6291C124.977 91.6291 136.506 92.0349 136.506 93.6311C136.506 95.2273 125.288 94.4292 125.288 94.4292C125.288 94.4292 126.885 103.235 125.288 104.047C123.692 104.845 122.88 94.4292 122.88 94.4292C122.88 94.4292 114.87 96.0255 114.071 95.2273C113.259 94.4292 120.35 91.2368 122.42 91.6291Z" fill="#F7F8F8"/>
<path d="M397.762 436.79C381.349 441.389 364.963 441.971 357.02 437.994C347.833 433.395 343.218 423.993 366.289 404.852C407.193 370.926 532.53 399.036 397.762 436.79Z" fill="#A8E3F9"/>
<path d="M397.599 429.932C381.186 434.531 364.8 435.113 356.857 431.136C347.67 426.536 343.056 417.135 366.126 397.994C407.044 364.054 532.381 392.177 397.599 429.932Z" fill="url(#paint8_linear)"/>
<path d="M727.484 926.746C727.484 926.746 760.851 945.86 755.047 977.771C749.242 1009.68 781.162 960.375 772.448 940.071L737.632 911.068C737.646 911.055 714.44 922.134 727.484 926.746Z" fill="#FFCFDD"/>
<path d="M539.634 954.41C539.634 954.41 549.065 983.575 546.169 992.273C543.274 1000.97 520.054 1003.88 528.768 1006.77C537.469 1009.67 578.089 1003.88 575.193 992.273C572.27 980.666 570.809 913.639 539.634 954.41Z" fill="#FFCFDD"/>
<path d="M641.901 577.513C633.2 554.314 633.498 541.802 621.509 517.033C616.3 503.533 609.697 493.009 601.267 485.122C601.362 485.244 601.605 485.555 601.957 486.056C606.179 492.021 626.814 525.677 621.604 606.529C621.604 606.529 631.955 626.536 620.698 651.264C620.643 651.399 620.603 651.548 620.535 651.683C609.995 676.141 612.755 696.648 621.523 695.092C621.536 695.092 621.55 695.092 621.55 695.079C622.47 694.849 623.458 694.362 624.5 693.537L633.105 681.254C635.054 677.71 637.584 673.665 641.454 669.323C653.51 655.823 660.37 626.739 641.901 577.513Z" fill="#DF6488"/>
<path d="M620.522 651.657C620.576 651.521 620.63 651.373 620.684 651.237C620.062 652.59 619.426 653.956 618.668 655.336C609.061 672.962 612.525 697.176 621.51 695.066C612.742 696.621 609.995 676.127 620.522 651.657Z" fill="#EA6E97"/>
<path d="M601.254 485.096C601.497 485.42 601.714 485.718 601.958 486.043C601.606 485.542 601.362 485.231 601.267 485.109C601.267 485.109 601.254 485.109 601.254 485.096Z" fill="#EA6E97"/>
<path d="M495.388 631.163C495.388 631.163 576.627 642.769 605.638 636.966C605.638 636.966 631.753 665.968 628.843 741.383C625.948 816.797 724.589 857.406 747.794 906.713C747.794 906.713 730.393 929.912 718.784 929.912C707.174 929.912 599.833 834.193 582.432 787.795C582.432 787.795 565.031 738.488 562.122 709.486L559.227 825.509C559.227 825.509 559.227 845.813 562.122 857.419C565.018 869.026 576.627 900.923 573.732 950.23C573.732 950.23 556.331 958.928 533.112 953.125C533.112 953.125 492.492 844.311 495.401 740.639C498.31 636.966 495.388 631.163 495.388 631.163Z" fill="url(#paint9_linear)"/>
<path d="M757.956 1003.88C757.956 1003.88 795.667 951.677 784.071 945.874C772.461 940.071 772.461 937.176 769.565 940.071C766.67 942.966 764.951 967.856 755.656 972.82C746.346 977.771 749.255 1015.47 757.956 1003.88Z" fill="black"/>
<path d="M575.329 1009.78C575.329 1009.78 557.779 1012.58 543.274 1018.38C528.769 1024.18 499.758 1027.08 514.263 1012.58C528.769 998.076 538.578 1009.53 551.081 1000.9C563.584 992.273 575.193 986.469 575.193 992.273C575.18 998.076 581.269 1006.98 575.329 1009.78Z" fill="black"/>
<path d="M621.591 606.516C621.591 606.516 630.927 626.97 620.684 651.251C631.955 626.51 621.591 606.516 621.591 606.516Z" fill="#DF6488"/>
<path d="M601.213 485.042C601.226 485.069 601.24 485.082 601.254 485.109L601.267 485.123C601.24 485.069 601.213 485.042 601.213 485.042Z" fill="#DF6488"/>
<path d="M633.106 681.241L641.455 669.31C637.571 673.652 635.054 677.697 633.106 681.241Z" fill="#EA6E97"/>
<path d="M601.957 486.043C601.714 485.718 601.497 485.42 601.254 485.096C587.75 472.475 569.523 466.55 544.721 465.846C493.953 464.399 482.343 354.179 481.004 348.376C479.664 342.573 453.333 348.376 453.333 348.376C453.333 348.376 459.138 386.076 462.033 429.593C464.929 473.111 490.462 519.509 490.462 519.509C490.462 519.509 496.849 539.8 488.148 580.409C479.448 621.017 495.252 619.245 495.252 619.245C493.655 626.171 495.401 631.163 495.401 631.163C566.479 647.111 598.399 638.413 605.651 636.966C612.904 635.519 612.904 623.912 612.904 623.912C616.043 623.912 618.032 622.871 619.304 621.531C619.304 621.531 621.604 612.319 621.604 606.516C626.814 525.664 606.165 492.008 601.957 486.043Z" fill="url(#paint10_linear)"/>
<path d="M495.239 619.245C495.239 619.245 493.94 623.912 495.388 631.163C496.835 638.413 586.776 647.112 605.638 636.966C605.638 636.966 615.786 632.61 612.891 623.912C612.891 623.912 580.687 634.869 495.239 619.245Z" fill="#DF6488"/>
<path d="M477.039 346.049C477.039 346.049 476.525 328.072 473.63 304.872C470.734 281.673 479.434 270.067 479.434 255.566C479.434 241.064 479.434 233.002 479.434 233.002C479.434 233.002 475.348 237.223 473.034 252.197C470.721 267.172 444.619 249.762 447.515 270.067C450.411 290.371 459.125 296.174 456.215 313.57C453.32 330.966 456.215 351.271 456.215 351.271C456.215 351.271 477.554 361.119 477.039 346.049Z" fill="#FFCFDD"/>
<path d="M533.789 463.709C533.789 463.709 530.487 531.115 490.449 519.509C490.449 519.509 466.134 476.127 461.181 418.055C456.229 359.982 453.32 348.376 453.32 348.376C453.32 348.376 465.159 362.877 480.991 348.376C481.004 348.376 491.044 444.095 533.789 463.709Z" fill="url(#paint11_linear)"/>
<path d="M573.732 950.216C573.732 950.216 554.87 960.362 533.112 953.111C533.112 953.111 488.148 831.244 495.401 740.625C495.388 740.639 517.159 951.664 573.732 950.216Z" fill="#FDE595"/>
<path d="M601.213 819.097C601.213 819.097 682.534 919.766 718.798 929.912C755.047 940.057 577.913 779.34 601.213 819.097Z" fill="#FDE595"/>
<path d="M625.948 707.254C625.948 707.254 623.282 716.29 622.443 733.916C621.604 751.542 625.19 792.34 650.953 803.852C650.953 803.852 627.396 768.951 628.857 741.396C630.305 713.828 627.382 694.863 625.948 707.254Z" fill="#EDC964"/>
<path d="M562.122 709.486C562.122 709.486 547.306 786.97 559.795 840.321C559.782 840.307 560.675 713.828 562.122 709.486Z" fill="#EDC964"/>
<path d="M479.434 244.054C479.434 244.054 475.876 245.096 477.662 235.829C479.448 226.563 479.434 232.542 479.434 244.054Z" fill="#DF6488"/>
<path d="M549.065 391.88C549.065 391.88 525.859 436.993 544.708 450.696C563.57 464.399 569.375 412.184 549.065 391.88Z" fill="#FFCFDD"/>
<path d="M601.213 379.178C601.213 379.178 628.14 382.167 625.948 426.455C624.5 455.701 609.995 452.793 609.995 476.005C609.995 499.218 607.099 489.384 607.099 505.008C607.099 516.614 602.986 514.923 598.399 519.509C595.503 522.404 601.294 531.115 601.294 531.115C601.294 531.115 591.944 524.014 595.489 516.614C597.925 511.528 602.471 506.834 601.294 502.113C601.294 502.113 595.408 491.602 598.399 484.717C598.399 484.717 601.294 490.52 604.203 505.021C605.638 512.164 592.594 513.53 592.594 519.523C592.594 534.024 579.807 539.827 575.193 539.827C572.947 539.827 581.309 528.058 578.089 522.431C575.68 518.224 578.089 510.825 569.388 507.93C558.036 504.142 560.417 450.425 561.662 433.178C563.583 406.408 549.078 391.907 549.078 391.907C549.078 391.907 542.597 389.702 563.245 379.205C583.88 368.68 601.213 379.178 601.213 379.178Z" fill="black"/>
<path d="M560.674 415.092C560.674 415.092 555.884 447.287 552.474 458.745C549.065 470.202 546.169 473.097 543.26 473.097C543.26 473.097 550.215 477.696 553.99 468.146C557.765 458.596 567.101 479.604 557.765 513.706C554.355 526.165 563.57 539.814 563.57 539.814C563.57 539.814 563.489 527.382 566.465 522.418C575.166 507.916 572.27 496.31 572.27 496.31L560.674 415.092Z" fill="black"/>
<path d="M610.604 471.42C610.604 471.42 609.995 481.795 615.8 493.401C621.604 505.008 615.8 512.421 615.8 515.965C615.8 519.509 621.604 525.312 622.443 525.015C622.443 525.015 605.218 530.02 604.704 517.507C604.19 504.994 610.604 471.42 610.604 471.42Z" fill="black"/>
<path d="M563.57 519.496C563.57 519.496 560.675 525.299 563.57 528.194C566.466 531.088 566.466 543.344 563.57 544.467C563.57 544.467 572.271 539.786 572.271 533.983C572.271 528.18 580.105 520.835 580.105 520.835C580.105 520.835 566.479 490.493 563.57 519.496Z" fill="black"/>
<path d="M558.442 466.442C558.442 466.442 558.793 471.109 549.579 477.899C540.364 484.704 549.579 493.117 549.579 493.117C549.579 493.117 546.155 485.204 551.96 482.052C557.765 478.9 562.284 472.258 562.284 472.258L558.442 466.442Z" fill="black"/>
<path d="M560.187 480.686C560.187 480.686 560.512 488.275 551.879 493.74C543.247 499.205 546.156 507.145 546.156 507.903C546.156 510.798 543.26 513.706 540.351 513.706C540.351 513.706 550.337 516.114 551.961 505.008C551.961 505.008 554.856 493.402 564.72 499.597C574.003 505.414 560.187 480.686 560.187 480.686Z" fill="black"/>
<path d="M550.986 463.655C550.986 463.655 554.91 466.848 556.345 471.42C557.779 475.992 549.539 484.122 555.113 493.117C560.688 502.1 557.779 513.706 557.779 513.706C557.779 513.706 587.709 445.515 550.986 463.655Z" fill="black"/>
<path d="M61.3276 237.196C61.3276 237.196 70.7993 281.836 122.217 285.894C153.501 288.369 140.037 409.316 202.05 418.461C284.589 430.635 322.611 455.877 272.411 454.984C196.637 453.631 119.998 453.659 106.9 392.096C93.802 330.534 27.4596 291.44 22.0878 289.952C-2.26791 283.188 -19.5605 166.367 61.3276 237.196Z" fill="#A8E3F9"/>
<path d="M58.6214 230.432C58.6214 230.432 85.6833 254.781 131.689 269.661C176.652 284.203 151.254 403.094 212.144 417.974C273.033 432.854 316.305 449.492 277.079 445.231C237.853 440.97 130.092 453.172 116.994 391.609C103.896 330.047 37.5536 290.953 32.1818 289.465C7.82611 282.701 -22.2668 159.603 58.6214 230.432Z" fill="url(#paint12_linear)"/>
<path d="M607.397 192.583C607.397 192.583 680.18 185.129 693.481 272.475C705.51 351.46 556.358 422.018 528.606 346.915C489.15 240.104 613.607 267.957 593.568 225.562C578.711 194.166 607.397 192.583 607.397 192.583Z" fill="#FDE595"/>
<path d="M596.68 357.521C596.68 357.521 584.84 372.522 570.186 358.346C555.532 344.169 585.192 274.328 596.68 357.521Z" fill="#DF6488"/>
<path d="M602.661 218.988C604.582 204.189 658.571 191.041 614.73 234.179C614.73 234.179 600.739 233.787 602.661 218.988Z" fill="#22BBEE"/>
<path d="M644.648 323.053C655.797 333.144 647.489 351.826 632.538 350.175C632.321 350.148 632.105 350.121 631.888 350.094C611.253 347.429 592.811 276.141 644.648 323.053Z" fill="#FFCFDD"/>
<path d="M671.304 279.468C685.146 283.662 685.579 303.317 671.899 308.024C671.709 308.092 671.506 308.16 671.304 308.227C652.265 314.355 606.977 259.949 671.304 279.468Z" fill="white"/>
<path d="M646.921 231.609C655.513 221.112 672.711 227.754 671.899 241.294C671.885 241.484 671.872 241.687 671.858 241.876C670.37 260.584 607.004 280.388 646.921 231.609Z" fill="#EDC964"/>
<path d="M257.026 164.46C257.026 164.46 296.712 123.77 210.425 225.17C182.457 258.041 165.448 281.822 155.233 298.975C152.702 300.043 150.686 300.422 149.292 299.976C157.871 282.931 167.397 264.872 174 249.059C192.673 204.311 249.449 158.643 249.449 158.643C249.449 158.643 255.862 151.284 265.131 141.558C266.552 143.533 268.081 146.374 269.055 150.189C261.938 158.156 257.026 164.46 257.026 164.46Z" fill="url(#paint13_linear)"/>
<path d="M232.548 315.681C278.507 315.681 315.764 278.434 315.764 232.488C315.764 186.542 278.507 149.296 232.548 149.296C186.59 149.296 149.333 186.542 149.333 232.488C149.333 278.434 186.59 315.681 232.548 315.681Z" fill="url(#paint14_linear)"/>
<path d="M149.292 299.976C150.686 300.408 152.702 300.043 155.233 298.975C133.908 334.741 142.108 341.626 142.108 341.626C209.384 326.976 330.066 118.021 312.043 117.48C300.582 117.141 281.436 136.242 269.028 150.188C268.054 146.374 266.525 143.533 265.104 141.558C286.131 119.522 321.907 85.3659 331.216 97.3917C344.639 114.734 279.826 213.307 260.192 240.442C240.559 267.578 158.48 369.79 135.775 363.229C121.107 358.981 133.583 331.183 149.292 299.976Z" fill="url(#paint15_linear)"/>
<defs>
<linearGradient id="paint0_linear" x1="360.5" y1="0" x2="360.5" y2="1024" gradientUnits="userSpaceOnUse">
<stop stop-color="#4666DA"/>
<stop offset="1" stop-color="#D53DD8"/>
</linearGradient>
<linearGradient id="paint1_linear" x1="622.024" y1="393.33" x2="635.99" y2="569.388" gradientUnits="userSpaceOnUse">
<stop stop-color="#A8E3F9"/>
<stop offset="0.1075" stop-color="#80D7F6"/>
<stop offset="0.303" stop-color="#3DC3F0"/>
<stop offset="0.3947" stop-color="#22BBEE"/>
</linearGradient>
<linearGradient id="paint2_linear" x1="1.5" y1="866.501" x2="707.5" y2="866.501" gradientUnits="userSpaceOnUse">
<stop stop-color="#FFCFDD"/>
<stop offset="0.2587" stop-color="#FD86AA"/>
</linearGradient>
<linearGradient id="paint3_linear" x1="0.5" y1="945.501" x2="844.5" y2="945.501" gradientUnits="userSpaceOnUse">
<stop stop-color="#FD86AA"/>
<stop offset="0.6571" stop-color="#DF6488"/>
</linearGradient>
<linearGradient id="paint4_linear" x1="686.934" y1="-0.128456" x2="80.6488" y2="371.161" gradientUnits="userSpaceOnUse">
<stop stop-color="#A8E3F9"/>
<stop offset="0.1075" stop-color="#80D7F6"/>
<stop offset="0.303" stop-color="#3DC3F0"/>
<stop offset="0.3947" stop-color="#22BBEE"/>
</linearGradient>
<linearGradient id="paint5_linear" x1="66.3199" y1="349.559" x2="9.06324" y2="391.088" gradientUnits="userSpaceOnUse">
<stop stop-color="#A8E3F9"/>
<stop offset="0.1075" stop-color="#80D7F6"/>
<stop offset="0.303" stop-color="#3DC3F0"/>
<stop offset="0.3947" stop-color="#22BBEE"/>
</linearGradient>
<linearGradient id="paint6_linear" x1="52.0631" y1="89.5946" x2="80.6317" y2="121.79" gradientUnits="userSpaceOnUse">
<stop stop-color="#FEF0C3"/>
<stop offset="0.6571" stop-color="#FDDA68"/>
</linearGradient>
<linearGradient id="paint7_linear" x1="449.166" y1="145.753" x2="504.872" y2="145.753" gradientUnits="userSpaceOnUse">
<stop stop-color="#EA6E97"/>
</linearGradient>
<linearGradient id="paint8_linear" x1="396.129" y1="385.034" x2="417.433" y2="452.468" gradientUnits="userSpaceOnUse">
<stop stop-color="#A8E3F9"/>
<stop offset="0.1075" stop-color="#80D7F6"/>
<stop offset="0.303" stop-color="#3DC3F0"/>
<stop offset="0.3947" stop-color="#22BBEE"/>
</linearGradient>
<linearGradient id="paint9_linear" x1="495.245" y1="793.139" x2="747.8" y2="793.139" gradientUnits="userSpaceOnUse">
<stop stop-color="#FDE595"/>
<stop offset="0.7325" stop-color="#FDDA68"/>
</linearGradient>
<linearGradient id="paint10_linear" x1="453.325" y1="493.218" x2="622.435" y2="493.218" gradientUnits="userSpaceOnUse">
<stop stop-color="#FD8EAA"/>
<stop offset="0.4941" stop-color="#F07B9B"/>
<stop offset="1" stop-color="#DF6488"/>
</linearGradient>
<linearGradient id="paint11_linear" x1="454.349" y1="438.664" x2="533.603" y2="424.745" gradientUnits="userSpaceOnUse">
<stop stop-color="#E2698C"/>
<stop offset="0.6031" stop-color="#FD8EAA"/>
</linearGradient>
<linearGradient id="paint12_linear" x1="179.509" y1="298.901" x2="-16.9899" y2="506.886" gradientUnits="userSpaceOnUse">
<stop stop-color="#A8E3F9"/>
<stop offset="0.1075" stop-color="#80D7F6"/>
<stop offset="0.303" stop-color="#3DC3F0"/>
<stop offset="0.3947" stop-color="#22BBEE"/>
</linearGradient>
<linearGradient id="paint13_linear" x1="149.29" y1="220.855" x2="269.035" y2="220.855" gradientUnits="userSpaceOnUse">
<stop stop-color="#FFCFDD"/>
<stop offset="0.5806" stop-color="#EA6E97"/>
</linearGradient>
<linearGradient id="paint14_linear" x1="149.318" y1="232.489" x2="315.768" y2="232.489" gradientUnits="userSpaceOnUse">
<stop stop-color="#FDE595"/>
<stop offset="0.7325" stop-color="#FDDA68"/>
</linearGradient>
<linearGradient id="paint15_linear" x1="129.254" y1="229.217" x2="333.043" y2="229.217" gradientUnits="userSpaceOnUse">
<stop stop-color="#FFCFDD"/>
<stop offset="0.5806" stop-color="#EA6E97"/>
</linearGradient>
</defs>
</svg>
