<svg width="797" height="1028" viewBox="0 0 797 1028" fill="none" xmlns="http://www.w3.org/2000/svg">
<rect width="797" height="1028" fill="url(#paint0_linear)"/>
<g clip-path="url(#clip0)">
<path d="M795.917 403.113C777.951 383.947 776.219 443.011 767.431 460.41C759.697 475.735 690.661 472.617 664.284 431.193C637.908 389.783 626.358 465.095 644.624 480.727C662.891 496.36 764.167 523.918 780.651 487.272C797.134 450.627 804.78 412.589 795.917 403.113Z" fill="#A8E3F9"/>
<path d="M791.698 393.945C773.733 374.766 772.001 433.843 763.213 451.242C755.479 466.567 686.443 463.449 660.066 422.025C633.689 380.615 622.139 455.927 640.406 471.559C658.672 487.192 759.948 514.75 776.432 478.104C792.929 441.445 800.574 403.408 791.698 393.945Z" fill="url(#paint1_linear)"/>
<path d="M0 717.384C0 717.384 253.397 657.263 453.011 795.118C652.625 932.973 670.201 1028 670.201 1028H0V717.384Z" fill="url(#paint2_linear)"/>
<path d="M0 983.204C0 983.204 179.326 860.7 386.473 860.7C512.016 860.7 626.261 898.175 797 1028H0V983.204Z" fill="url(#paint3_linear)"/>
<path d="M145.276 20.0759C145.276 20.0759 105.817 148.563 179.888 200.76C253.959 252.958 290.354 248.367 299.782 323.612C309.21 398.857 382.013 430.965 410.888 414.905C439.763 398.844 590.403 329.702 641.248 383.68C692.093 437.657 742.323 457.733 759.899 408.213C777.475 358.692 797.562 348.092 798.19 328.631C798.817 309.171 798.19 20.0759 798.19 20.0759H145.276Z" fill="#A8E3F9"/>
<path d="M150.423 0C150.423 0 110.964 128.487 185.035 180.684C259.106 232.882 295.501 228.291 304.929 303.536C314.357 378.781 387.16 410.889 416.035 394.829C444.91 378.768 595.55 309.626 646.395 363.604C697.24 417.581 747.47 437.658 765.046 388.137C782.622 338.616 802.709 328.016 803.337 308.555C803.964 289.095 803.337 0 803.337 0H150.423Z" fill="url(#paint4_linear)"/>
<path d="M143.166 372.625C134.303 358.652 128.992 343.461 130.16 334.761C131.516 324.696 138.446 317.442 162.061 333.115C203.929 360.9 215.894 487.326 143.166 372.625Z" fill="#A8E3F9"/>
<path d="M149.167 370.336C140.304 356.363 134.993 341.172 136.161 332.472C137.517 322.408 144.447 315.153 168.062 330.826C209.93 358.611 221.895 485.023 149.167 370.336Z" fill="url(#paint5_linear)"/>
<path d="M447.377 201.521C447.377 201.521 447.352 213.005 451.319 213.232C455.286 213.46 465.455 212.831 459.555 197.412C453.654 181.994 446.31 201.615 446.31 201.615L447.377 201.521Z" fill="black"/>
<path d="M452.173 122.207C445.005 116.452 435.35 115.77 427.177 119.704C415.452 125.339 399.206 138.549 417.95 164.728C444.979 202.485 442.431 196.408 442.431 196.408L461.413 190.827C461.413 190.827 463.886 158.839 463.61 149.926C463.397 143.474 462.016 130.117 452.173 122.207Z" fill="url(#paint6_linear)"/>
<path d="M442.431 196.408C442.431 196.408 439.807 203.85 444.728 205.309C449.649 206.768 473.114 199.875 461.4 190.827C461.413 190.827 451.721 189.516 442.431 196.408Z" fill="#F7F8F8"/>
<path d="M421.004 106.5C421.004 106.5 399.9 58.3577 410.258 67.3651C420.615 76.3726 421.004 106.5 421.004 106.5Z" fill="#F7F8F8"/>
<path d="M398.002 123.488C398.002 123.488 356.668 91.0137 370.051 94.0638C383.435 97.1139 398.002 123.488 398.002 123.488Z" fill="#F7F8F8"/>
<path d="M448.846 111.339C448.846 111.339 460.572 59.6905 463.384 73.6232C466.209 87.5426 448.846 111.339 448.846 111.339Z" fill="#F7F8F8"/>
<path d="M571 145.556L641.141 21.7671C641.141 21.7671 701.829 32.4877 718.15 69.963L642.823 186.404L571 145.556Z" fill="white"/>
<path d="M587.584 135.545L642.824 33.8262C642.824 33.8262 680.813 31.4573 710.78 70.7795L644.569 168.71L587.584 135.545Z" fill="#FFCFDD"/>
<path d="M605.424 117.811C609.341 114.304 614.953 113.97 619.46 116.526C628.687 121.746 649.929 134.059 652.854 138.222C656.621 143.575 649.088 156.959 641.556 154.282C635.931 152.288 616.284 139.814 606.705 133.644C601.658 130.392 600.553 122.857 604.759 118.44C604.972 118.226 605.198 118.012 605.424 117.811Z" fill="url(#paint7_linear)"/>
<path d="M651.612 53.9022C651.612 53.9022 635.027 57.2884 644.569 70.3244C654.11 83.3604 643.564 88.5534 653.871 87.9645C664.166 87.3756 681.742 94.0676 679.231 78.0068C676.72 61.946 666.677 52.5638 651.612 53.9022Z" fill="white"/>
<path d="M530.874 190.333C530.874 190.333 507.624 220.393 526.443 238.127C545.261 255.848 573.848 249.209 585.686 219.992C585.686 219.992 554.15 241.54 541.018 228.638C527.56 215.414 528.602 211.252 530.874 190.333Z" fill="#F7F8F8"/>
<path d="M509.193 279.015C509.193 279.015 507.222 253.211 509.193 253.733C511.164 254.255 513.976 271.654 513.197 279.015C513.197 279.015 531.251 279.685 531.251 282.361C531.251 285.038 513.675 283.7 513.675 283.7C513.675 283.7 516.185 298.422 513.675 299.761C511.164 301.099 509.908 283.7 509.908 283.7C509.908 283.7 497.354 286.377 496.098 285.038C494.843 283.7 505.954 278.346 509.193 279.015Z" fill="#F7F8F8"/>
<path d="M568.512 179.224C568.512 179.224 567.344 163.939 568.512 164.247C569.679 164.555 571.349 174.861 570.885 179.224C570.885 179.224 581.581 179.625 581.581 181.205C581.581 182.784 571.173 181.994 571.173 181.994C571.173 181.994 572.655 190.707 571.173 191.51C569.692 192.3 568.939 181.994 568.939 181.994C568.939 181.994 561.507 183.574 560.766 182.784C560.025 181.994 566.604 178.822 568.512 179.224Z" fill="#F7F8F8"/>
<path d="M381.288 319.544C381.288 319.544 379.317 293.739 381.288 294.261C383.259 294.783 386.071 312.182 385.293 319.544C385.293 319.544 403.346 320.213 403.346 322.89C403.346 325.566 385.77 324.228 385.77 324.228C385.77 324.228 388.281 338.95 385.77 340.289C383.259 341.627 382.004 324.228 382.004 324.228C382.004 324.228 369.449 326.905 368.194 325.566C366.939 324.228 378.062 318.874 381.288 319.544Z" fill="#F7F8F8"/>
<path d="M359.004 285.321C359.004 285.321 357.837 270.036 359.004 270.344C360.172 270.652 361.829 280.957 361.377 285.321C361.377 285.321 372.073 285.722 372.073 287.301C372.073 288.881 361.666 288.091 361.666 288.091C361.666 288.091 363.147 296.804 361.666 297.607C360.184 298.397 359.431 288.091 359.431 288.091C359.431 288.091 351.999 289.67 351.258 288.881C350.517 288.091 357.096 284.919 359.004 285.321Z" fill="#F7F8F8"/>
<path d="M722.757 144.579C722.757 144.579 720.786 118.775 722.757 119.297C724.728 119.819 727.54 137.218 726.762 144.579C726.762 144.579 744.815 145.248 744.815 147.925C744.815 150.602 727.239 149.263 727.239 149.263C727.239 149.263 729.75 163.986 727.239 165.324C724.728 166.663 723.473 149.263 723.473 149.263C723.473 149.263 710.918 151.94 709.663 150.602C708.407 149.263 719.53 143.91 722.757 144.579Z" fill="#F7F8F8"/>
<path d="M697.962 174.599C697.962 174.599 696.795 159.315 697.962 159.623C699.13 159.93 700.787 170.236 700.335 174.599C700.335 174.599 711.031 175.001 711.031 176.58C711.031 178.159 700.624 177.37 700.624 177.37C700.624 177.37 702.105 186.083 700.624 186.886C699.142 187.675 698.389 177.37 698.389 177.37C698.389 177.37 690.957 178.949 690.216 178.159C689.475 177.37 696.054 174.198 697.962 174.599Z" fill="#F7F8F8"/>
<path d="M215.193 45.0786C215.193 45.0786 213.221 19.2742 215.193 19.7961C217.164 20.3181 219.976 37.7174 219.197 45.0786C219.197 45.0786 237.25 45.7478 237.25 48.4246C237.25 51.1014 219.674 49.763 219.674 49.763C219.674 49.763 222.185 64.4854 219.674 65.8238C217.164 67.1622 215.908 49.763 215.908 49.763C215.908 49.763 203.354 52.4398 202.098 51.1014C200.843 49.763 211.966 44.4094 215.193 45.0786Z" fill="#F7F8F8"/>
<path d="M188.806 68.4095C188.806 68.4095 187.638 53.125 188.806 53.4328C189.973 53.7406 191.631 64.0463 191.179 68.4095C191.179 68.4095 201.875 68.8111 201.875 70.3904C201.875 71.9697 191.467 71.18 191.467 71.18C191.467 71.18 192.949 79.893 191.467 80.6961C189.986 81.4857 189.233 71.18 189.233 71.18C189.233 71.18 181.8 72.7593 181.06 71.9697C180.307 71.18 186.885 68.0214 188.806 68.4095Z" fill="#F7F8F8"/>
<path d="M503.338 441.07C488.11 445.621 472.906 446.197 465.537 442.262C457.012 437.711 452.731 428.409 474.137 409.471C512.088 375.904 628.379 403.716 503.338 441.07Z" fill="#A8E3F9"/>
<path d="M503.187 434.285C487.959 438.835 472.755 439.411 465.386 435.476C456.862 430.925 452.581 421.624 473.986 402.685C511.95 369.105 628.241 396.93 503.187 434.285Z" fill="url(#paint8_linear)"/>
<path d="M688.43 925.84C688.43 925.84 719.389 944.751 714.003 976.324C708.617 1007.9 738.233 959.112 730.148 939.023L697.846 910.328C697.858 910.314 676.327 921.276 688.43 925.84Z" fill="#FFCFDD"/>
<path d="M514.138 953.21C514.138 953.21 522.889 982.066 520.202 990.672C517.515 999.278 495.972 1002.16 504.057 1005.02C512.13 1007.88 549.818 1002.16 547.131 990.672C544.419 979.188 543.064 912.87 514.138 953.21Z" fill="#FFCFDD"/>
<path d="M609.024 580.304C600.952 557.351 601.228 544.97 590.105 520.464C585.272 507.107 579.145 496.694 571.324 488.891C571.412 489.012 571.638 489.32 571.964 489.815C575.881 495.717 595.026 529.017 590.193 609.013C590.193 609.013 599.797 628.808 589.352 653.274C589.302 653.408 589.264 653.555 589.201 653.689C579.421 677.887 581.982 698.177 590.118 696.638C590.13 696.638 590.143 696.638 590.143 696.625C590.996 696.397 591.913 695.915 592.88 695.099L600.864 682.946C602.672 679.44 605.02 675.438 608.61 671.142C619.796 657.784 626.161 629.009 609.024 580.304Z" fill="#DF6488"/>
<path d="M589.188 653.662C589.238 653.528 589.288 653.381 589.339 653.247C588.761 654.586 588.171 655.938 587.468 657.303C578.555 674.742 581.768 698.699 590.105 696.612C581.969 698.151 579.421 677.874 589.188 653.662Z" fill="#EA6E97"/>
<path d="M571.311 488.865C571.537 489.186 571.737 489.48 571.963 489.802C571.637 489.306 571.411 488.999 571.323 488.878C571.323 488.878 571.311 488.878 571.311 488.865Z" fill="#EA6E97"/>
<path d="M473.085 633.385C473.085 633.385 548.462 644.869 575.378 639.127C575.378 639.127 599.608 667.822 596.909 742.438C594.222 817.054 685.743 857.233 707.274 906.018C707.274 906.018 691.129 928.971 680.357 928.971C669.586 928.971 569.992 834.266 553.847 788.359C553.847 788.359 537.702 739.574 535.003 710.879L532.317 825.673C532.317 825.673 532.317 845.763 535.003 857.246C537.69 868.73 548.462 900.289 545.775 949.074C545.775 949.074 529.63 957.68 508.087 951.938C508.087 951.938 470.399 844.277 473.098 741.702C475.797 639.127 473.085 633.385 473.085 633.385Z" fill="url(#paint9_linear)"/>
<path d="M716.702 1002.16C716.702 1002.16 751.691 950.506 740.932 944.765C730.161 939.023 730.161 936.159 727.474 939.023C724.787 941.887 723.193 966.514 714.568 971.426C705.931 976.324 708.63 1013.63 716.702 1002.16Z" fill="black"/>
<path d="M547.256 1007.99C547.256 1007.99 530.973 1010.76 517.515 1016.5C504.057 1022.24 477.14 1025.11 490.599 1010.76C504.057 996.413 513.159 1007.75 524.759 999.211C536.359 990.672 547.131 984.93 547.131 990.672C547.118 996.413 552.768 1005.22 547.256 1007.99Z" fill="black"/>
<path d="M590.18 609C590.18 609 598.843 629.236 589.339 653.261C599.797 628.781 590.18 609 590.18 609Z" fill="#DF6488"/>
<path d="M571.273 488.811C571.286 488.838 571.298 488.852 571.311 488.879L571.323 488.892C571.298 488.838 571.273 488.811 571.273 488.811Z" fill="#DF6488"/>
<path d="M600.864 682.933L608.61 671.128C605.007 675.425 602.672 679.427 600.864 682.933Z" fill="#EA6E97"/>
<path d="M571.963 489.802C571.737 489.48 571.537 489.186 571.311 488.865C558.781 476.377 541.871 470.515 518.858 469.819C471.755 468.387 460.983 359.334 459.74 353.592C458.497 347.851 434.066 353.592 434.066 353.592C434.066 353.592 439.452 390.894 442.139 433.95C444.825 477.006 468.516 522.914 468.516 522.914C468.516 522.914 474.441 542.99 466.369 583.169C458.296 623.347 472.96 621.594 472.96 621.594C471.478 628.447 473.098 633.385 473.098 633.385C539.046 649.165 568.662 640.559 575.391 639.127C582.12 637.695 582.12 626.212 582.12 626.212C585.032 626.212 586.878 625.181 588.058 623.856C588.058 623.856 590.192 614.741 590.192 609C595.026 529.003 575.868 495.704 571.963 489.802Z" fill="url(#paint10_linear)"/>
<path d="M472.947 621.594C472.947 621.594 471.742 626.211 473.085 633.385C474.429 640.559 557.877 649.165 575.378 639.127C575.378 639.127 584.794 634.817 582.107 626.212C582.107 626.212 552.228 637.053 472.947 621.594Z" fill="#DF6488"/>
<path d="M456.062 351.29C456.062 351.29 455.585 333.503 452.898 310.549C450.211 287.596 458.284 276.112 458.284 261.765C458.284 247.417 458.284 239.44 458.284 239.44C458.284 239.44 454.492 243.616 452.346 258.432C450.199 273.248 425.982 256.023 428.668 276.112C431.355 296.202 439.44 301.943 436.741 319.155C434.054 336.367 436.741 356.456 436.741 356.456C436.741 356.456 456.539 366.2 456.062 351.29Z" fill="#FFCFDD"/>
<path d="M508.715 467.705C508.715 467.705 505.652 534.397 468.503 522.914C468.503 522.914 445.943 479.991 441.348 422.534C436.753 365.076 434.054 353.593 434.054 353.593C434.054 353.593 445.039 367.94 459.728 353.593C459.74 353.593 469.056 448.298 508.715 467.705Z" fill="url(#paint11_linear)"/>
<path d="M545.775 949.061C545.775 949.061 528.274 959.099 508.087 951.925C508.087 951.925 466.369 831.349 473.098 741.689C473.085 741.702 493.285 950.493 545.775 949.061Z" fill="#FDE595"/>
<path d="M571.273 819.33C571.273 819.33 646.725 918.934 680.37 928.972C714.004 939.01 549.655 779.994 571.273 819.33Z" fill="#FDE595"/>
<path d="M594.222 708.67C594.222 708.67 591.749 717.611 590.971 735.05C590.192 752.49 593.519 792.856 617.423 804.246C617.423 804.246 595.566 769.715 596.921 742.452C598.265 715.175 595.553 696.411 594.222 708.67Z" fill="#EDC964"/>
<path d="M535.003 710.879C535.003 710.879 521.256 787.543 532.844 840.329C532.831 840.316 533.66 715.175 535.003 710.879Z" fill="#EDC964"/>
<path d="M458.284 250.375C458.284 250.375 454.982 251.405 456.639 242.237C458.296 233.069 458.284 238.985 458.284 250.375Z" fill="#DF6488"/>
<path d="M516.418 375C516.418 375 489.888 430.397 511.437 447.223C533.001 464.05 539.638 399.933 516.418 375Z" fill="#FFCFDD"/>
<path d="M575.618 359.663C575.618 359.663 606.358 363.298 603.855 417.149C602.202 452.71 585.643 449.173 585.643 477.398C585.643 505.623 582.337 493.665 582.337 512.663C582.337 526.775 577.641 524.719 572.405 530.295C569.099 533.815 575.711 544.407 575.711 544.407C575.711 544.407 565.037 535.772 569.084 526.775C571.864 520.591 577.055 514.883 575.711 509.143C575.711 509.143 568.991 496.363 572.405 487.991C572.405 487.991 575.711 495.047 579.032 512.679C580.669 521.364 565.778 523.025 565.778 530.311C565.778 547.944 551.181 555 545.913 555C543.349 555 552.895 540.69 549.219 533.848C546.469 528.732 549.219 519.735 539.287 516.216C526.326 511.61 529.045 446.295 530.466 425.324C532.66 392.773 516.101 375.141 516.101 375.141C516.101 375.141 508.701 372.46 532.274 359.696C555.83 346.899 575.618 359.663 575.618 359.663Z" fill="black"/>
<path d="M529.498 404C529.498 404 524.135 442.978 520.317 456.85C516.499 470.722 513.257 474.226 510 474.226C510 474.226 517.787 479.795 522.014 468.232C526.241 456.67 536.695 482.104 526.241 523.392C522.423 538.475 532.741 555 532.741 555C532.741 555 532.65 539.949 535.983 533.939C545.724 516.382 542.482 502.33 542.482 502.33L529.498 404Z" fill="black"/>
<path d="M585.673 472C585.673 472 584.988 484.545 591.522 498.579C598.056 512.613 591.522 521.577 591.522 525.862C591.522 530.147 598.056 537.164 599 536.805C599 536.805 579.612 542.856 579.033 527.727C578.454 512.597 585.673 472 585.673 472Z" fill="black"/>
<path d="M532.516 530.387C532.516 530.387 529.104 537.502 532.516 541.05C535.928 544.599 535.928 559.624 532.516 561C532.516 561 542.768 555.262 542.768 548.148C542.768 541.034 552 532.029 552 532.029C552 532.029 535.944 494.833 532.516 530.387Z" fill="black"/>
<path d="M526.654 466C526.654 466 527.052 471.598 516.631 479.744C506.211 487.907 516.631 498 516.631 498C516.631 498 512.76 488.507 519.325 484.726C525.889 480.945 531 472.978 531 472.978L526.654 466Z" fill="black"/>
<path d="M529.018 483C529.018 483 529.395 492.36 519.377 499.101C509.36 505.842 512.736 515.636 512.736 516.57C512.736 520.141 509.376 523.728 506 523.728C506 523.728 517.587 526.698 519.472 513C519.472 513 522.832 498.684 534.278 506.326C545.049 513.5 529.018 483 529.018 483Z" fill="black"/>
<path d="M519 462.698C519 462.698 523.291 466.544 524.859 472.053C526.428 477.562 517.417 487.357 523.513 498.195C529.609 509.016 526.428 523 526.428 523C526.428 523 559.157 440.843 519 462.698Z" fill="black"/>
<path d="M191.187 243.589C191.187 243.589 199.975 287.757 247.681 291.772C276.707 294.221 264.215 413.888 321.752 422.935C398.333 434.981 433.611 459.955 387.035 459.072C316.73 457.734 245.622 457.76 233.47 396.85C221.317 335.939 159.763 297.259 154.779 295.787C132.181 289.095 116.137 173.511 191.187 243.589Z" fill="#A8E3F9"/>
<path d="M188.676 236.897C188.676 236.897 213.784 260.988 256.469 275.711C298.187 290.099 274.623 407.731 331.117 422.453C387.612 437.176 427.761 453.638 391.366 449.422C354.971 445.206 254.988 457.278 242.835 396.368C230.683 335.457 169.129 296.777 164.144 295.305C141.547 288.613 113.626 166.818 188.676 236.897Z" fill="url(#paint12_linear)"/>
<path d="M693.323 207.933C693.323 207.933 760.853 200.559 773.194 286.979C784.355 365.129 645.968 434.94 620.219 360.632C583.611 254.951 699.086 282.509 680.493 240.564C666.708 209.499 693.323 207.933 693.323 207.933Z" fill="#FDE595"/>
<path d="M683.38 371.125C683.38 371.125 672.395 385.968 658.799 371.941C645.203 357.915 672.722 288.813 683.38 371.125Z" fill="#DF6488"/>
<path d="M688.929 234.059C690.712 219.417 740.804 206.408 700.128 249.089C700.128 249.089 687.147 248.701 688.929 234.059Z" fill="#22BBEE"/>
<path d="M727.885 337.022C738.23 347.007 730.522 365.49 716.649 363.857C716.448 363.831 716.248 363.804 716.047 363.777C696.901 361.14 679.79 290.606 727.885 337.022Z" fill="#FFCFDD"/>
<path d="M752.617 293.899C765.46 298.048 765.862 317.495 753.17 322.153C752.994 322.22 752.806 322.286 752.617 322.353C734.953 328.416 692.934 274.586 752.617 293.899Z" fill="white"/>
<path d="M729.994 246.546C737.966 236.16 753.923 242.732 753.169 256.129C753.157 256.316 753.144 256.517 753.132 256.705C751.751 275.215 692.959 294.809 729.994 246.546Z" fill="#EDC964"/>
<path d="M280.557 109.394C280.557 109.394 317.379 69.1349 237.32 169.461C211.37 201.985 195.589 225.514 186.11 242.485C183.763 243.542 181.892 243.917 180.599 243.475C188.559 226.611 197.397 208.744 203.523 193.098C220.848 148.823 273.526 103.639 273.526 103.639C273.526 103.639 279.477 96.358 288.077 86.7349C289.395 88.6889 290.814 91.4996 291.718 95.2739C285.114 103.157 280.557 109.394 280.557 109.394Z" fill="url(#paint13_linear)"/>
<path d="M257.846 259.014C300.487 259.014 335.055 222.162 335.055 176.702C335.055 131.243 300.487 94.3904 257.846 94.3904C215.204 94.3904 180.637 131.243 180.637 176.702C180.637 222.162 215.204 259.014 257.846 259.014Z" fill="url(#paint14_linear)"/>
<path d="M180.599 243.475C181.892 243.903 183.763 243.542 186.11 242.485C166.325 277.872 173.933 284.684 173.933 284.684C236.353 270.19 348.325 63.4465 331.603 62.9112C320.969 62.5766 303.205 81.4748 291.692 95.2737C290.789 91.4994 289.37 88.6888 288.052 86.7347C307.561 64.9321 340.755 31.1375 349.392 43.0359C361.846 60.1942 301.711 157.724 283.494 184.572C265.278 211.42 189.123 312.55 168.057 306.059C154.448 301.856 166.023 274.352 180.599 243.475Z" fill="url(#paint15_linear)"/>
</g>
<defs>
<linearGradient id="paint0_linear" x1="398.5" y1="0" x2="398.5" y2="1028" gradientUnits="userSpaceOnUse">
<stop stop-color="#4666DA"/>
<stop offset="1" stop-color="#D53DD8"/>
</linearGradient>
<linearGradient id="paint1_linear" x1="711.413" y1="398.071" x2="726.137" y2="572.115" gradientUnits="userSpaceOnUse">
<stop stop-color="#A8E3F9"/>
<stop offset="0.1075" stop-color="#80D7F6"/>
<stop offset="0.303" stop-color="#3DC3F0"/>
<stop offset="0.3947" stop-color="#22BBEE"/>
</linearGradient>
<linearGradient id="paint2_linear" x1="-1.57117e-07" y1="866.168" x2="670.201" y2="866.168" gradientUnits="userSpaceOnUse">
<stop stop-color="#FFCFDD"/>
<stop offset="0.2587" stop-color="#FD86AA"/>
</linearGradient>
<linearGradient id="paint3_linear" x1="0" y1="944.351" x2="797" y2="944.351" gradientUnits="userSpaceOnUse">
<stop stop-color="#FD86AA"/>
<stop offset="0.6571" stop-color="#DF6488"/>
</linearGradient>
<linearGradient id="paint4_linear" x1="771.53" y1="-0.129841" x2="183.632" y2="330.499" gradientUnits="userSpaceOnUse">
<stop stop-color="#A8E3F9"/>
<stop offset="0.1075" stop-color="#80D7F6"/>
<stop offset="0.303" stop-color="#3DC3F0"/>
<stop offset="0.3947" stop-color="#22BBEE"/>
</linearGradient>
<linearGradient id="paint5_linear" x1="188.286" y1="354.925" x2="132.857" y2="392.625" gradientUnits="userSpaceOnUse">
<stop stop-color="#A8E3F9"/>
<stop offset="0.1075" stop-color="#80D7F6"/>
<stop offset="0.303" stop-color="#3DC3F0"/>
<stop offset="0.3947" stop-color="#22BBEE"/>
</linearGradient>
<linearGradient id="paint6_linear" x1="436.923" y1="146.882" x2="465.348" y2="176.921" gradientUnits="userSpaceOnUse">
<stop stop-color="#FEF0C3"/>
<stop offset="0.6571" stop-color="#FDDA68"/>
</linearGradient>
<linearGradient id="paint7_linear" x1="602.185" y1="134.743" x2="653.87" y2="134.743" gradientUnits="userSpaceOnUse">
<stop stop-color="#EA6E97"/>
</linearGradient>
<linearGradient id="paint8_linear" x1="501.823" y1="389.862" x2="524.024" y2="455.762" gradientUnits="userSpaceOnUse">
<stop stop-color="#A8E3F9"/>
<stop offset="0.1075" stop-color="#80D7F6"/>
<stop offset="0.303" stop-color="#3DC3F0"/>
<stop offset="0.3947" stop-color="#22BBEE"/>
</linearGradient>
<linearGradient id="paint9_linear" x1="472.953" y1="793.647" x2="707.279" y2="793.647" gradientUnits="userSpaceOnUse">
<stop stop-color="#FDE595"/>
<stop offset="0.7325" stop-color="#FDDA68"/>
</linearGradient>
<linearGradient id="paint10_linear" x1="434.059" y1="496.901" x2="590.964" y2="496.901" gradientUnits="userSpaceOnUse">
<stop stop-color="#FD8EAA"/>
<stop offset="0.4941" stop-color="#F07B9B"/>
<stop offset="1" stop-color="#DF6488"/>
</linearGradient>
<linearGradient id="paint11_linear" x1="435.009" y1="442.924" x2="508.809" y2="430.77" gradientUnits="userSpaceOnUse">
<stop stop-color="#E2698C"/>
<stop offset="0.6031" stop-color="#FD8EAA"/>
</linearGradient>
<linearGradient id="paint12_linear" x1="300.838" y1="304.641" x2="106.111" y2="497.92" gradientUnits="userSpaceOnUse">
<stop stop-color="#A8E3F9"/>
<stop offset="0.1075" stop-color="#80D7F6"/>
<stop offset="0.303" stop-color="#3DC3F0"/>
<stop offset="0.3947" stop-color="#22BBEE"/>
</linearGradient>
<linearGradient id="paint13_linear" x1="180.597" y1="165.192" x2="291.699" y2="165.192" gradientUnits="userSpaceOnUse">
<stop stop-color="#FFCFDD"/>
<stop offset="0.5806" stop-color="#EA6E97"/>
</linearGradient>
<linearGradient id="paint14_linear" x1="180.623" y1="176.702" x2="335.059" y2="176.702" gradientUnits="userSpaceOnUse">
<stop stop-color="#FDE595"/>
<stop offset="0.7325" stop-color="#FDDA68"/>
</linearGradient>
<linearGradient id="paint15_linear" x1="162.007" y1="173.465" x2="351.087" y2="173.465" gradientUnits="userSpaceOnUse">
<stop stop-color="#FFCFDD"/>
<stop offset="0.5806" stop-color="#EA6E97"/>
</linearGradient>
<clipPath id="clip0">
<rect width="797" height="1028" fill="white"/>
</clipPath>
</defs>
</svg>
