<svg width="856" height="1072" viewBox="0 0 856 1072" fill="none" xmlns="http://www.w3.org/2000/svg">
<rect width="720" height="1024" transform="translate(11 48)" fill="url(#paint0_linear)"/>
<path d="M11 48H731V1072H11V48Z" fill="url(#paint1_linear)"/>
<path d="M50.3203 113.352H65.25V119H43.2891V84.875H50.3203V113.352ZM95.8359 102.711C95.8359 106.07 95.2422 109.016 94.0547 111.547C92.8672 114.078 91.1641 116.031 88.9453 117.406C86.7422 118.781 84.2109 119.469 81.3516 119.469C78.5234 119.469 76 118.789 73.7812 117.43C71.5625 116.07 69.8438 114.133 68.625 111.617C67.4062 109.086 66.7891 106.18 66.7734 102.898V101.211C66.7734 97.8516 67.375 94.8984 68.5781 92.3516C69.7969 89.7891 71.5078 87.8281 73.7109 86.4688C75.9297 85.0938 78.4609 84.4062 81.3047 84.4062C84.1484 84.4062 86.6719 85.0938 88.875 86.4688C91.0938 87.8281 92.8047 89.7891 94.0078 92.3516C95.2266 94.8984 95.8359 97.8438 95.8359 101.188V102.711ZM88.7109 101.164C88.7109 97.5859 88.0703 94.8672 86.7891 93.0078C85.5078 91.1484 83.6797 90.2188 81.3047 90.2188C78.9453 90.2188 77.125 91.1406 75.8438 92.9844C74.5625 94.8125 73.9141 97.5 73.8984 101.047V102.711C73.8984 106.195 74.5391 108.898 75.8203 110.82C77.1016 112.742 78.9453 113.703 81.3516 113.703C83.7109 113.703 85.5234 112.781 86.7891 110.938C88.0547 109.078 88.6953 106.375 88.7109 102.828V101.164ZM127.945 114.688C126.68 116.203 124.891 117.383 122.578 118.227C120.266 119.055 117.703 119.469 114.891 119.469C111.938 119.469 109.344 118.828 107.109 117.547C104.891 116.25 103.172 114.375 101.953 111.922C100.75 109.469 100.133 106.586 100.102 103.273V100.953C100.102 97.5469 100.672 94.6016 101.812 92.1172C102.969 89.6172 104.625 87.7109 106.781 86.3984C108.953 85.0703 111.492 84.4062 114.398 84.4062C118.445 84.4062 121.609 85.375 123.891 87.3125C126.172 89.2344 127.523 92.0391 127.945 95.7266H121.102C120.789 93.7734 120.094 92.3438 119.016 91.4375C117.953 90.5312 116.484 90.0781 114.609 90.0781C112.219 90.0781 110.398 90.9766 109.148 92.7734C107.898 94.5703 107.266 97.2422 107.25 100.789V102.969C107.25 106.547 107.93 109.25 109.289 111.078C110.648 112.906 112.641 113.82 115.266 113.82C117.906 113.82 119.789 113.258 120.914 112.133V106.25H114.516V101.07H127.945V114.688ZM161.695 102.711C161.695 106.07 161.102 109.016 159.914 111.547C158.727 114.078 157.023 116.031 154.805 117.406C152.602 118.781 150.07 119.469 147.211 119.469C144.383 119.469 141.859 118.789 139.641 117.43C137.422 116.07 135.703 114.133 134.484 111.617C133.266 109.086 132.648 106.18 132.633 102.898V101.211C132.633 97.8516 133.234 94.8984 134.438 92.3516C135.656 89.7891 137.367 87.8281 139.57 86.4688C141.789 85.0938 144.32 84.4062 147.164 84.4062C150.008 84.4062 152.531 85.0938 154.734 86.4688C156.953 87.8281 158.664 89.7891 159.867 92.3516C161.086 94.8984 161.695 97.8438 161.695 101.188V102.711ZM154.57 101.164C154.57 97.5859 153.93 94.8672 152.648 93.0078C151.367 91.1484 149.539 90.2188 147.164 90.2188C144.805 90.2188 142.984 91.1406 141.703 92.9844C140.422 94.8125 139.773 97.5 139.758 101.047V102.711C139.758 106.195 140.398 108.898 141.68 110.82C142.961 112.742 144.805 113.703 147.211 113.703C149.57 113.703 151.383 112.781 152.648 110.938C153.914 109.078 154.555 106.375 154.57 102.828V101.164Z" fill="white"/>
<path d="M46.5352 130.656H47.1367C47.4232 130.656 47.6354 130.585 47.7734 130.441C47.9115 130.298 47.9805 130.108 47.9805 129.871C47.9805 129.642 47.9115 129.464 47.7734 129.336C47.638 129.208 47.4505 129.145 47.2109 129.145C46.9948 129.145 46.8138 129.204 46.668 129.324C46.5221 129.441 46.4492 129.595 46.4492 129.785H45.3203C45.3203 129.488 45.3997 129.223 45.5586 128.988C45.7201 128.751 45.944 128.566 46.2305 128.434C46.5195 128.301 46.8372 128.234 47.1836 128.234C47.7852 128.234 48.2565 128.379 48.5977 128.668C48.9388 128.954 49.1094 129.35 49.1094 129.855C49.1094 130.116 49.0299 130.355 48.8711 130.574C48.7122 130.793 48.5039 130.961 48.2461 131.078C48.5664 131.193 48.8047 131.365 48.9609 131.594C49.1198 131.823 49.1992 132.094 49.1992 132.406C49.1992 132.911 49.0143 133.316 48.6445 133.621C48.2773 133.926 47.7904 134.078 47.1836 134.078C46.6159 134.078 46.151 133.928 45.7891 133.629C45.4297 133.329 45.25 132.934 45.25 132.441H46.3789C46.3789 132.655 46.4583 132.829 46.6172 132.965C46.7786 133.1 46.9766 133.168 47.2109 133.168C47.4792 133.168 47.6888 133.098 47.8398 132.957C47.9935 132.814 48.0703 132.625 48.0703 132.391C48.0703 131.823 47.7578 131.539 47.1328 131.539H46.5352V130.656ZM53.8789 134H49.9805V133.227L51.8203 131.266C52.0729 130.99 52.2591 130.749 52.3789 130.543C52.5013 130.337 52.5625 130.142 52.5625 129.957C52.5625 129.704 52.4987 129.507 52.3711 129.363C52.2435 129.217 52.0612 129.145 51.8242 129.145C51.569 129.145 51.3672 129.233 51.2188 129.41C51.0729 129.585 51 129.815 51 130.102H49.8672C49.8672 129.755 49.9492 129.439 50.1133 129.152C50.2799 128.866 50.5143 128.642 50.8164 128.48C51.1185 128.316 51.4609 128.234 51.8438 128.234C52.4297 128.234 52.8841 128.375 53.207 128.656C53.5326 128.938 53.6953 129.335 53.6953 129.848C53.6953 130.129 53.6224 130.415 53.4766 130.707C53.3307 130.999 53.0807 131.339 52.7266 131.727L51.4336 133.09H53.8789V134ZM60.418 131.926C60.418 132.577 60.2695 133.099 59.9727 133.492C59.6784 133.883 59.2799 134.078 58.7773 134.078C58.3503 134.078 58.0052 133.93 57.7422 133.633V135.625H56.6133V129.773H57.6602L57.6992 130.188C57.9727 129.859 58.3294 129.695 58.7695 129.695C59.2904 129.695 59.6953 129.888 59.9844 130.273C60.2734 130.659 60.418 131.19 60.418 131.867V131.926ZM59.2891 131.844C59.2891 131.451 59.2188 131.147 59.0781 130.934C58.9401 130.72 58.7383 130.613 58.4727 130.613C58.1185 130.613 57.875 130.749 57.7422 131.02V132.75C57.8802 133.029 58.1263 133.168 58.4805 133.168C59.0195 133.168 59.2891 132.727 59.2891 131.844ZM62.668 131.035L63.3789 129.773H64.5859L63.3828 131.844L64.6367 134H63.4258L62.6719 132.672L61.9219 134H60.707L61.9609 131.844L60.7617 129.773H61.9727L62.668 131.035Z" fill="#FA36A0"/>
<g clip-path="url(#clip0)">
<path d="M0 759.151C0 759.151 272.155 698.598 486.546 837.444C700.937 976.291 719.814 1072 719.814 1072H2.481L0 759.151Z" fill="url(#paint2_linear)"/>
<path d="M0 1024.61C0 1024.61 194.401 895 418.962 895C555.059 895 678.908 934.648 864 1072H2.50419L0 1024.61Z" fill="url(#paint3_linear)"/>
<path d="M0 745.194C0 745.194 46.0652 813.473 102.969 785.638C159.873 757.803 196.454 714.659 246.584 745.277C296.714 775.896 319.747 810.689 372.586 813.473C440.627 817.063 491.814 727.185 528.395 795.38C567.333 867.959 607.857 824.301 581.681 759.042C555.492 693.783 337.36 618.629 337.36 618.629L8.644 549L0.460652 571.365L0 745.194Z" fill="#A8E3F9"/>
<path d="M593.472 777.754C593.472 777.754 603.854 674.347 547.223 650.083C490.591 625.819 495.702 597.51 485.198 530.109C474.694 462.708 531.393 404.972 435.308 315.774C340.922 228.153 419.114 189.073 339.574 94.6985C290.938 36.9922 199.766 46.0939 139.5 45.4999C57.7605 44.6943 10.5 45.5 10.5 45.5V675.5C10.5 675.5 96.8668 771.405 148.105 713.44C199.343 655.475 224.76 658.387 290.938 704.786C357.116 751.184 370.586 774.101 452.837 748.488C535.087 722.876 564.522 796.95 564.522 796.95C564.522 796.95 581.728 866.332 593.472 777.754Z" fill="url(#paint4_linear)"/>
<path d="M517.559 434.386C517.559 434.386 496.578 424.29 501.001 450.225C505.423 476.161 539.133 443.822 517.559 434.386Z" fill="#A8E3F9"/>
<path d="M261.611 847.406C265.171 852.677 265.238 859.66 261.57 864.85C257.323 870.862 249.031 876.901 233.012 874.879C204.588 871.307 232.405 804.081 261.611 847.406Z" fill="#A8E3F9"/>
<path d="M498.682 775.867C498.682 775.867 479.804 778.131 491.94 794.308C504.075 810.484 517.559 776.298 498.682 775.867Z" fill="#A8E3F9"/>
<path d="M251.66 817.911C251.66 817.911 204.683 833.131 202.377 862.14C200.071 891.149 131.52 936.173 122.082 856.344C112.643 776.5 241.305 750.51 261.355 770.852C281.405 791.194 280.61 809.581 251.66 817.911Z" fill="#A8E3F9"/>
<path d="M240.846 809.15C240.846 809.15 193.869 824.369 191.563 853.378C189.257 882.387 120.706 927.411 111.268 847.582C101.829 767.738 230.491 741.749 250.541 762.09C270.591 782.432 269.782 800.819 240.846 809.15Z" fill="url(#paint5_linear)"/>
<path d="M518.799 488.24C518.799 488.24 482.393 532.724 513.406 592.037C544.418 651.35 586.555 627.827 564.806 598.467C543.056 569.107 527.038 530.028 531.676 501.72C536.315 473.411 518.799 488.24 518.799 488.24Z" fill="#A8E3F9"/>
<path d="M521.604 473.479C521.604 473.479 485.198 517.963 516.21 577.276C547.223 636.589 589.36 613.066 567.61 583.706C545.875 554.36 529.842 515.267 534.481 486.959C539.119 458.651 521.604 473.479 521.604 473.479Z" fill="url(#paint6_linear)"/>
<path d="M521.523 434.602C521.523 434.602 500.542 424.505 504.965 450.441C509.388 476.377 543.097 444.038 521.523 434.602Z" fill="url(#paint7_linear)"/>
<path d="M255.638 850.399C259.198 855.67 259.265 862.652 255.597 867.842C251.35 873.854 243.058 879.894 227.039 877.872C198.615 874.299 226.419 807.074 255.638 850.399Z" fill="url(#paint8_linear)"/>
<path d="M498.857 771.068C498.857 771.068 479.98 773.333 492.115 789.509C504.25 805.685 517.734 771.499 498.857 771.068Z" fill="#22BBEE"/>
<path d="M417.779 135.126C417.779 135.126 374.119 217.692 419.128 267.232C520.566 378.888 471.714 273.972 471.566 265.803C470.932 229.285 433.798 197.364 438.436 169.055C443.088 140.747 417.779 135.126 417.779 135.126Z" fill="#A8E3F9"/>
<path d="M417.78 135.126C417.78 135.126 391.958 185.299 422.971 244.612C453.983 303.925 522.952 333.285 474.371 251.042C448.967 208.04 440.837 179.61 441.241 154.294C442.05 104.121 417.78 135.126 417.78 135.126Z" fill="#22BBEE"/>
<path d="M324.742 610.977C324.742 610.977 280.245 575.928 378.676 664.898C410.579 693.732 430.481 715.031 442.805 730.641C445.448 731.369 447.484 731.477 448.805 730.87C438.113 715.138 426.355 698.531 417.779 683.77C393.508 641.981 331.483 604.237 331.483 604.237C331.483 604.237 324.189 597.793 313.766 589.395C312.62 591.525 311.487 594.531 311.015 598.427C319.078 605.396 324.742 610.977 324.742 610.977Z" fill="url(#paint9_linear)"/>
<path d="M357.777 757.911C403.575 757.911 440.702 720.794 440.702 675.008C440.702 629.222 403.575 592.105 357.777 592.105C311.979 592.105 274.852 629.222 274.852 675.008C274.852 720.794 311.979 757.911 357.777 757.911Z" fill="url(#paint10_linear)"/>
<path d="M448.805 730.87C447.484 731.49 445.448 731.382 442.805 730.641C468.519 763.209 461.318 771.068 461.318 771.068C392.942 765.352 246.536 574.58 264.267 571.709C275.553 569.876 296.938 586.268 311.015 598.44C311.474 594.545 312.62 591.538 313.766 589.409C290.129 570.375 250.352 541.271 242.707 554.374C231.704 573.246 308.561 662.215 331.484 686.48C354.406 710.744 448.792 801.061 470.366 791.625C484.322 785.519 468.37 759.664 448.805 730.87Z" fill="url(#paint11_linear)"/>
<path d="M114.396 443.822C114.396 443.822 166.645 402.398 184.336 403.57C202.04 404.73 240.024 422.847 249.341 432.661C258.658 442.474 188.974 450.091 188.974 450.091C188.974 450.091 191.617 426.905 171.203 429.978C150.802 433.038 114.396 443.822 114.396 443.822Z" fill="url(#paint12_linear)"/>
<path d="M173.495 484.357C173.495 484.357 176.421 504.483 193.95 505.831C211.478 507.179 237.516 497.986 264.267 500.561C291.019 503.135 421.824 482.915 452.837 426.298C452.837 426.298 392.794 384.563 296.062 414.193C199.33 443.822 177.769 450.562 177.769 450.562C177.769 450.562 166.524 468.41 173.495 469.596C180.466 470.783 218.22 450.562 251.93 462.695C251.93 462.695 238.446 481.567 191.253 481.567C191.253 481.567 171.917 477.725 173.495 484.357Z" fill="url(#paint13_linear)"/>
<path d="M121.488 516.009C121.488 516.009 180.924 546.231 198.035 541.581C215.146 536.93 248.788 511.641 255.975 500.17C263.162 488.698 193.356 495.061 193.356 495.061C193.356 495.061 200.543 517.263 179.927 518.3C159.31 519.365 121.488 516.009 121.488 516.009Z" fill="url(#paint14_linear)"/>
<path d="M64.5059 478.871C64.5059 478.871 157.651 449.605 161.643 450.077C165.634 450.562 165.256 462.209 158.029 464.474C150.802 466.739 64.5059 478.871 64.5059 478.871Z" fill="#F7F8F8"/>
<path d="M18.6616 501.787L105.402 484.357C105.402 484.357 115.771 487.525 109.016 493.308C102.261 499.091 18.6616 501.787 18.6616 501.787Z" fill="#F7F8F8"/>
<path d="M75.293 511.223L158.892 495.047C158.892 495.047 167.967 495.047 166.807 501.787C165.647 508.527 75.293 511.223 75.293 511.223Z" fill="#F7F8F8"/>
<path d="M28.1001 199.831L92.8219 75.8127L276.2 172.87L210.13 299.584L28.1001 199.831Z" fill="#F7F8F8"/>
<path d="M33.8442 198.617L95.303 83.1324L269.459 173.504L206.705 291.496L33.8442 198.617Z" fill="url(#paint15_linear)"/>
<path d="M28.1001 199.831L7.87451 217.355L211.479 322.5L210.13 299.584L28.1001 199.831Z" fill="#EDEFEF"/>
<path d="M3.8291 226.791L7.87422 217.355L211.478 322.5L204.736 333.285L3.8291 226.791Z" fill="#C6C6C6"/>
<path d="M84.6374 225.901L145.705 109.284L95.303 83.1324L33.8442 198.617L84.6374 225.901Z" fill="#FD86AA"/>
<path d="M95.5189 105.469C90.1254 113.557 79.3384 121.645 87.4286 136.474C95.5189 151.302 139.368 132.43 122.837 120.971C106.306 109.513 104.769 91.598 95.5189 105.469Z" fill="#F7F8F8"/>
<path d="M93.8334 583.545C93.8334 583.545 68.8616 613.821 89.0736 631.683C109.286 649.544 139.988 642.844 152.703 613.417C152.703 613.417 118.832 635.12 104.728 622.125C90.2737 608.807 91.4063 604.628 93.8334 583.545Z" fill="#F7F8F8"/>
<path d="M298.354 261.166C298.354 261.166 296.237 235.176 298.354 235.701C300.471 236.227 303.492 253.751 302.656 261.166C302.656 261.166 322.045 261.84 322.045 264.536C322.045 267.232 303.168 265.884 303.168 265.884C303.168 265.884 305.865 280.712 303.168 282.06C300.471 283.408 299.123 265.884 299.123 265.884C299.123 265.884 285.639 268.58 284.291 267.232C282.942 265.884 294.875 260.491 298.354 261.166Z" fill="#F7F8F8"/>
<path d="M57.6023 316.461C57.6023 316.461 55.4854 290.472 57.6023 290.997C59.7193 291.523 62.7396 309.047 61.9036 316.461C61.9036 316.461 81.2932 317.135 81.2932 319.831C81.2932 322.527 62.416 321.179 62.416 321.179C62.416 321.179 65.1127 336.008 62.416 337.356C59.7193 338.704 58.3709 321.179 58.3709 321.179C58.3709 321.179 44.8872 323.875 43.5388 322.527C42.1904 321.179 54.1235 315.787 57.6023 316.461Z" fill="#F7F8F8"/>
<path d="M281.041 304.801C281.041 304.801 279.787 289.407 281.041 289.717C282.295 290.027 284.075 300.406 283.589 304.801C283.589 304.801 295.077 305.205 295.077 306.796C295.077 308.387 283.899 307.591 283.899 307.591C283.899 307.591 285.49 316.367 283.899 317.176C282.308 317.971 281.499 307.591 281.499 307.591C281.499 307.591 273.517 309.182 272.721 308.387C271.926 307.591 278.991 304.397 281.041 304.801Z" fill="#F7F8F8"/>
<path d="M87.6038 346.711C87.6038 346.711 86.3498 331.317 87.6038 331.627C88.8578 331.937 90.6376 342.317 90.1522 346.711C90.1522 346.711 101.64 347.115 101.64 348.706C101.64 350.297 90.4623 349.501 90.4623 349.501C90.4623 349.501 92.0534 358.277 90.4623 359.086C88.8713 359.881 88.0622 349.501 88.0622 349.501C88.0622 349.501 80.0799 351.092 79.2843 350.297C78.4888 349.501 85.5543 346.307 87.6038 346.711Z" fill="#F7F8F8"/>
<path d="M369.198 333.285C369.198 333.285 347.152 329.901 405.725 246.337C464.298 162.774 402.206 292.17 369.198 333.285Z" fill="url(#paint16_linear)"/>
<path d="M380.362 322.177C380.362 322.177 381.629 316.974 372.353 314.938C363.076 312.902 360.716 317.904 359.894 327.893C359.894 327.893 360.891 335.886 355.781 340.281C350.671 344.675 379.121 339.809 380.362 322.177Z" fill="#FDDA68"/>
<path d="M363.696 331.721C363.561 332.57 363.952 333.406 364.168 334.228C364.627 335.967 364.896 339.661 359.799 341.373C353.017 343.651 354.797 339.634 355.754 338.677C358.451 335.981 359.799 333.285 358.451 329.241C357.103 325.197 361.458 319.683 361.148 321.152C360.905 322.312 365.193 322.5 363.696 331.721Z" fill="#F7F8F8"/>
<path d="M392.807 536.728C392.807 536.728 390.69 510.738 392.807 511.264C394.924 511.79 397.945 529.314 397.109 536.728C397.109 536.728 416.498 537.402 416.498 540.098C416.498 542.794 397.621 541.446 397.621 541.446C397.621 541.446 400.318 556.274 397.621 557.622C394.924 558.97 393.576 541.446 393.576 541.446C393.576 541.446 380.092 544.142 378.744 542.794C377.395 541.446 389.342 536.054 392.807 536.728Z" fill="#F7F8F8"/>
<path d="M70.5465 672.878C70.5465 672.878 68.4296 646.888 70.5465 647.414C72.6635 647.94 75.6838 665.464 74.8478 672.878C74.8478 672.878 94.2374 673.552 94.2374 676.248C94.2374 678.944 75.3602 677.596 75.3602 677.596C75.3602 677.596 78.057 692.424 75.3602 693.772C72.6635 695.12 71.3151 677.596 71.3151 677.596C71.3151 677.596 57.8314 680.292 56.483 678.944C55.1347 677.596 67.0812 672.204 70.5465 672.878Z" fill="#F7F8F8"/>
<path d="M405.28 503.607C405.28 503.607 404.026 488.213 405.28 488.523C406.534 488.833 408.314 499.213 407.828 503.607C407.828 503.607 419.317 504.011 419.317 505.602C419.317 507.193 408.139 506.397 408.139 506.397C408.139 506.397 409.73 515.173 408.139 515.982C406.548 516.777 405.739 506.397 405.739 506.397C405.739 506.397 397.756 507.988 396.961 507.193C396.165 506.411 403.231 503.216 405.28 503.607Z" fill="#F7F8F8"/>
<path d="M134.257 572.356C134.257 572.356 133.003 556.962 134.257 557.272C135.511 557.582 137.291 567.962 136.806 572.356C136.806 572.356 148.294 572.761 148.294 574.351C148.294 575.942 137.116 575.147 137.116 575.147C137.116 575.147 138.707 583.922 137.116 584.731C135.525 585.526 134.716 575.147 134.716 575.147C134.716 575.147 126.733 576.737 125.938 575.942C125.142 575.16 132.208 571.965 134.257 572.356Z" fill="#F7F8F8"/>
<path d="M584.654 1014.67C584.654 1014.67 548.868 1045.46 532.243 1034.38C515.617 1023.3 565.493 981.75 565.493 981.75C565.493 981.75 576.132 974.767 584.667 975.495C593.189 976.21 614.898 994.961 584.654 1014.67Z" fill="black"/>
<path d="M588.968 928.166C588.968 928.166 542.193 919.081 535.398 915.427C528.588 911.774 615.167 970.103 615.167 970.103L708.34 942.684L588.968 928.166Z" fill="#CE9A09"/>
<path d="M609.343 707.401C609.343 707.401 573.786 718.616 579.328 798.945C584.87 879.273 590.411 859.875 590.411 859.875C590.411 859.875 619.968 723.887 609.343 707.401Z" fill="#FFCFDD"/>
<path d="M692.928 696.468C690.541 696.468 688.842 694.177 687.629 690.928H631.766C631.887 693.489 631.981 695.619 631.981 696.468C631.981 699.232 618.134 710.313 618.134 710.313C607.05 726.934 623.676 757.399 640.301 782.324C656.926 807.249 723.415 724.157 723.415 724.157C723.415 724.157 701.234 696.468 692.928 696.468Z" fill="#FFCFDD"/>
<path d="M656.683 941.781C656.683 941.781 611.284 936.241 601.508 929.123C591.732 922.006 604.272 901.421 604.272 865.416C604.272 829.41 600.2 798.352 600.2 798.352C600.2 798.352 585.045 777.04 600.2 754.757C615.356 732.461 609.814 710.313 609.814 710.313C609.814 710.313 615.356 696.468 620.898 704.772C626.44 713.076 618.134 746.318 643.065 751.859C667.996 757.399 692.928 715.853 695.705 699.232C698.47 682.611 715.095 704.772 709.553 710.313C704.011 715.853 695.705 771.243 742.804 785.101C742.804 785.101 773.075 889.694 753.793 898.334C734.484 906.962 678.608 943.358 656.683 941.781Z" fill="url(#paint17_linear)"/>
<path d="M709.553 707.549C709.553 707.549 781.839 724.224 775.098 813.194C769.623 885.474 652.733 880.19 652.733 880.19L656.899 859.889C656.899 859.889 737.33 864.418 742.777 785.101C742.777 785.101 722.498 782.189 712.304 768.48C704.038 757.372 701.22 743.555 703.998 724.17C706.776 704.772 709.553 707.549 709.553 707.549Z" fill="#FFCFDD"/>
<path d="M584.883 560.75C584.02 581.617 584.209 556.463 580.919 556.382C575.39 556.247 567.92 560.264 567.92 582.911C567.92 618.917 551.767 616.153 557.147 641.078C562.527 666.003 577.548 678.782 578.128 695.943C578.694 713.09 554.464 740.791 576.011 762.953C597.558 785.114 578.128 785.721 578.128 785.721C578.128 785.721 592.164 796.195 592.164 760.189C592.164 735.494 612.214 721.151 624.795 714.586C630.417 711.647 634.759 704.799 631.752 674.28L584.883 560.75Z" fill="black"/>
<path d="M684.608 671.543L637.509 555.209C637.509 555.209 568.244 527.508 571.021 588.452C573.785 649.382 579.327 654.922 590.411 674.307C601.494 693.691 631.01 679.888 631.01 679.888C631.01 679.888 631.685 698.962 631.968 704.772L687.615 693.691C684.622 685.617 684.608 671.543 684.608 671.543Z" fill="#FFCFDD"/>
<path d="M667.996 815.566L679.08 779.56C679.08 779.56 684.622 774.02 687.386 782.324L670.761 848.795L662.455 837.714L667.996 815.566Z" fill="white"/>
<path d="M510.385 805.618H700.398L733.258 937.4H562.877L527.011 902.554L510.385 805.618Z" fill="black"/>
<path d="M623.136 955.261C623.136 955.261 587.647 940.204 568.257 929.123C548.868 918.043 482.38 859.875 451.893 887.577C421.42 915.279 512.394 980.308 584.654 975.482C656.913 970.656 623.136 955.261 623.136 955.261Z" fill="url(#paint18_linear)"/>
<path d="M584.883 967.892C584.883 967.892 582.119 1009.44 595.966 1009.44C609.814 1009.44 661.457 998.358 721.513 988.665C781.583 978.973 853.613 929.11 825.904 904.185C777.659 860.779 709.553 931.887 584.883 967.892Z" fill="url(#paint19_linear)"/>
<path d="M616.232 858.878C614.21 857.341 611.378 857.274 609.275 858.689C603.692 862.45 593.822 871.28 604.205 881.673C617.068 894.506 629.918 869.244 616.232 858.878Z" fill="white"/>
<path d="M622.826 859.08C627.802 864.054 632.777 855.643 629.312 850.723C628.071 848.957 625.509 848.741 623.837 850.116C621.532 852.017 619.037 855.306 622.826 859.08Z" fill="white"/>
<path d="M572.828 565.306C572.828 565.306 595.966 591.215 626.439 596.755C656.913 602.296 662.454 618.917 670.76 643.842C679.565 670.249 679.066 699.232 698.469 715.853C717.859 732.474 704.389 752.371 704.389 752.371C704.389 752.371 728.943 735.237 709.553 710.313C690.163 685.388 706.789 643.842 701.247 624.457C696.622 608.254 712.331 563.527 665.232 541.365C618.12 519.204 599.553 531.08 572.828 565.306Z" fill="black"/>
<path d="M688.613 579.609C688.613 579.609 701.247 628.73 706.789 640.162C713.801 654.626 726.179 657.308 726.179 674.455C726.179 691.602 733.311 709.396 740.053 722.876C740.053 722.876 717.131 708.048 710.389 708.048C699.494 708.048 682.343 656.985 682.1 655.718C681.844 654.451 688.613 579.609 688.613 579.609Z" fill="black"/>
</g>
<defs>
<linearGradient id="paint0_linear" x1="360" y1="0" x2="360" y2="1024" gradientUnits="userSpaceOnUse">
<stop stop-color="#4666DA"/>
<stop offset="1" stop-color="#D53DD8"/>
</linearGradient>
<linearGradient id="paint1_linear" x1="371" y1="48" x2="371" y2="1072" gradientUnits="userSpaceOnUse">
<stop stop-color="#A036FE"/>
<stop offset="1" stop-color="#7336FE" stop-opacity="0"/>
</linearGradient>
<linearGradient id="paint2_linear" x1="0" y1="909.008" x2="719.815" y2="909.008" gradientUnits="userSpaceOnUse">
<stop stop-color="#FFCFDD"/>
<stop offset="0.2587" stop-color="#FD86AA"/>
</linearGradient>
<linearGradient id="paint3_linear" x1="0" y1="983.49" x2="864" y2="983.49" gradientUnits="userSpaceOnUse">
<stop stop-color="#FD86AA"/>
<stop offset="0.6571" stop-color="#DF6488"/>
</linearGradient>
<linearGradient id="paint4_linear" x1="2.48109" y1="411.398" x2="594.215" y2="411.398" gradientUnits="userSpaceOnUse">
<stop stop-color="#A8E3F9"/>
<stop offset="0.2587" stop-color="#22BBEE"/>
</linearGradient>
<linearGradient id="paint5_linear" x1="110.765" y1="823.99" x2="264.272" y2="823.99" gradientUnits="userSpaceOnUse">
<stop stop-color="#A8E3F9"/>
<stop offset="0.0112" stop-color="#A6E2F9"/>
<stop offset="0.2443" stop-color="#77D4F5"/>
<stop offset="0.4668" stop-color="#52C9F2"/>
<stop offset="0.6729" stop-color="#38C1F0"/>
<stop offset="0.8568" stop-color="#28BDEE"/>
<stop offset="1" stop-color="#22BBEE"/>
</linearGradient>
<linearGradient id="paint6_linear" x1="503.699" y1="541.824" x2="573.607" y2="541.824" gradientUnits="userSpaceOnUse">
<stop stop-color="#A8E3F9"/>
<stop offset="0.0112" stop-color="#A6E2F9"/>
<stop offset="0.2443" stop-color="#77D4F5"/>
<stop offset="0.4668" stop-color="#52C9F2"/>
<stop offset="0.6729" stop-color="#38C1F0"/>
<stop offset="0.8568" stop-color="#28BDEE"/>
<stop offset="1" stop-color="#22BBEE"/>
</linearGradient>
<linearGradient id="paint7_linear" x1="504.356" y1="446.483" x2="528.675" y2="446.483" gradientUnits="userSpaceOnUse">
<stop stop-color="#A8E3F9"/>
<stop offset="0.0112" stop-color="#A6E2F9"/>
<stop offset="0.2443" stop-color="#77D4F5"/>
<stop offset="0.4668" stop-color="#52C9F2"/>
<stop offset="0.6729" stop-color="#38C1F0"/>
<stop offset="0.8568" stop-color="#28BDEE"/>
<stop offset="1" stop-color="#22BBEE"/>
</linearGradient>
<linearGradient id="paint8_linear" x1="215.152" y1="857.085" x2="258.324" y2="857.085" gradientUnits="userSpaceOnUse">
<stop stop-color="#A8E3F9"/>
<stop offset="0.0112" stop-color="#A6E2F9"/>
<stop offset="0.2443" stop-color="#77D4F5"/>
<stop offset="0.4668" stop-color="#52C9F2"/>
<stop offset="0.6729" stop-color="#38C1F0"/>
<stop offset="0.8568" stop-color="#28BDEE"/>
<stop offset="1" stop-color="#22BBEE"/>
</linearGradient>
<linearGradient id="paint9_linear" x1="311.023" y1="660.336" x2="448.804" y2="660.336" gradientUnits="userSpaceOnUse">
<stop stop-color="#FEF0C3"/>
<stop offset="0.6571" stop-color="#FDDA68"/>
</linearGradient>
<linearGradient id="paint10_linear" x1="274.852" y1="675.012" x2="440.702" y2="675.012" gradientUnits="userSpaceOnUse">
<stop stop-color="#FD86AA"/>
<stop offset="0.6571" stop-color="#DF6488"/>
</linearGradient>
<linearGradient id="paint11_linear" x1="241.64" y1="671.694" x2="475.65" y2="671.694" gradientUnits="userSpaceOnUse">
<stop offset="0.233" stop-color="#FEF0C3"/>
<stop offset="0.8872" stop-color="#FDDA68"/>
</linearGradient>
<linearGradient id="paint12_linear" x1="114.396" y1="426.816" x2="250.21" y2="426.816" gradientUnits="userSpaceOnUse">
<stop stop-color="#FD86AA"/>
<stop offset="0.6571" stop-color="#DF6488"/>
</linearGradient>
<linearGradient id="paint13_linear" x1="190.739" y1="401.697" x2="443.723" y2="525.403" gradientUnits="userSpaceOnUse">
<stop offset="0.1605" stop-color="#FEF0C3"/>
<stop offset="1" stop-color="#FDDA68"/>
</linearGradient>
<linearGradient id="paint14_linear" x1="121.492" y1="517.696" x2="256.499" y2="517.696" gradientUnits="userSpaceOnUse">
<stop stop-color="#FD86AA"/>
<stop offset="0.6571" stop-color="#DF6488"/>
</linearGradient>
<linearGradient id="paint15_linear" x1="33.8383" y1="187.313" x2="269.459" y2="187.313" gradientUnits="userSpaceOnUse">
<stop stop-color="#FFCFDD"/>
<stop offset="1" stop-color="#FD86AA"/>
</linearGradient>
<linearGradient id="paint16_linear" x1="365.135" y1="276.041" x2="429.905" y2="276.041" gradientUnits="userSpaceOnUse">
<stop stop-color="#FD86AA"/>
<stop offset="1" stop-color="#DF6488"/>
</linearGradient>
<linearGradient id="paint17_linear" x1="593.467" y1="817.495" x2="760.206" y2="817.495" gradientUnits="userSpaceOnUse">
<stop stop-color="#FD8EAA"/>
<stop offset="0.4941" stop-color="#F07B9B"/>
<stop offset="1" stop-color="#DF6488"/>
</linearGradient>
<linearGradient id="paint18_linear" x1="445.849" y1="927.958" x2="631.018" y2="927.958" gradientUnits="userSpaceOnUse">
<stop offset="0.223" stop-color="#FDDA68"/>
<stop offset="0.4345" stop-color="#FCD865"/>
<stop offset="0.584" stop-color="#F7D25C"/>
<stop offset="0.7143" stop-color="#EFC74C"/>
<stop offset="0.8336" stop-color="#E4B936"/>
<stop offset="0.9444" stop-color="#D7A61A"/>
<stop offset="1" stop-color="#CE9A09"/>
</linearGradient>
<linearGradient id="paint19_linear" x1="584.651" y1="950.011" x2="832.02" y2="950.011" gradientUnits="userSpaceOnUse">
<stop stop-color="#FEF0C3"/>
<stop offset="0.6571" stop-color="#FDDA68"/>
</linearGradient>
<clipPath id="clip0">
<rect width="856" height="1072" fill="white"/>
</clipPath>
</defs>
</svg>
