<svg width="845" height="1030" viewBox="0 0 845 1030" fill="none" xmlns="http://www.w3.org/2000/svg">
<path d="M1 0H721V1024H1V0Z" fill="url(#paint0_linear)"/>
<path d="M713.6 398.427C694.238 379.056 692.37 438.751 682.899 456.337C674.564 471.826 600.157 468.674 571.728 426.807C543.3 384.954 530.851 461.071 550.539 476.871C570.226 492.671 679.381 520.524 697.147 483.486C714.913 446.448 723.153 408.004 713.6 398.427Z" fill="#A8E3F9"/>
<path d="M709.054 389.161C689.691 369.776 687.824 429.485 678.352 447.071C670.017 462.559 595.611 459.408 567.182 417.541C538.753 375.688 526.305 451.805 545.992 467.605C565.68 483.405 674.834 511.257 692.601 474.22C710.38 437.169 718.621 398.724 709.054 389.161Z" fill="url(#paint1_linear)"/>
<path d="M2 716.183C2 716.183 268.932 655.443 479.209 794.719C689.485 933.994 708 1030 708 1030L0.5 1023L2 716.183Z" fill="url(#paint2_linear)"/>
<path d="M1 984.749C1 984.749 190.901 861 410.264 861C543.211 861 664.192 898.856 845 1030L1 1023.5V984.749Z" fill="url(#paint3_linear)"/>
<path d="M12.345 11.2908C12.345 11.2908 -30.1828 141.152 49.6499 193.909C129.483 246.665 168.709 242.025 178.871 318.075C189.032 394.125 267.498 426.577 298.62 410.344C329.741 394.112 492.099 324.23 546.899 378.785C601.7 433.341 655.837 453.631 674.781 403.581C693.724 353.53 715.373 342.816 716.05 323.148C716.727 303.479 716.05 11.2908 716.05 11.2908H12.345Z" fill="#A8E3F9"/>
<path d="M18.3111 0C18.3111 0 -24.1976 127.116 55.5992 178.757C135.396 230.398 174.605 225.856 184.762 300.298C194.919 374.741 273.35 406.506 304.457 390.617C335.564 374.727 497.849 306.323 552.625 359.725C607.401 413.127 661.514 432.989 680.449 383.996C699.383 335.004 721.023 324.517 721.699 305.264C722.376 286.011 721.699 0 721.699 0H18.3111Z" fill="url(#paint4_linear)"/>
<path d="M18.1906 367.448C8.6377 353.326 2.9141 337.972 4.17248 329.18C5.63383 319.007 13.1029 311.675 38.5547 327.516C83.6804 355.598 96.5755 483.377 18.1906 367.448Z" fill="#A8E3F9"/>
<path d="M24.6583 365.135C15.1055 351.013 9.38187 335.659 10.6403 326.866C12.1016 316.694 19.5707 309.362 45.0224 325.203C90.1482 353.285 103.043 481.05 24.6583 365.135Z" fill="url(#paint5_linear)"/>
<path d="M63.8303 144.818C63.8303 144.818 63.8032 156.425 68.079 156.655C72.3548 156.885 83.3149 156.249 76.9554 140.665C70.5958 125.082 62.6802 144.913 62.6802 144.913L63.8303 144.818Z" fill="black"/>
<path d="M68.9992 64.6558C61.273 58.8391 50.8677 58.1492 42.059 62.1262C29.4211 67.8212 11.912 81.1726 32.1138 107.632C61.2459 145.792 58.4991 139.651 58.4991 139.651L78.958 134.01C78.958 134.01 81.6236 101.68 81.3259 92.6707C81.0959 86.1506 79.6075 72.6504 68.9992 64.6558Z" fill="url(#paint6_linear)"/>
<path d="M58.4987 139.651C58.4987 139.651 55.6707 147.172 60.9749 148.646C66.279 150.121 91.5684 143.154 78.944 134.01C78.9575 134.01 68.5116 132.684 58.4987 139.651Z" fill="#F7F8F8"/>
<path d="M30.6656 60.0295C30.6656 60.0295 7.92007 11.372 19.0831 20.4758C30.2462 29.5797 30.6656 60.0295 30.6656 60.0295Z" fill="#F7F8F8"/>
<path d="M65.4131 53.6717C65.4131 53.6717 78.051 1.47005 81.0819 15.5519C84.1264 29.6202 65.4131 53.6717 65.4131 53.6717Z" fill="#F7F8F8"/>
<path d="M416.055 156.682L491.652 31.5682C491.652 31.5682 557.061 42.4035 574.651 80.2798L493.465 197.967L416.055 156.682Z" fill="white"/>
<path d="M433.929 146.563L493.465 43.7562C493.465 43.7562 534.41 41.3619 566.709 81.1049L495.346 180.084L433.929 146.563Z" fill="#FFCFDD"/>
<path d="M453.157 128.64C457.379 125.095 463.427 124.757 468.285 127.341C478.23 132.617 501.124 145.062 504.277 149.269C508.336 154.679 500.218 168.207 492.099 165.501C486.037 163.486 464.861 150.878 454.537 144.642C449.098 141.355 447.907 133.739 452.44 129.275C452.67 129.059 452.913 128.842 453.157 128.64Z" fill="url(#paint7_linear)"/>
<path d="M502.937 64.047C502.937 64.047 485.063 67.4694 495.346 80.645C505.63 93.8205 494.264 99.0691 505.373 98.4739C516.468 97.8787 535.411 104.642 532.705 88.4096C529.999 72.1769 519.174 62.6943 502.937 64.047Z" fill="white"/>
<path d="M380.631 22.2615C380.631 22.2615 355.571 52.6437 375.854 70.5672C396.137 88.4773 426.947 81.7678 439.707 52.2378C439.707 52.2378 405.717 74.0167 391.564 60.9764C377.059 47.6115 378.182 43.4045 380.631 22.2615Z" fill="#F7F8F8"/>
<path d="M357.263 111.893C357.263 111.893 355.138 85.8124 357.263 86.3399C359.387 86.8675 362.418 104.453 361.579 111.893C361.579 111.893 381.037 112.569 381.037 115.275C381.037 117.98 362.093 116.627 362.093 116.627C362.093 116.627 364.8 131.507 362.093 132.86C359.387 134.213 358.034 116.627 358.034 116.627C358.034 116.627 344.503 119.333 343.15 117.98C341.797 116.627 353.772 111.217 357.263 111.893Z" fill="#F7F8F8"/>
<path d="M420.411 19.1416C420.411 19.1416 419.153 3.69351 420.411 4.00464C421.669 4.31576 423.469 14.7317 422.968 19.1416C422.968 19.1416 434.497 19.5474 434.497 21.1436C434.497 22.7399 423.28 21.9418 423.28 21.9418C423.28 21.9418 424.876 30.748 423.28 31.5596C421.683 32.3577 420.871 21.9418 420.871 21.9418C420.871 21.9418 412.861 23.538 412.062 22.7399C411.264 21.9418 418.354 18.7358 420.411 19.1416Z" fill="#F7F8F8"/>
<path d="M396.949 313.963C396.949 313.963 394.825 287.882 396.949 288.41C399.074 288.937 402.105 306.523 401.266 313.963C401.266 313.963 420.723 314.639 420.723 317.345C420.723 320.05 401.78 318.697 401.78 318.697C401.78 318.697 404.486 333.577 401.78 334.93C399.074 336.283 397.72 318.697 397.72 318.697C397.72 318.697 384.19 321.403 382.836 320.05C381.483 318.697 393.472 313.286 396.949 313.963Z" fill="#F7F8F8"/>
<path d="M372.931 279.374C372.931 279.374 371.673 263.926 372.931 264.237C374.19 264.548 375.976 274.964 375.489 279.374C375.489 279.374 387.017 279.779 387.017 281.376C387.017 282.972 375.8 282.174 375.8 282.174C375.8 282.174 377.397 290.98 375.8 291.792C374.203 292.59 373.392 282.174 373.392 282.174C373.392 282.174 365.381 283.77 364.583 282.972C363.785 282.174 370.875 278.968 372.931 279.374Z" fill="#F7F8F8"/>
<path d="M579.617 155.694C579.617 155.694 577.493 129.614 579.617 130.141C581.742 130.669 584.772 148.254 583.934 155.694C583.934 155.694 603.391 156.371 603.391 159.076C603.391 161.781 584.448 160.429 584.448 160.429C584.448 160.429 587.154 175.309 584.448 176.661C581.742 178.014 580.388 160.429 580.388 160.429C580.388 160.429 566.858 163.134 565.504 161.781C564.151 160.429 576.14 155.018 579.617 155.694Z" fill="#F7F8F8"/>
<path d="M552.893 186.036C552.893 186.036 551.635 170.588 552.893 170.899C554.152 171.21 555.938 181.626 555.451 186.036C555.451 186.036 566.979 186.441 566.979 188.038C566.979 189.634 555.762 188.836 555.762 188.836C555.762 188.836 557.359 197.642 555.762 198.454C554.165 199.252 553.353 188.836 553.353 188.836C553.353 188.836 545.343 190.432 544.545 189.634C543.746 188.836 550.837 185.63 552.893 186.036Z" fill="#F7F8F8"/>
<path d="M146.924 126.218C146.924 126.218 144.799 100.138 146.924 100.665C149.048 101.193 152.079 118.778 151.24 126.218C151.24 126.218 170.698 126.895 170.698 129.6C170.698 132.306 151.754 130.953 151.754 130.953C151.754 130.953 154.461 145.833 151.754 147.185C149.048 148.538 147.695 130.953 147.695 130.953C147.695 130.953 134.164 133.658 132.811 132.306C131.458 130.953 143.446 125.542 146.924 126.218Z" fill="#F7F8F8"/>
<path d="M122.92 91.6291C122.92 91.6291 121.661 76.181 122.92 76.4921C124.178 76.8033 125.964 87.2192 125.477 91.6291C125.477 91.6291 137.006 92.0349 137.006 93.6311C137.006 95.2273 125.788 94.4292 125.788 94.4292C125.788 94.4292 127.385 103.235 125.788 104.047C124.192 104.845 123.38 94.4292 123.38 94.4292C123.38 94.4292 115.37 96.0255 114.571 95.2273C113.759 94.4292 120.85 91.2368 122.92 91.6291Z" fill="#F7F8F8"/>
<path d="M398.262 436.79C381.849 441.389 365.463 441.971 357.52 437.994C348.333 433.395 343.718 423.993 366.789 404.852C407.693 370.926 533.03 399.036 398.262 436.79Z" fill="#A8E3F9"/>
<path d="M398.099 429.932C381.686 434.531 365.3 435.113 357.357 431.136C348.17 426.536 343.556 417.135 366.626 397.994C407.544 364.054 532.881 392.177 398.099 429.932Z" fill="url(#paint8_linear)"/>
<path d="M727.984 926.746C727.984 926.746 761.351 945.86 755.547 977.771C749.742 1009.68 781.662 960.375 772.948 940.071L738.132 911.068C738.146 911.055 714.94 922.134 727.984 926.746Z" fill="#FFCFDD"/>
<path d="M540.134 954.41C540.134 954.41 549.565 983.575 546.669 992.273C543.774 1000.97 520.554 1003.88 529.268 1006.77C537.969 1009.67 578.589 1003.88 575.693 992.273C572.77 980.666 571.309 913.639 540.134 954.41Z" fill="#FFCFDD"/>
<path d="M642.401 577.513C633.7 554.314 633.998 541.802 622.009 517.033C616.8 503.533 610.197 493.009 601.767 485.122C601.862 485.244 602.105 485.555 602.457 486.056C606.679 492.021 627.314 525.677 622.104 606.529C622.104 606.529 632.455 626.536 621.198 651.264C621.143 651.399 621.103 651.548 621.035 651.683C610.495 676.141 613.255 696.648 622.023 695.092C622.036 695.092 622.05 695.092 622.05 695.079C622.97 694.849 623.958 694.362 625 693.537L633.605 681.254C635.554 677.71 638.084 673.665 641.954 669.323C654.01 655.823 660.87 626.739 642.401 577.513Z" fill="#DF6488"/>
<path d="M621.022 651.657C621.076 651.521 621.13 651.373 621.184 651.237C620.562 652.59 619.926 653.956 619.168 655.336C609.561 672.962 613.025 697.176 622.01 695.066C613.242 696.621 610.495 676.127 621.022 651.657Z" fill="#EA6E97"/>
<path d="M601.754 485.096C601.997 485.42 602.214 485.718 602.458 486.043C602.106 485.542 601.862 485.231 601.767 485.109C601.767 485.109 601.754 485.109 601.754 485.096Z" fill="#EA6E97"/>
<path d="M495.888 631.163C495.888 631.163 577.127 642.769 606.138 636.966C606.138 636.966 632.253 665.968 629.343 741.383C626.448 816.797 725.089 857.406 748.294 906.713C748.294 906.713 730.893 929.912 719.284 929.912C707.674 929.912 600.333 834.193 582.932 787.795C582.932 787.795 565.531 738.488 562.622 709.486L559.727 825.509C559.727 825.509 559.727 845.813 562.622 857.419C565.518 869.026 577.127 900.923 574.232 950.23C574.232 950.23 556.831 958.928 533.612 953.125C533.612 953.125 492.992 844.311 495.901 740.639C498.81 636.966 495.888 631.163 495.888 631.163Z" fill="url(#paint9_linear)"/>
<path d="M758.456 1003.88C758.456 1003.88 796.167 951.677 784.571 945.874C772.961 940.071 772.961 937.176 770.065 940.071C767.17 942.966 765.451 967.856 756.156 972.82C746.846 977.771 749.755 1015.47 758.456 1003.88Z" fill="black"/>
<path d="M575.829 1009.78C575.829 1009.78 558.279 1012.58 543.774 1018.38C529.269 1024.18 500.258 1027.08 514.763 1012.58C529.269 998.076 539.078 1009.53 551.581 1000.9C564.084 992.273 575.693 986.469 575.693 992.273C575.68 998.076 581.769 1006.98 575.829 1009.78Z" fill="black"/>
<path d="M622.091 606.516C622.091 606.516 631.427 626.97 621.184 651.251C632.455 626.51 622.091 606.516 622.091 606.516Z" fill="#DF6488"/>
<path d="M601.713 485.042C601.726 485.069 601.74 485.082 601.754 485.109L601.767 485.123C601.74 485.069 601.713 485.042 601.713 485.042Z" fill="#DF6488"/>
<path d="M633.606 681.241L641.955 669.31C638.071 673.652 635.554 677.697 633.606 681.241Z" fill="#EA6E97"/>
<path d="M602.457 486.043C602.214 485.718 601.997 485.42 601.754 485.096C588.25 472.475 570.023 466.55 545.221 465.846C494.453 464.399 482.843 354.179 481.504 348.376C480.164 342.573 453.833 348.376 453.833 348.376C453.833 348.376 459.638 386.076 462.533 429.593C465.429 473.111 490.962 519.509 490.962 519.509C490.962 519.509 497.349 539.8 488.648 580.409C479.948 621.017 495.752 619.245 495.752 619.245C494.155 626.171 495.901 631.163 495.901 631.163C566.979 647.111 598.899 638.413 606.151 636.966C613.404 635.519 613.404 623.912 613.404 623.912C616.543 623.912 618.532 622.871 619.804 621.531C619.804 621.531 622.104 612.319 622.104 606.516C627.314 525.664 606.665 492.008 602.457 486.043Z" fill="url(#paint10_linear)"/>
<path d="M495.739 619.245C495.739 619.245 494.44 623.912 495.888 631.163C497.335 638.413 587.276 647.112 606.138 636.966C606.138 636.966 616.286 632.61 613.391 623.912C613.391 623.912 581.187 634.869 495.739 619.245Z" fill="#DF6488"/>
<path d="M477.539 346.049C477.539 346.049 477.025 328.072 474.13 304.872C471.234 281.673 479.934 270.067 479.934 255.566C479.934 241.064 479.934 233.002 479.934 233.002C479.934 233.002 475.848 237.223 473.534 252.197C471.221 267.172 445.119 249.762 448.015 270.067C450.911 290.371 459.625 296.174 456.715 313.57C453.82 330.966 456.715 351.271 456.715 351.271C456.715 351.271 478.054 361.119 477.539 346.049Z" fill="#FFCFDD"/>
<path d="M534.289 463.709C534.289 463.709 530.987 531.115 490.949 519.509C490.949 519.509 466.634 476.127 461.681 418.055C456.729 359.982 453.82 348.376 453.82 348.376C453.82 348.376 465.659 362.877 481.491 348.376C481.504 348.376 491.544 444.095 534.289 463.709Z" fill="url(#paint11_linear)"/>
<path d="M574.232 950.216C574.232 950.216 555.37 960.362 533.612 953.111C533.612 953.111 488.648 831.244 495.901 740.625C495.888 740.639 517.659 951.664 574.232 950.216Z" fill="#FDE595"/>
<path d="M601.713 819.097C601.713 819.097 683.034 919.766 719.298 929.912C755.547 940.057 578.413 779.34 601.713 819.097Z" fill="#FDE595"/>
<path d="M626.448 707.254C626.448 707.254 623.782 716.29 622.943 733.916C622.104 751.542 625.69 792.34 651.453 803.852C651.453 803.852 627.896 768.951 629.357 741.396C630.805 713.828 627.882 694.863 626.448 707.254Z" fill="#EDC964"/>
<path d="M562.622 709.486C562.622 709.486 547.806 786.97 560.295 840.321C560.282 840.307 561.175 713.828 562.622 709.486Z" fill="#EDC964"/>
<path d="M479.934 244.054C479.934 244.054 476.376 245.096 478.162 235.829C479.948 226.563 479.934 232.542 479.934 244.054Z" fill="#DF6488"/>
<path d="M549.565 391.88C549.565 391.88 526.359 436.993 545.208 450.696C564.07 464.399 569.875 412.184 549.565 391.88Z" fill="#FFCFDD"/>
<path d="M601.713 379.178C601.713 379.178 628.64 382.167 626.448 426.455C625 455.701 610.495 452.793 610.495 476.005C610.495 499.218 607.599 489.384 607.599 505.008C607.599 516.614 603.486 514.923 598.899 519.509C596.003 522.404 601.794 531.115 601.794 531.115C601.794 531.115 592.444 524.014 595.989 516.614C598.425 511.528 602.971 506.834 601.794 502.113C601.794 502.113 595.908 491.602 598.899 484.717C598.899 484.717 601.794 490.52 604.703 505.021C606.138 512.164 593.094 513.53 593.094 519.523C593.094 534.024 580.307 539.827 575.693 539.827C573.447 539.827 581.809 528.058 578.589 522.431C576.18 518.224 578.589 510.825 569.888 507.93C558.536 504.142 560.917 450.425 562.162 433.178C564.083 406.408 549.578 391.907 549.578 391.907C549.578 391.907 543.097 389.702 563.745 379.205C584.38 368.68 601.713 379.178 601.713 379.178Z" fill="black"/>
<path d="M561.174 415.092C561.174 415.092 556.384 447.287 552.974 458.745C549.565 470.202 546.669 473.097 543.76 473.097C543.76 473.097 550.715 477.696 554.49 468.146C558.265 458.596 567.601 479.604 558.265 513.706C554.855 526.165 564.07 539.814 564.07 539.814C564.07 539.814 563.989 527.382 566.965 522.418C575.666 507.916 572.77 496.31 572.77 496.31L561.174 415.092Z" fill="black"/>
<path d="M611.104 471.42C611.104 471.42 610.495 481.795 616.3 493.401C622.104 505.008 616.3 512.421 616.3 515.965C616.3 519.509 622.104 525.312 622.943 525.015C622.943 525.015 605.718 530.02 605.204 517.507C604.69 504.994 611.104 471.42 611.104 471.42Z" fill="black"/>
<path d="M564.07 519.496C564.07 519.496 561.175 525.299 564.07 528.194C566.966 531.088 566.966 543.344 564.07 544.467C564.07 544.467 572.771 539.786 572.771 533.983C572.771 528.18 580.605 520.835 580.605 520.835C580.605 520.835 566.979 490.493 564.07 519.496Z" fill="black"/>
<path d="M558.942 466.442C558.942 466.442 559.293 471.109 550.079 477.899C540.864 484.704 550.079 493.117 550.079 493.117C550.079 493.117 546.655 485.204 552.46 482.052C558.265 478.9 562.784 472.258 562.784 472.258L558.942 466.442Z" fill="black"/>
<path d="M560.687 480.686C560.687 480.686 561.012 488.275 552.379 493.74C543.747 499.205 546.656 507.145 546.656 507.903C546.656 510.798 543.76 513.706 540.851 513.706C540.851 513.706 550.837 516.114 552.461 505.008C552.461 505.008 555.356 493.402 565.22 499.597C574.503 505.414 560.687 480.686 560.687 480.686Z" fill="black"/>
<path d="M551.486 463.655C551.486 463.655 555.41 466.848 556.845 471.42C558.279 475.992 550.039 484.122 555.613 493.117C561.188 502.1 558.279 513.706 558.279 513.706C558.279 513.706 588.209 445.515 551.486 463.655Z" fill="black"/>
<path d="M61.8276 237.196C61.8276 237.196 71.2993 281.836 122.717 285.894C154.001 288.369 140.537 409.316 202.55 418.461C285.089 430.635 323.111 455.877 272.911 454.984C197.137 453.631 120.498 453.659 107.4 392.096C94.302 330.534 27.9596 291.44 22.5878 289.952C-1.76791 283.188 -19.0605 166.367 61.8276 237.196Z" fill="#A8E3F9"/>
<path d="M59.1214 230.432C59.1214 230.432 86.1833 254.781 132.189 269.661C177.152 284.203 151.754 403.094 212.644 417.974C273.533 432.854 316.805 449.492 277.579 445.231C238.353 440.97 130.592 453.172 117.494 391.609C104.396 330.047 38.0536 290.953 32.6818 289.465C8.32611 282.701 -21.7668 159.603 59.1214 230.432Z" fill="url(#paint12_linear)"/>
<path d="M607.897 192.583C607.897 192.583 680.68 185.129 693.981 272.475C706.01 351.46 556.858 422.018 529.106 346.915C489.65 240.104 614.107 267.957 594.068 225.562C579.211 194.166 607.897 192.583 607.897 192.583Z" fill="#FDE595"/>
<path d="M597.18 357.521C597.18 357.521 585.34 372.522 570.686 358.346C556.032 344.169 585.692 274.328 597.18 357.521Z" fill="#DF6488"/>
<path d="M603.161 218.988C605.082 204.189 659.071 191.041 615.23 234.179C615.23 234.179 601.239 233.787 603.161 218.988Z" fill="#22BBEE"/>
<path d="M645.148 323.053C656.297 333.144 647.989 351.826 633.038 350.175C632.821 350.148 632.605 350.121 632.388 350.094C611.753 347.429 593.311 276.141 645.148 323.053Z" fill="#FFCFDD"/>
<path d="M671.804 279.468C685.646 283.662 686.079 303.317 672.399 308.024C672.209 308.092 672.006 308.16 671.804 308.227C652.765 314.355 607.477 259.948 671.804 279.468Z" fill="white"/>
<path d="M647.421 231.609C656.013 221.112 673.211 227.754 672.399 241.294C672.385 241.484 672.372 241.687 672.358 241.876C670.87 260.584 607.504 280.388 647.421 231.609Z" fill="#EDC964"/>
<path d="M257.526 164.46C257.526 164.46 297.212 123.77 210.925 225.17C182.957 258.041 165.948 281.822 155.733 298.975C153.202 300.043 151.186 300.422 149.792 299.976C158.371 282.931 167.897 264.872 174.5 249.059C193.173 204.311 249.949 158.643 249.949 158.643C249.949 158.643 256.362 151.284 265.631 141.558C267.052 143.533 268.581 146.374 269.555 150.189C262.438 158.156 257.526 164.46 257.526 164.46Z" fill="url(#paint13_linear)"/>
<path d="M233.048 315.681C279.007 315.681 316.264 278.434 316.264 232.488C316.264 186.542 279.007 149.296 233.048 149.296C187.09 149.296 149.833 186.542 149.833 232.488C149.833 278.434 187.09 315.681 233.048 315.681Z" fill="url(#paint14_linear)"/>
<path d="M149.792 299.976C151.186 300.408 153.202 300.043 155.733 298.975C134.408 334.741 142.608 341.626 142.608 341.626C209.884 326.976 330.566 118.021 312.543 117.48C301.082 117.141 281.936 136.242 269.528 150.188C268.554 146.374 267.025 143.533 265.604 141.558C286.631 119.522 322.407 85.3659 331.716 97.3917C345.139 114.734 280.326 213.307 260.692 240.442C241.059 267.578 158.98 369.79 136.275 363.229C121.607 358.981 134.083 331.183 149.792 299.976Z" fill="url(#paint15_linear)"/>
<defs>
<linearGradient id="paint0_linear" x1="361" y1="0" x2="361" y2="1024" gradientUnits="userSpaceOnUse">
<stop stop-color="#4666DA"/>
<stop offset="1" stop-color="#D53DD8"/>
</linearGradient>
<linearGradient id="paint1_linear" x1="622.524" y1="393.33" x2="636.49" y2="569.388" gradientUnits="userSpaceOnUse">
<stop stop-color="#A8E3F9"/>
<stop offset="0.1075" stop-color="#80D7F6"/>
<stop offset="0.303" stop-color="#3DC3F0"/>
<stop offset="0.3947" stop-color="#22BBEE"/>
</linearGradient>
<linearGradient id="paint2_linear" x1="2" y1="866.501" x2="708" y2="866.501" gradientUnits="userSpaceOnUse">
<stop stop-color="#FFCFDD"/>
<stop offset="0.2587" stop-color="#FD86AA"/>
</linearGradient>
<linearGradient id="paint3_linear" x1="1" y1="945.501" x2="845" y2="945.501" gradientUnits="userSpaceOnUse">
<stop stop-color="#FD86AA"/>
<stop offset="0.6571" stop-color="#DF6488"/>
</linearGradient>
<linearGradient id="paint4_linear" x1="687.434" y1="-0.128456" x2="81.1488" y2="371.161" gradientUnits="userSpaceOnUse">
<stop stop-color="#A8E3F9"/>
<stop offset="0.1075" stop-color="#80D7F6"/>
<stop offset="0.303" stop-color="#3DC3F0"/>
<stop offset="0.3947" stop-color="#22BBEE"/>
</linearGradient>
<linearGradient id="paint5_linear" x1="66.8199" y1="349.559" x2="9.56324" y2="391.088" gradientUnits="userSpaceOnUse">
<stop stop-color="#A8E3F9"/>
<stop offset="0.1075" stop-color="#80D7F6"/>
<stop offset="0.303" stop-color="#3DC3F0"/>
<stop offset="0.3947" stop-color="#22BBEE"/>
</linearGradient>
<linearGradient id="paint6_linear" x1="52.5631" y1="89.5946" x2="81.1317" y2="121.79" gradientUnits="userSpaceOnUse">
<stop stop-color="#FEF0C3"/>
<stop offset="0.6571" stop-color="#FDDA68"/>
</linearGradient>
<linearGradient id="paint7_linear" x1="449.666" y1="145.753" x2="505.372" y2="145.753" gradientUnits="userSpaceOnUse">
<stop stop-color="#EA6E97"/>
</linearGradient>
<linearGradient id="paint8_linear" x1="396.629" y1="385.034" x2="417.933" y2="452.468" gradientUnits="userSpaceOnUse">
<stop stop-color="#A8E3F9"/>
<stop offset="0.1075" stop-color="#80D7F6"/>
<stop offset="0.303" stop-color="#3DC3F0"/>
<stop offset="0.3947" stop-color="#22BBEE"/>
</linearGradient>
<linearGradient id="paint9_linear" x1="495.745" y1="793.139" x2="748.3" y2="793.139" gradientUnits="userSpaceOnUse">
<stop stop-color="#FDE595"/>
<stop offset="0.7325" stop-color="#FDDA68"/>
</linearGradient>
<linearGradient id="paint10_linear" x1="453.825" y1="493.218" x2="622.935" y2="493.218" gradientUnits="userSpaceOnUse">
<stop stop-color="#FD8EAA"/>
<stop offset="0.4941" stop-color="#F07B9B"/>
<stop offset="1" stop-color="#DF6488"/>
</linearGradient>
<linearGradient id="paint11_linear" x1="454.849" y1="438.664" x2="534.103" y2="424.745" gradientUnits="userSpaceOnUse">
<stop stop-color="#E2698C"/>
<stop offset="0.6031" stop-color="#FD8EAA"/>
</linearGradient>
<linearGradient id="paint12_linear" x1="180.009" y1="298.901" x2="-16.4899" y2="506.886" gradientUnits="userSpaceOnUse">
<stop stop-color="#A8E3F9"/>
<stop offset="0.1075" stop-color="#80D7F6"/>
<stop offset="0.303" stop-color="#3DC3F0"/>
<stop offset="0.3947" stop-color="#22BBEE"/>
</linearGradient>
<linearGradient id="paint13_linear" x1="149.79" y1="220.855" x2="269.535" y2="220.855" gradientUnits="userSpaceOnUse">
<stop stop-color="#FFCFDD"/>
<stop offset="0.5806" stop-color="#EA6E97"/>
</linearGradient>
<linearGradient id="paint14_linear" x1="149.818" y1="232.489" x2="316.268" y2="232.489" gradientUnits="userSpaceOnUse">
<stop stop-color="#FDE595"/>
<stop offset="0.7325" stop-color="#FDDA68"/>
</linearGradient>
<linearGradient id="paint15_linear" x1="129.754" y1="229.217" x2="333.543" y2="229.217" gradientUnits="userSpaceOnUse">
<stop stop-color="#FFCFDD"/>
<stop offset="0.5806" stop-color="#EA6E97"/>
</linearGradient>
</defs>
</svg>
