<svg width="150" height="30" viewBox="0 0 150 30" fill="none" xmlns="http://www.w3.org/2000/svg">
<g clip-path="url(#clip0)">
<path d="M48.0292 0C38.431 0 32.2882 6.61597 32.2882 14.943C32.2882 23.4221 38.3926 29.962 48.0292 29.962C57.6273 29.962 63.7702 23.384 63.7702 14.943C63.7702 6.57795 57.6273 0 48.0292 0ZM48.0292 22.4335C43.5756 22.4335 40.6962 18.9354 40.9649 14.2586C41.1953 10.5703 44.1899 7.52852 47.914 7.49049C52.214 7.45247 55.0934 10.6844 55.0934 14.9049C55.0934 19.2776 52.2524 22.4335 48.0292 22.4335Z" fill="black"/>
<path d="M76.4397 0H68.7227C67.5326 0 66.5728 0.95057 66.5728 2.12928V27.9087C66.5728 29.0494 67.5326 30 68.6843 30H76.4397C86.2682 30 92.6414 24.2586 92.6414 14.981C92.6414 5.62738 86.1914 0 76.4397 0ZM76.2861 22.8137C75.6718 22.8137 75.2111 22.3194 75.2111 21.7491V8.28897C75.2111 7.68061 75.7102 7.22433 76.2861 7.22433C80.7012 7.22433 83.6959 9.73384 83.6959 15.019C83.6959 20.1901 80.7012 22.8137 76.2861 22.8137Z" fill="black"/>
<path d="M106.04 0C103.315 0 100.896 1.71103 100.013 4.25855L92.0655 26.9962C91.5664 28.4791 92.6414 30.038 94.2539 30.038H97.978C98.9762 30.038 99.8592 29.3916 100.166 28.4411L101.472 24.2966H110.571L111.876 28.4411C112.183 29.3916 113.066 30.038 114.064 30.038H117.789C119.363 30.038 120.476 28.4791 119.977 26.9962L112.03 4.25855C111.185 1.71103 108.766 0 106.04 0ZM103.929 16.1217L105.157 11.9011C105.426 11.0266 106.655 11.0266 106.923 11.9011L108.152 16.1217C108.344 16.8061 107.845 17.4525 107.115 17.4525H104.927C104.236 17.4525 103.737 16.7681 103.929 16.1217Z" fill="black"/>
<path d="M141.515 1.90114V13.9924C141.515 14.8289 140.402 15.0951 140.018 14.3726L132.877 1.93916C132.186 0.722433 130.919 0 129.537 0H124.891C123.816 0 122.972 0.836502 122.972 1.90114V28.0608C122.972 29.1255 123.855 30 124.93 30H129.46C130.535 30 131.418 29.1255 131.418 28.0608V16.0456C131.418 15.2471 132.455 14.981 132.877 15.6654L140.287 28.1369C140.978 29.3156 142.245 30.038 143.627 30.038H148.08C149.155 30.038 150 29.2015 150 28.1369V1.93916C150 0.874525 149.155 0.0380228 148.08 0.0380228H143.435C142.36 0 141.515 0.836502 141.515 1.90114Z" fill="black"/>
<path d="M31.3282 30.038H24.0336C23.6497 30.038 23.3425 29.8479 23.1889 29.5057L18.5818 19.962C18.4283 19.6198 18.0827 19.4297 17.7372 19.4297C17.1997 19.4297 16.7774 19.8479 16.7774 20.3802V24.1065C16.7774 24.6388 16.3551 25.057 15.8176 25.057H8.52296C7.98546 25.057 7.56314 24.6388 7.56314 24.1065V19.7338C7.56314 19.5437 7.48636 19.3536 7.37118 19.1635L3.53192 13.9544C3.07121 13.346 3.53192 12.4715 4.29977 12.4715H18.1979C20.1559 12.4715 21.1925 11.3308 21.1925 9.77186C21.1925 8.09886 20.1559 7.14829 18.1979 7.14829H15.6256C14.8194 7.14829 14.3586 8.09886 14.8961 8.70722L15.4336 9.31559C15.9711 9.92395 15.5104 10.8745 14.7042 10.8745H8.56135C8.2926 10.8745 8.02385 10.7605 7.83189 10.5323L0.230151 1.52091C-0.307346 0.912548 0.153366 0 0.959611 0H18.8506C26.3755 0 29.9844 3.61217 29.9844 9.5057C29.9844 12.4335 28.8327 15.2852 26.6443 16.9962C26.2604 17.3004 26.1452 17.7947 26.3755 18.1749C27.4889 20.2281 30.6755 26.0076 32.1344 28.6692C32.5183 29.2776 32.0576 30.038 31.3282 30.038Z" fill="black"/>
</g>
<defs>
<clipPath id="clip0">
<rect width="150" height="30" fill="white"/>
</clipPath>
</defs>
</svg>
