<?xml version="1.0" encoding="utf-8"?>
<!-- Generator: Adobe Illustrator 22.1.0, SVG Export Plug-In . SVG Version: 6.00 Build 0)  -->
<svg version="1.1" id="Calque_1" xmlns="http://www.w3.org/2000/svg" xmlns:xlink="http://www.w3.org/1999/xlink" x="0px" y="0px"
	 width="84.1px" height="78.9px" viewBox="0 0 84.1 78.9" style="enable-background:new 0 0 84.1 78.9;" xml:space="preserve">
<style type="text/css">
	.st0{display:none;}
</style>
<g>
	<path class="st0" d="M125.1,0c-25,0-41,17.4-41,39.3c0,22.3,15.9,39.5,41,39.5c25,0,41-17.3,41-39.5C166.1,17.3,150.1,0,125.1,0z
		 M125.1,59c-11.6,0-19.1-9.2-18.4-21.5c0.6-9.7,8.4-17.7,18.1-17.8c11.2-0.1,18.7,8.4,18.7,19.5C143.5,50.7,136.1,59,125.1,59z"/>
	<path class="st0" d="M199.1,0L179,0c-3.1,0-5.6,2.5-5.6,5.6l0,67.8c0,3,2.5,5.5,5.5,5.5h20.2c25.6,0,42.2-15.1,42.2-39.5
		C241.3,14.8,224.5,0,199.1,0z M198.7,60L198.7,60c-1.6,0-2.8-1.3-2.8-2.8V21.8c0-1.6,1.3-2.8,2.8-2.8l0,0
		c11.5,0,19.3,6.6,19.3,20.5C218,53.1,210.2,60,198.7,60z"/>
	<path class="st0" d="M276.2,0L276.2,0c-7.1,0-13.4,4.5-15.7,11.2L239.8,71c-1.3,3.9,1.5,8,5.7,8h9.7c2.6,0,4.9-1.7,5.7-4.2
		l3.4-10.9H288l3.4,10.9c0.8,2.5,3.1,4.2,5.7,4.2h9.7c4.1,0,7-4.1,5.7-8l-20.7-59.8C289.6,4.5,283.3,0,276.2,0z M270.7,42.4
		l3.2-11.1c0.7-2.3,3.9-2.3,4.6,0l3.2,11.1c0.5,1.8-0.8,3.5-2.7,3.5h-5.7C271.5,45.9,270.2,44.1,270.7,42.4z"/>
	<path class="st0" d="M368.6,5v31.8c0,2.2-2.9,2.9-3.9,1L346.1,5.1C344.3,1.9,341,0,337.4,0l-12.1,0c-2.8,0-5,2.2-5,5l0,68.8
		c0,2.8,2.3,5.1,5.1,5.1h11.8c2.8,0,5.1-2.3,5.1-5.1l0-31.6c0-2.1,2.7-2.8,3.8-1L365.4,74c1.8,3.1,5.1,5,8.7,5h11.6c2.8,0,5-2.2,5-5
		l0-68.9c0-2.8-2.2-5-5-5l-12.1,0C370.8,0,368.6,2.2,368.6,5z"/>
	<path d="M81.6,79h-19c-1,0-1.8-0.5-2.2-1.4l-12-25.1c-0.4-0.9-1.3-1.4-2.2-1.4h0c-1.4,0-2.5,1.1-2.5,2.5v9.8c0,1.4-1.1,2.5-2.5,2.5
		h-19c-1.4,0-2.5-1.1-2.5-2.5V51.9c0-0.5-0.2-1-0.5-1.5l-10-13.7c-1.2-1.6,0-3.9,2-3.9h36.2c5.1,0,7.8-3,7.8-7.1
		c0-4.4-2.7-6.9-7.8-6.9h-6.7c-2.1,0-3.3,2.5-1.9,4.1l1.4,1.6c1.4,1.6,0.2,4.1-1.9,4.1h-16c-0.7,0-1.4-0.3-1.9-0.9L0.6,4
		C-0.8,2.4,0.4,0,2.5,0h46.6c19.6,0,29,9.5,29,25c0,7.7-3,15.2-8.7,19.7c-1,0.8-1.3,2.1-0.7,3.1c2.9,5.4,11.2,20.6,15,27.6
		C84.7,77,83.5,79,81.6,79z"/>
</g>
</svg>
