<svg width="29" height="29" viewBox="0 0 29 29" fill="none" xmlns="http://www.w3.org/2000/svg">
<g clip-path="url(#clip0)">
<path d="M14.5 0C6.5048 0 0 6.5048 0 14.5C0 22.4952 6.5048 29 14.5 29C22.4952 29 29 22.4952 29 14.5C29 6.5048 22.4951 0 14.5 0ZM3.62497 14.5C3.62497 12.1549 4.37855 9.98679 5.6457 8.20867L20.7913 23.3542C19.0132 24.6213 16.845 25.375 14.4999 25.375C8.50319 25.375 3.62497 20.4968 3.62497 14.5ZM23.3542 20.7913L8.20861 5.6457C9.98673 4.37861 12.1549 3.62497 14.4999 3.62497C20.4968 3.62497 25.3749 8.50314 25.3749 14.4999C25.3749 16.8451 24.6213 19.0132 23.3542 20.7913Z" fill="#898181"/>
</g>
<defs>
<clipPath id="clip0">
<rect width="29" height="29" fill="white"/>
</clipPath>
</defs>
</svg>
